<mxfile host="app.diagrams.net" agent="Mozilla/5.0 (Windows NT 10.0; Win64; x64) AppleWebKit/537.36 (KHTML, like Gecko) Chrome/127.0.0.0 Safari/537.36 Edg/127.0.0.0" version="24.7.7">
  <diagram name="第 1 页" id="xCzEDtHHo6Lg7tSwvx7r">
    <mxGraphModel dx="2109" dy="1540" grid="1" gridSize="10" guides="1" tooltips="1" connect="1" arrows="1" fold="1" page="0" pageScale="1" pageWidth="827" pageHeight="1169" math="0" shadow="0">
      <root>
        <mxCell id="0" />
        <mxCell id="1" parent="0" />
        <mxCell id="R44nWhIXN0mQkiClx4l6-1" value="user_info&lt;div&gt;424 170&lt;/div&gt;" style="rounded=0;whiteSpace=wrap;html=1;fillColor=#d5e8d4;strokeColor=#000000;" parent="1" vertex="1">
          <mxGeometry x="-20" y="-430" width="120" height="30" as="geometry" />
        </mxCell>
        <mxCell id="R44nWhIXN0mQkiClx4l6-2" value="user_log&lt;div&gt;54 925 330&lt;/div&gt;" style="rounded=0;whiteSpace=wrap;html=1;fillColor=#d5e8d4;strokeColor=#000000;" parent="1" vertex="1">
          <mxGeometry x="-20" y="-380" width="120" height="30" as="geometry" />
        </mxCell>
        <mxCell id="R44nWhIXN0mQkiClx4l6-3" value="train_data&lt;div&gt;260 864&lt;/div&gt;" style="rounded=0;whiteSpace=wrap;html=1;fillColor=#d5e8d4;strokeColor=#000000;" parent="1" vertex="1">
          <mxGeometry x="-20" y="-307" width="120" height="30" as="geometry" />
        </mxCell>
        <mxCell id="R44nWhIXN0mQkiClx4l6-4" value="test_data&lt;div&gt;261 477&lt;/div&gt;" style="rounded=0;whiteSpace=wrap;html=1;fillColor=#d5e8d4;strokeColor=#000000;" parent="1" vertex="1">
          <mxGeometry x="-20" y="-257" width="120" height="30" as="geometry" />
        </mxCell>
        <mxCell id="R44nWhIXN0mQkiClx4l6-6" value="age_range" style="rounded=0;whiteSpace=wrap;html=1;" parent="1" vertex="1">
          <mxGeometry x="300" y="-430" width="80" height="30" as="geometry" />
        </mxCell>
        <mxCell id="R44nWhIXN0mQkiClx4l6-7" value="user_id" style="rounded=0;whiteSpace=wrap;html=1;" parent="1" vertex="1">
          <mxGeometry x="120" y="-430" width="80" height="30" as="geometry" />
        </mxCell>
        <mxCell id="R44nWhIXN0mQkiClx4l6-8" value="user_id" style="rounded=0;whiteSpace=wrap;html=1;" parent="1" vertex="1">
          <mxGeometry x="120" y="-380" width="60" height="30" as="geometry" />
        </mxCell>
        <mxCell id="R44nWhIXN0mQkiClx4l6-9" value="user_id" style="rounded=0;whiteSpace=wrap;html=1;" parent="1" vertex="1">
          <mxGeometry x="120" y="-307" width="60" height="30" as="geometry" />
        </mxCell>
        <mxCell id="R44nWhIXN0mQkiClx4l6-10" value="gender" style="rounded=0;whiteSpace=wrap;html=1;" parent="1" vertex="1">
          <mxGeometry x="210" y="-430" width="80" height="30" as="geometry" />
        </mxCell>
        <mxCell id="R44nWhIXN0mQkiClx4l6-11" value="merchant_id" style="rounded=0;whiteSpace=wrap;html=1;" parent="1" vertex="1">
          <mxGeometry x="190" y="-307" width="80" height="30" as="geometry" />
        </mxCell>
        <mxCell id="R44nWhIXN0mQkiClx4l6-12" value="label" style="rounded=0;whiteSpace=wrap;html=1;" parent="1" vertex="1">
          <mxGeometry x="280" y="-307" width="40" height="30" as="geometry" />
        </mxCell>
        <mxCell id="R44nWhIXN0mQkiClx4l6-13" value="item_id" style="rounded=0;whiteSpace=wrap;html=1;" parent="1" vertex="1">
          <mxGeometry x="250" y="-380" width="50" height="30" as="geometry" />
        </mxCell>
        <mxCell id="R44nWhIXN0mQkiClx4l6-14" value="cat_id" style="rounded=0;whiteSpace=wrap;html=1;" parent="1" vertex="1">
          <mxGeometry x="310" y="-380" width="40" height="30" as="geometry" />
        </mxCell>
        <mxCell id="R44nWhIXN0mQkiClx4l6-15" value="seller_id" style="rounded=0;whiteSpace=wrap;html=1;" parent="1" vertex="1">
          <mxGeometry x="190" y="-380" width="50" height="30" as="geometry" />
        </mxCell>
        <mxCell id="R44nWhIXN0mQkiClx4l6-16" value="brand_id" style="rounded=0;whiteSpace=wrap;html=1;" parent="1" vertex="1">
          <mxGeometry x="360" y="-380" width="50" height="30" as="geometry" />
        </mxCell>
        <mxCell id="R44nWhIXN0mQkiClx4l6-17" value="time_stamp" style="rounded=0;whiteSpace=wrap;html=1;" parent="1" vertex="1">
          <mxGeometry x="420" y="-380" width="70" height="30" as="geometry" />
        </mxCell>
        <mxCell id="R44nWhIXN0mQkiClx4l6-18" value="action_type" style="rounded=0;whiteSpace=wrap;html=1;" parent="1" vertex="1">
          <mxGeometry x="500" y="-380" width="70" height="30" as="geometry" />
        </mxCell>
        <mxCell id="R44nWhIXN0mQkiClx4l6-19" value="user_id" style="rounded=0;whiteSpace=wrap;html=1;" parent="1" vertex="1">
          <mxGeometry x="120" y="-257" width="60" height="30" as="geometry" />
        </mxCell>
        <mxCell id="R44nWhIXN0mQkiClx4l6-20" value="merchant_id" style="rounded=0;whiteSpace=wrap;html=1;" parent="1" vertex="1">
          <mxGeometry x="190" y="-257" width="80" height="30" as="geometry" />
        </mxCell>
        <mxCell id="R44nWhIXN0mQkiClx4l6-21" value="prob" style="rounded=0;whiteSpace=wrap;html=1;fillColor=#e1d5e7;strokeColor=#9673a6;" parent="1" vertex="1">
          <mxGeometry x="280" y="-257" width="40" height="30" as="geometry" />
        </mxCell>
        <mxCell id="R44nWhIXN0mQkiClx4l6-22" value="&lt;div&gt;1.数据预处理（info和log融合便于提取特征，train和test融合用于最后的训练预测，&lt;span style=&quot;background-color: initial;&quot;&gt;处理缺失值&lt;/span&gt;&lt;span style=&quot;background-color: initial;&quot;&gt;）&lt;/span&gt;&lt;/div&gt;" style="rounded=0;whiteSpace=wrap;html=1;align=center;verticalAlign=middle;spacing=2;spacingLeft=4;" parent="1" vertex="1">
          <mxGeometry x="-20" y="-170" width="540" height="30" as="geometry" />
        </mxCell>
        <mxCell id="R44nWhIXN0mQkiClx4l6-23" value="2.提取特征" style="rounded=0;whiteSpace=wrap;html=1;align=center;verticalAlign=top;spacing=2;spacingLeft=4;strokeColor=#000000;" parent="1" vertex="1">
          <mxGeometry x="-20" y="-130" width="540" height="270" as="geometry" />
        </mxCell>
        <mxCell id="R44nWhIXN0mQkiClx4l6-24" value="用户统计特征" style="rounded=0;whiteSpace=wrap;html=1;align=center;verticalAlign=middle;spacing=2;spacingLeft=4;fillColor=#dae8fc;strokeColor=#000000;" parent="1" vertex="1">
          <mxGeometry x="-10" y="-100" width="160" height="30" as="geometry" />
        </mxCell>
        <mxCell id="R44nWhIXN0mQkiClx4l6-25" value="商户统计特征" style="rounded=0;whiteSpace=wrap;html=1;align=center;verticalAlign=middle;spacing=2;spacingLeft=4;fillColor=#d5e8d4;strokeColor=#000000;" parent="1" vertex="1">
          <mxGeometry x="170" y="-100" width="160" height="30" as="geometry" />
        </mxCell>
        <mxCell id="R44nWhIXN0mQkiClx4l6-26" value="用户商户交互特征" style="rounded=0;whiteSpace=wrap;html=1;align=center;verticalAlign=middle;spacing=2;spacingLeft=4;fillColor=#ffe6cc;strokeColor=default;" parent="1" vertex="1">
          <mxGeometry x="350" y="-100" width="160" height="30" as="geometry" />
        </mxCell>
        <mxCell id="R44nWhIXN0mQkiClx4l6-27" value="1.日志数量&lt;div&gt;2.浏览商户数量&lt;/div&gt;&lt;div&gt;3.&lt;span style=&quot;background-color: initial;&quot;&gt;浏览商品种数&lt;/span&gt;&lt;/div&gt;&lt;div&gt;&lt;span style=&quot;background-color: initial;&quot;&gt;4.浏览商品类别种数&lt;/span&gt;&lt;/div&gt;&lt;div&gt;&lt;span style=&quot;background-color: initial;&quot;&gt;5.浏览商品品牌种数&lt;/span&gt;&lt;/div&gt;&lt;div&gt;&lt;span style=&quot;background-color: initial;&quot;&gt;6.浏览总时长&lt;/span&gt;&lt;/div&gt;&lt;div&gt;&lt;span style=&quot;background-color: initial;&quot;&gt;7.点击操作数&lt;/span&gt;&lt;/div&gt;&lt;div&gt;&lt;span style=&quot;background-color: initial;&quot;&gt;8.加购操作数&lt;/span&gt;&lt;/div&gt;&lt;div&gt;&lt;span style=&quot;background-color: initial;&quot;&gt;9.购买操作数&lt;/span&gt;&lt;/div&gt;&lt;div&gt;&lt;span style=&quot;background-color: initial;&quot;&gt;10.收藏操作数&lt;/span&gt;&lt;/div&gt;" style="rounded=0;whiteSpace=wrap;html=1;align=left;verticalAlign=middle;spacing=2;spacingLeft=4;fillColor=#FFFFFF;strokeColor=#63A7FF;" parent="1" vertex="1">
          <mxGeometry x="-10" y="-60" width="160" height="160" as="geometry" />
        </mxCell>
        <mxCell id="R44nWhIXN0mQkiClx4l6-28" value="初始方案" style="text;html=1;align=center;verticalAlign=middle;whiteSpace=wrap;rounded=0;" parent="1" vertex="1">
          <mxGeometry x="-20" y="-200" width="60" height="30" as="geometry" />
        </mxCell>
        <mxCell id="R44nWhIXN0mQkiClx4l6-29" value="&lt;div&gt;3.使用XGBoost/Random Forest进行回归预测&lt;/div&gt;" style="rounded=0;whiteSpace=wrap;html=1;align=center;verticalAlign=top;spacing=2;spacingLeft=4;" parent="1" vertex="1">
          <mxGeometry x="-20" y="150" width="540" height="190" as="geometry" />
        </mxCell>
        <mxCell id="R44nWhIXN0mQkiClx4l6-30" value="1.日志数量&lt;div&gt;2.访问用户数量&lt;/div&gt;&lt;div&gt;3.访问商品种类&lt;/div&gt;&lt;div&gt;4.访问商品类别种数&lt;/div&gt;&lt;div&gt;5.访问商品品牌种数&lt;/div&gt;&lt;div&gt;&lt;div&gt;&lt;span style=&quot;background-color: initial;&quot;&gt;6.点击操作数&lt;/span&gt;&lt;/div&gt;&lt;div&gt;&lt;span style=&quot;background-color: initial;&quot;&gt;7.加购操作数&lt;/span&gt;&lt;/div&gt;&lt;div&gt;&lt;span style=&quot;background-color: initial;&quot;&gt;8.购买操作数&lt;/span&gt;&lt;/div&gt;&lt;div&gt;&lt;span style=&quot;background-color: initial;&quot;&gt;9.收藏操作数&lt;/span&gt;&lt;/div&gt;&lt;/div&gt;&lt;div&gt;&lt;span style=&quot;background-color: initial;&quot;&gt;10.复购的标签数量&lt;/span&gt;&lt;/div&gt;" style="rounded=0;whiteSpace=wrap;html=1;align=left;verticalAlign=middle;spacing=2;spacingLeft=4;fillColor=#FFFFFF;strokeColor=#62CC82;" parent="1" vertex="1">
          <mxGeometry x="170" y="-60" width="160" height="160" as="geometry" />
        </mxCell>
        <mxCell id="R44nWhIXN0mQkiClx4l6-31" value="1.日志数量&lt;div&gt;&lt;div&gt;2.交互商品种类&lt;/div&gt;&lt;div&gt;3.交互商品类别种数&lt;/div&gt;&lt;div&gt;4.交互商品品牌种数&lt;/div&gt;&lt;div&gt;&lt;div&gt;&lt;span style=&quot;background-color: initial;&quot;&gt;5.点击操作数&lt;/span&gt;&lt;/div&gt;&lt;div&gt;&lt;span style=&quot;background-color: initial;&quot;&gt;6.加购操作数&lt;/span&gt;&lt;/div&gt;&lt;div&gt;&lt;span style=&quot;background-color: initial;&quot;&gt;7.购买操作数&lt;/span&gt;&lt;/div&gt;&lt;div&gt;&lt;span style=&quot;background-color: initial;&quot;&gt;8.收藏操作数&lt;/span&gt;&lt;/div&gt;&lt;/div&gt;&lt;/div&gt;&lt;div&gt;&lt;span style=&quot;background-color: initial;&quot;&gt;9.交互的时长&lt;/span&gt;&lt;/div&gt;" style="rounded=0;whiteSpace=wrap;html=1;align=left;verticalAlign=middle;spacing=2;spacingLeft=4;fillColor=#FFFFFF;strokeColor=#FFB366;" parent="1" vertex="1">
          <mxGeometry x="350" y="-60" width="160" height="160" as="geometry" />
        </mxCell>
        <mxCell id="R44nWhIXN0mQkiClx4l6-32" value="9购买/7点击比" style="rounded=0;whiteSpace=wrap;html=1;align=left;verticalAlign=middle;spacing=2;spacingLeft=4;fillColor=#FFFFFF;strokeColor=#63A7FF;" parent="1" vertex="1">
          <mxGeometry x="-10" y="100" width="160" height="20" as="geometry" />
        </mxCell>
        <mxCell id="R44nWhIXN0mQkiClx4l6-33" value="8购买/6点击比" style="rounded=0;whiteSpace=wrap;html=1;align=left;verticalAlign=middle;spacing=2;spacingLeft=4;fillColor=#FFFFFF;strokeColor=#62cc82;" parent="1" vertex="1">
          <mxGeometry x="170" y="100" width="160" height="20" as="geometry" />
        </mxCell>
        <mxCell id="R44nWhIXN0mQkiClx4l6-34" value="7购买/5点击比" style="rounded=0;whiteSpace=wrap;html=1;align=left;verticalAlign=middle;spacing=2;spacingLeft=4;fillColor=#FFFFFF;strokeColor=#ffb366;" parent="1" vertex="1">
          <mxGeometry x="350" y="100" width="160" height="20" as="geometry" />
        </mxCell>
        <mxCell id="R44nWhIXN0mQkiClx4l6-35" value="* 用户属性编码：年龄范围0-8共九位，性别0-2共3位" style="text;html=1;align=left;verticalAlign=middle;whiteSpace=wrap;rounded=0;" parent="1" vertex="1">
          <mxGeometry x="-10" y="120" width="520" height="20" as="geometry" />
        </mxCell>
        <mxCell id="R44nWhIXN0mQkiClx4l6-36" value="&lt;div&gt;max_depth=8,&lt;span style=&quot;white-space: pre;&quot;&gt;&#x9;&lt;/span&gt;&lt;span style=&quot;white-space: pre;&quot;&gt;&#x9;&lt;/span&gt;&lt;span style=&quot;white-space: pre;&quot;&gt;&#x9;&lt;span style=&quot;white-space: pre;&quot;&gt;&#x9;&lt;/span&gt;&lt;/span&gt;# 树最大深度&lt;/div&gt;&lt;div&gt;n_estimators=1000,&lt;span style=&quot;white-space: pre;&quot;&gt;&#x9;&lt;/span&gt;&lt;span style=&quot;white-space: pre;&quot;&gt;&#x9;&lt;/span&gt;# 迭代轮数&lt;/div&gt;&lt;div&gt;min_child_weight=300,&lt;span style=&quot;white-space: pre;&quot;&gt;&#x9;&lt;/span&gt;&lt;span style=&quot;white-space: pre;&quot;&gt;&#x9;&lt;/span&gt;# 最小样本权重&lt;/div&gt;&lt;div&gt;colsample_bytree=0.8,&lt;span style=&quot;white-space: pre;&quot;&gt;&#x9;&lt;/span&gt;&lt;span style=&quot;white-space: pre;&quot;&gt;&#x9;&lt;/span&gt;# 特征采样&lt;/div&gt;&lt;div&gt;subsample=0.8,&lt;span style=&quot;white-space: pre;&quot;&gt;&#x9;&lt;/span&gt;&lt;span style=&quot;white-space: pre;&quot;&gt;&#x9;&lt;/span&gt;&lt;span style=&quot;white-space: pre;&quot;&gt;&#x9;&lt;/span&gt;# 样本抽样&lt;/div&gt;&lt;div&gt;eta=0.3,&lt;span style=&quot;white-space: pre;&quot;&gt;&#x9;&lt;/span&gt;&lt;span style=&quot;white-space: pre;&quot;&gt;&#x9;&lt;/span&gt;&lt;span style=&quot;white-space: pre;&quot;&gt;&#x9;&lt;/span&gt;&lt;span style=&quot;white-space: pre;&quot;&gt;&#x9;&lt;/span&gt;&lt;span style=&quot;white-space: pre;&quot;&gt;&#x9;&lt;/span&gt;# 学习率&lt;/div&gt;&lt;div&gt;seed=42&lt;span style=&quot;white-space: pre;&quot;&gt;&#x9;&lt;/span&gt;&lt;span style=&quot;white-space: pre;&quot;&gt;&#x9;&lt;/span&gt;&lt;span style=&quot;white-space: pre;&quot;&gt;&#x9;&lt;/span&gt;&lt;span style=&quot;white-space: pre;&quot;&gt;&#x9;&lt;/span&gt;&lt;span style=&quot;white-space: pre;&quot;&gt;&#x9;&lt;/span&gt;# 随机种子&lt;/div&gt;" style="rounded=0;whiteSpace=wrap;html=1;align=left;spacingLeft=4;verticalAlign=top;" parent="1" vertex="1">
          <mxGeometry x="-10" y="203" width="250" height="127" as="geometry" />
        </mxCell>
        <mxCell id="R44nWhIXN0mQkiClx4l6-37" value="&lt;div&gt;oob_score=True,&lt;span style=&quot;white-space: pre;&quot;&gt;&#x9;&lt;/span&gt;&lt;span style=&quot;white-space: pre;&quot;&gt;&#x9;&lt;/span&gt;&lt;span style=&quot;white-space: pre;&quot;&gt;&#x9;&lt;/span&gt;# 包外估计验证&lt;/div&gt;&lt;div&gt;n_estimators=1000,&lt;span style=&quot;white-space: pre;&quot;&gt;&#x9;&lt;/span&gt;&lt;span style=&quot;white-space: pre;&quot;&gt;&#x9;&lt;/span&gt;# 最大树数量&lt;/div&gt;&lt;div&gt;max_depth=10,&lt;span style=&quot;white-space: pre;&quot;&gt;&#x9;&lt;/span&gt;&lt;span style=&quot;white-space: pre;&quot;&gt;&#x9;&lt;/span&gt;&lt;span style=&quot;white-space: pre;&quot;&gt;&#x9;&lt;/span&gt;# 树最大深度&lt;/div&gt;&lt;div style=&quot;&quot;&gt;max_features=&#39;sqrt&#39;&lt;span style=&quot;white-space: pre;&quot;&gt;&#x9;&lt;/span&gt;&lt;span style=&quot;white-space: pre;&quot;&gt;&#x9;&lt;/span&gt;&lt;span style=&quot;white-space: pre;&quot;&gt;&#x9;&lt;/span&gt;# 最大划分数量&lt;/div&gt;" style="rounded=0;whiteSpace=wrap;html=1;spacingLeft=4;horizontal=1;verticalAlign=top;align=left;" parent="1" vertex="1">
          <mxGeometry x="260" y="203" width="250" height="127" as="geometry" />
        </mxCell>
        <mxCell id="R44nWhIXN0mQkiClx4l6-38" value="XGBoost" style="text;html=1;align=center;verticalAlign=middle;whiteSpace=wrap;rounded=0;fontColor=#3333FF;fontStyle=1" parent="1" vertex="1">
          <mxGeometry x="-10" y="173" width="60" height="30" as="geometry" />
        </mxCell>
        <mxCell id="R44nWhIXN0mQkiClx4l6-39" value="Random Forest" style="text;html=1;align=center;verticalAlign=middle;whiteSpace=wrap;rounded=0;fontStyle=1;fontColor=#FF66B3;" parent="1" vertex="1">
          <mxGeometry x="260" y="173" width="90" height="30" as="geometry" />
        </mxCell>
        <mxCell id="R44nWhIXN0mQkiClx4l6-43" value="原始数据格式" style="text;html=1;align=center;verticalAlign=middle;whiteSpace=wrap;rounded=0;" parent="1" vertex="1">
          <mxGeometry x="-20" y="-460" width="80" height="30" as="geometry" />
        </mxCell>
        <mxCell id="R44nWhIXN0mQkiClx4l6-44" value="方案改进：提取新的有效特征" style="rounded=0;whiteSpace=wrap;html=1;align=center;verticalAlign=top;spacing=2;spacingLeft=4;strokeColor=#000000;" parent="1" vertex="1">
          <mxGeometry x="-20" y="350" width="540" height="270" as="geometry" />
        </mxCell>
        <mxCell id="R44nWhIXN0mQkiClx4l6-45" value="方案改进：Graph embedding" style="rounded=0;whiteSpace=wrap;html=1;align=center;verticalAlign=top;spacing=2;spacingLeft=4;strokeColor=#000000;" parent="1" vertex="1">
          <mxGeometry x="550" y="-300" width="540" height="220" as="geometry" />
        </mxCell>
        <mxCell id="R44nWhIXN0mQkiClx4l6-46" value="方案改进：网络结构" style="rounded=0;whiteSpace=wrap;html=1;align=center;verticalAlign=top;spacing=2;spacingLeft=4;strokeColor=#000000;" parent="1" vertex="1">
          <mxGeometry x="550" y="-70" width="540" height="220" as="geometry" />
        </mxCell>
        <mxCell id="R44nWhIXN0mQkiClx4l6-47" value="用户统计特征" style="rounded=0;whiteSpace=wrap;html=1;align=center;verticalAlign=middle;spacing=2;spacingLeft=4;fillColor=#dae8fc;strokeColor=#000000;" parent="1" vertex="1">
          <mxGeometry x="-10" y="380" width="160" height="30" as="geometry" />
        </mxCell>
        <mxCell id="R44nWhIXN0mQkiClx4l6-48" value="1.1-6 purchase&lt;div&gt;2.浏览商户数量&lt;/div&gt;&lt;div&gt;3.&lt;span style=&quot;background-color: initial;&quot;&gt;浏览商品种数&lt;/span&gt;&lt;/div&gt;&lt;div&gt;&lt;span style=&quot;background-color: initial;&quot;&gt;4.浏览商品类别种数&lt;/span&gt;&lt;/div&gt;&lt;div&gt;&lt;span style=&quot;background-color: initial;&quot;&gt;5.浏览商品品牌种数&lt;/span&gt;&lt;/div&gt;&lt;div&gt;&lt;span style=&quot;background-color: initial;&quot;&gt;6.浏览总时长&lt;/span&gt;&lt;/div&gt;&lt;div&gt;&lt;span style=&quot;background-color: initial;&quot;&gt;7.点击操作数&lt;/span&gt;&lt;/div&gt;&lt;div&gt;&lt;span style=&quot;background-color: initial;&quot;&gt;8.加购操作数&lt;/span&gt;&lt;/div&gt;&lt;div&gt;&lt;span style=&quot;background-color: initial;&quot;&gt;9.购买操作数&lt;/span&gt;&lt;/div&gt;&lt;div&gt;&lt;span style=&quot;background-color: initial;&quot;&gt;10.收藏操作数&lt;/span&gt;&lt;/div&gt;" style="rounded=0;whiteSpace=wrap;html=1;align=left;verticalAlign=middle;spacing=2;spacingLeft=4;fillColor=#FFFFFF;strokeColor=#63A7FF;" parent="1" vertex="1">
          <mxGeometry x="-10" y="420" width="160" height="160" as="geometry" />
        </mxCell>
        <mxCell id="R44nWhIXN0mQkiClx4l6-49" value="商户统计特征" style="rounded=0;whiteSpace=wrap;html=1;align=center;verticalAlign=middle;spacing=2;spacingLeft=4;fillColor=#d5e8d4;strokeColor=#000000;" parent="1" vertex="1">
          <mxGeometry x="170" y="380" width="160" height="30" as="geometry" />
        </mxCell>
        <mxCell id="R44nWhIXN0mQkiClx4l6-50" value="用户商户交互特征" style="rounded=0;whiteSpace=wrap;html=1;align=center;verticalAlign=middle;spacing=2;spacingLeft=4;fillColor=#ffe6cc;strokeColor=default;" parent="1" vertex="1">
          <mxGeometry x="350" y="380" width="160" height="30" as="geometry" />
        </mxCell>
        <mxCell id="R44nWhIXN0mQkiClx4l6-51" value="1.日志数量&lt;div&gt;2.访问用户数量&lt;/div&gt;&lt;div&gt;3.访问商品种类&lt;/div&gt;&lt;div&gt;4.访问商品类别种数&lt;/div&gt;&lt;div&gt;5.访问商品品牌种数&lt;/div&gt;&lt;div&gt;&lt;div&gt;&lt;span style=&quot;background-color: initial;&quot;&gt;6.点击操作数&lt;/span&gt;&lt;/div&gt;&lt;div&gt;&lt;span style=&quot;background-color: initial;&quot;&gt;7.加购操作数&lt;/span&gt;&lt;/div&gt;&lt;div&gt;&lt;span style=&quot;background-color: initial;&quot;&gt;8.购买操作数&lt;/span&gt;&lt;/div&gt;&lt;div&gt;&lt;span style=&quot;background-color: initial;&quot;&gt;9.收藏操作数&lt;/span&gt;&lt;/div&gt;&lt;/div&gt;&lt;div&gt;&lt;span style=&quot;background-color: initial;&quot;&gt;10.复购的标签数量&lt;/span&gt;&lt;/div&gt;" style="rounded=0;whiteSpace=wrap;html=1;align=left;verticalAlign=middle;spacing=2;spacingLeft=4;fillColor=#FFFFFF;strokeColor=#62CC82;" parent="1" vertex="1">
          <mxGeometry x="170" y="420" width="160" height="160" as="geometry" />
        </mxCell>
        <mxCell id="R44nWhIXN0mQkiClx4l6-52" value="1.日志数量&lt;div&gt;&lt;div&gt;2.交互商品种类&lt;/div&gt;&lt;div&gt;3.交互商品类别种数&lt;/div&gt;&lt;div&gt;4.交互商品品牌种数&lt;/div&gt;&lt;div&gt;&lt;div&gt;&lt;span style=&quot;background-color: initial;&quot;&gt;5.点击操作数&lt;/span&gt;&lt;/div&gt;&lt;div&gt;&lt;span style=&quot;background-color: initial;&quot;&gt;6.加购操作数&lt;/span&gt;&lt;/div&gt;&lt;div&gt;&lt;span style=&quot;background-color: initial;&quot;&gt;7.购买操作数&lt;/span&gt;&lt;/div&gt;&lt;div&gt;&lt;span style=&quot;background-color: initial;&quot;&gt;8.收藏操作数&lt;/span&gt;&lt;/div&gt;&lt;/div&gt;&lt;/div&gt;&lt;div&gt;&lt;span style=&quot;background-color: initial;&quot;&gt;9.交互的时长&lt;/span&gt;&lt;/div&gt;" style="rounded=0;whiteSpace=wrap;html=1;align=left;verticalAlign=middle;spacing=2;spacingLeft=4;fillColor=#FFFFFF;strokeColor=#FFB366;" parent="1" vertex="1">
          <mxGeometry x="350" y="420" width="160" height="160" as="geometry" />
        </mxCell>
        <mxCell id="R44nWhIXN0mQkiClx4l6-56" value="方案改进：Graph embedding&lt;div&gt;&lt;img height=&quot;506&quot; width=&quot;520&quot; src=&quot;data:image/png;base64,iVBORw0KGgoAAAANSUhEUgAAAu4AAALaCAIAAADhlEEmAAAAAXNSR0IArs4c6QAAAARnQU1BAACxjwv8YQUAAAAJcEhZcwAAFiUAABYlAUlSJPAAAP+lSURBVHhe7J0FWBVNG4aRtlBBwVYs7MLu7u5O7G6x67Pzs7GwwA7EwMZWRASUUgSkQUDpPP6PO+P5z0eeIPW9Ly+cd2bP7s7s7LzP7M7O5Pv586cSQRAEQRBE3kSZ/08QBEEQBJEHISlDEARBEEQehqQMQRAEQRB5GJIyBEEQBEHkYUjKEARBEASRhyEpQxAEQRBEHoakDEEQBEEQeRiSMgRBEARB5GFIyhAEQRAEkYchKUMQBEEQRB6GpAxBEARBEHkYkjIEQRAEQeRhSMoQBEEQBJGHISlDEARBEEQehqQMQRAEQRB5GJIyBEEQBEHkYfL9FOAWQRAEQRBENpIvXz4ekhd6KkMQBEEQRB6GpAxBEARBEHkYkjIEQRAEQeRhSMoQBEEQBJGHISlDEARBEEQehqQMQRAEQRB5GJIyBEEQBEHkYUjKEARBEASRh1FIyoSFhUVHR3ND4NOnTzY2Ntz4DWIQzw0B/Or58+ffvn3jtoCvr++LFy8SEhK4LfDx48f3799zQyApKenVq1deXl7cFvj+/fuzZ89+/PjBbQFPT09sKRKJuC1gZ2fn5OTEDYH4+HicjJ+fH7cFgoODERkTE8NtATc3t7dv33LjN8jd58+fuSEQFRUlfe7s7e25IYDcvXz5MtXchYeHc1vAw8ND+tz5+/tzWyAoKEia3P38+fPNmzdy5+7Dhw+p5u7r16/cFkAtkj53zs7O3BCIi4uTMneurq7S5y4kJITbAj4+PqnmzsHBgRsCMuXu9evXyXL37t27VHMXEBDAbQGWu9jYWG4LIHe2trbcEGC5c3d357ZAZGQkTibV3CUmJnJbwNHRUfrcRUREcFvgy5cvyF2yiTelzF1gYKCCuQsNDeW2gJS5wwbInbe3N7cFsCvpc+fi4sINAelzhx+mzB0OIU3ucMKp5g5wQ0DB3OH0kuUOWUBGkB1uCyCziETGuS2AH6JwuCHAcocDcVsAp5Fq7nDayXKHC5cydyiEVHOHQuO2AIoU1SZl7lDBuCGQRbnDzcJtAdxKyB1uK24LpJU7VGNuC+AWzobc4YZNljs0Wcgdmi9uC6BxkzJ3WQtyjvOTj5kzZy5cuJAbAh06dKhcuTI8MbdFImQbMZ06deK2wLlz58qVK7d27VpuC0yfPr18+fIPHz7ktkiEgqhbt2716tWhUXiUSIRrU7FixeHDh3Nb4N9//y1btuyBAwe4LTB48GBsCW/KbZEI9Rt7q1+/PrcF7t69i5OZPXs2twVWrVqFyIsXL3JboH379lWqVMFF4rZIhCqL3HXu3JnbAubm5vjtunXruC3Acvfo0SNuC7mrU6dOjRo1UBV4lJC7ChUqjBw5ktsCe/bsQe4OHTrEbYFBgwYhd6j63BZyZ2Bg0LBhQ24LWFlZ4WTmzp3LbYGVK1ci8vLly9wWaNu2LXKHFoHbIhHujUqVKnXp0oXbAmfPnsVv169fz22BqVOnInePHz/mtkiEO5DlDrcxjxKJIPuQu1GjRnFbYPfu3cjd4cOHuS0wcOBAfX193NXcFokgnpA7Q0NDbgvcuXMHJzNv3jxuCyxfvhyRV65c4bZA69atkTu0CNwWiSBikLtu3bpxW+D06dP47T///MNtgcmTJyN3T5484bZIBIFYu3Zt5A6tCY8SidCOIHejR4/mtsCuXbuQOxMTE24LDBgwALmDGOK2kLtq1ao1atSI2wK3b9/GycyfP5/bAsuWLUPk1atXuS3QqlWrqlWrQo5zWyRC5wG569GjB7cFTp06hZPZtGkTtwUmTZqE3D19+pTbv3NXs2ZNdDl4lNCEIXdjx47ltsCOHTuwwyNHjnBboF+/fsgdZDq3RSLIL+SucePG3Ba4efMmMrJgwQJuCxgbGyPy2rVr3BZo2bJlstyhdUbuevbsyW0BU1NTnMzmzZu5LWBkZITcoanltkiE9rpWrVrJcodmF7kbN24ctwW2bduGHR47dozbAn369EHu0GHgtkgEr4DcNW3alNsClpaWyMiiRYu4LbBkyRJEWlhYcFugRYsWyB18Cbd/565Xr17cFmC527JlC7cFJkyYgNOGq+O2SARHhdwBSHkeJRJhA2yGjbktsHXrVuzwxIkT3Bbo3bs3cgcPzW2RCCeG02vevDm3BW7cuIGMIDvcFli8eDEikXFuCzRr1gyFgyLitkgEB4lD4EDcFjh+/DhOBqfEbYHx48cnyx0yhQuH3CGbPEokgg/GJZ44cSK3BVANsEMUGrcFUGFQsChebotE6AUhd7gE3Ba4fv06MrJ06VJuC8DTIRKVltsCTZo0Qe5QvbktEqFiIHd9+/bltsDRo0dxMtu3b+e2AG4l5I512BiokCx3qKI8SiRC1UXuUI25LcByd/LkSW4LsNyhR8ptkQi3DHKH24fbAri5kBE0I9wWwG2IyFu3bnFbADcscodePbdFItzUyF3//v25LYDbHyezc+dObguMGTMGuUOjwe2MgA5REIUWLoA/09bWnjFjBrcJgiAIgiBkQfGFC2gNJoIgCIIgsgQrK6tLly4dOXKE26lBazARBEEQBJFLCQkJSTYUNSugpzIEQRAEQWQJ8fHxYWFhenp63E4NesFEEARBEEQeJodfMNnZ2SX7SI8gCIIgCCI7UUjKmJiYnDlzhhsEQRAEQRDZjkJSplOnTq1bt+YGQRAEQRCEBHFxcQH/nSsyK6CxMgRBEARBZAlmZmZnzpy5desWt1ODPsYmCIIgCCKXUrx48XLlynEjy6CnMgRBEARB5Bj0VIYgCIIgiL8ahaSMmZnZjRs3uEEQBEEQBJHtKCRlnj59+vr1a24QBEEQBEFkOwqNlXFyctLQ0KhcuTK3CYIgCIIgfuPr6/vx48cuXbpwOzVo4QKCIAiCIHIppqamZ86cuX//PrdTQ3Epo7JmzRoezAJevXp1+vTpa9eu3b1719XVtUCBAumvKSU3P378uHLlSuHChYsWLcqj/suHDx9QlLVq1VK8yCQJDAy0sLAoUaJEoUKFeNTfh6WlZVBQUPny5blNEARBEAJqampaWlqGhobcTo3c+wUTtMXMmTMXL15sZ2eHnOBEb968OWPGjC1btiQmJvKNMo+wsLBDhw5BLXE7BTY2NthA8UNDnC1ZsuT79+/M9PX1xW69vb2ZmUv48uULTtLNzY3bCrNs2bJ0JjgyMzOzsrLiBkEQBEH8platWpMnT+ZGlpElUiYpKcnY2NjJyQlS5vz585s3b96+fbuFhUXv3r0haE6fPs23y0ZatGixYMECVVVVbstLQEDAy5cvY2NjmVm+fHnstmLFiszMJYSHh+MkIe+4rTAvXrzw8vLiBkFIkJCQEB8fzw2CIIicQCEps3Llyp07d3JDghs3bnz48AFCrFevXuIHRxoaGvPnz69UqZK5uXmyti8kJCQwMBBtIrf/y8+fP4ODg0NDQ7mtpBQTEwNJIdYTyYiIiEiZamBg0LdvX2Xl/+RXJBJhz9++feO2BCzJz88vraMwihcvjt2WKFGC2wL4CU7gx48f3E5BVFRUOucvSWJiIkoGZ5JZ45kiIyOlPLQi4Pr6+/sHBQWhGHmUdLAri/Lh9n9hF0XWfRKZzvfv3//999+O7VtpF9PCfa2pqVmsSOG2rZqhx5Lq3UQQBJGlKDTsd8GCBdra2suXL+f2b6ZNm/b169fr16+nfAoCiePu7t6pU6eCBQvCfPz48dGjR7Exwvnz54f0gQBC4wjz1KlTVlZWS5cu3bNnD3tXUr9+/VWrVpmZmWHP0D3Yee/evefMmQOB4unpOWbMmClTptjZ2dnY2CBH6urqPXv2nD59Otsb9NPZs2evXr2qpqa2b98+JycnIyOj3bt344dIhcBas2YNe7gCT4mNz507x7QIpFjr1q2XLVtWoECBPn36QAQAnDx2e+3aNXt7e2R/w4YNODdsDL2FnSNT7E1WrVq1ZsyYUbt2bYThnocOHQrTw8Pj8uXLOH+cyYABAxCD1JQkJSWZmppeuXIFygxmyZIlx44dixyx1NmzZxctWnTdunXMBFu3bnV1dT127Bh2iBKOjo5GeaKIEIMsTJw4ceTIkTjbV69eIYM4dLdu3WbOnIlt8Nvjx4+jSAHbFUDJw1fht1ClyCbOAeWJLKO0Uw5EHzFiROXKldevX48wnBxK9cmTJ6wEUFDjxo1Dxn19fXFl+/XrN2nSJOFHv8DODx06tH//fpQ8Snvv3r0PHz7ED3FBO3fujGOxEUgLFy6EZMRvUc6oKii9ZNrx7wQ6e968ebiaUA9LlizBBUUkRCRuqDt37qC6QhQOGjQI5Z+JA7mw/82bNm7esrliSfXGFSP19ZR0Cv+KD4tU8ghSsvUs9MknDme1avUa6BvhFwRBEBmQw2Nl4L2gZrjxG3SsnZ2d69Wrl+rbHPj1vn37Mh3z4MGD1atXa2lpbdy4EQoAuuTSpUuIYdIqLi4uMDAQCqN79+4HDx4cP378+/fvp06d+unTJ7hwuL1mzZpBmjx9+lTY8S+gfuAI4dSxN3g++OB//vmHJUF/hIeHsz3jDL29vZGEMzlw4ICxsbG/v/+mTZvYljdv3jx8+HD79u0hobCfIUOGwDFD2SBpwoQJrVq1QmDYsGE4HwQgOLBb9jwJu507d+6zZ8+gG7DbFStWwD2jWWcjeOBysCVEw5cvX5BfnH/Lli3Pnz9vbW2N1JQgFydPnmzXrh0kBcLlypXbsmULlA1LhTCCWGFhBo7ORA/kERQhAig3yLXChQuzQ0MY4VfIJqQDPByyuXbtWuGnvHBYmAGPhb3hhyhk7ATaom7duggYGBjwLdIAauP169cQSSiBbdu2QSPicJBWZcqU0dfXv337NvbJN1VSunv3LiQadAyu9fz58yFDFy9ejGsNKYwyh2xlm+G0URMWLVoE9Za5jjnvAsmI64s6fPHiRdSNHj16XLhwAdcUN1GFChVwX6DGnjhxArcPanJmvWrEVWjVoompybZFfeKN+0Z2qqdUuaRS0YK//kHTdKijtKh35LKBCZfO7m1sWI91EgiC+Mt58+YNXB43sgyFpAx6fin7XvDfcFcZfqmEbeDkypcvv2vXLugDeEr4v7Fjx7548cLGxoZtA4c6ffr0gQMH1qpVC9IB7jAyMhJ+HSIAUgkqAdt4eHiwjUGpUqXgPps2bcr2BsHx+PFjJycnniwBThKyA3uGtIJLgPt3cXGBQ0XS8+fPq1atip03aNAA+8EJaGtr+/r6IgnyCDEIdO3aFTLo144kgHJC871s2bKRI0dit126dIEYgp6DMOJbCCUGRYIzxPmvXLlSTU3NwcGBp0ng5uYGr4/DwX/Xr18fegK5RiGYmJhAdvCN0qBjx45MbzVv3rx///5MNQIdHZ0dO3Ygsk6dOtAKY8aMQVFDPbDUtMDG2AkCKBME4CZZfKpAcyA7EH8oT5QAsjllyhTEs9Lr06fPt2/fxEcMDg7GxvDBCFtaWkLu4Np169YN2Rw6dCiK8e3bt+IJGG1tbXF0KEuoSfYk6S8HAhfKskqVKgizb8dmz56Nmgax27NnTxUVFcRAO6IYUXSow79+oxgQT+3atFCPcVk5MKZKKR6Zkoq6Ssv6x3wLcIeKDQoK4rEEQfytODs7P3r0iBtZRpYM+wVJSUk8lAaurq5wbOhEshdADGiLfPnyvXz5kttKSm3atOEhJaVixYqh7RZ7MvbdteTbMSgMiANuKCkxtZHqfMTq6urQQ9xQUipSpAj2w1TC5s2b2UsZiK2AgIAbN26gEZc8SlrgtEuUKNG2bVtuKykxE847JiaGxbRu3Zq5GYBThc4QJ0kCOYW/gwYNYibAr+DLo6Oj379/z6NkBNIKueaGICzwN3Mna0Z27t69y55XQRdCndy8eRNhVnooisKFC9+7d+/XpkpKqNzQeZ07d0b46dOnZcuWReDLb2DibMWiFhd99OjRLEygbI8fPw5Vx8yPHz/iLzoPFy5cECtXBlM50DeBgYEsRm7GjB5R8KfvpM7xqrz+pomKstKWMaLmNdSGDhnAowiC+FuBl4dX5UaWkflSBrJAWVnZz8+P2//Fzc3t1KlTSA0JCYFZpkwZFs/Ab9EWS44cFDt+Rvpv1JLtrXTp0viL3j8zJdHU1Ew2BFgMBI2pqemUKVPgZYcOHQo3IKkA0gGnjSMmO0OcElQdxBAzCxQowAJiUhVJbIwz8+5iWHYkC0cmkhVO8eLFISLl3ltaeHl5bd26dcSIESi9qVOnfv78mScI4767detmbW3Nnn49fPgQOlVLSwthVIavX7+OkwB6KD4+XlyLKlasKClS/3LevXtnaGjIVAuqK1OHRkZGKR+RsoqXkJCQ6sM/6bl69eqzJ48mdoxXlu6NNrYa1y7ByfHdyZMneRRBEH8l2tra6U8qkykoJGX8/f1T+kJ0oA0MDNB0pvoqBM3u0aNH0bYyfZDsmYRIJIKfk3xOIxNR//3yhZmyukBjY2Nzc/MuXbqg43v//n3IGggsnpYuOO1k41cAy6CUYkgM2z7laBj8TWtXkmNQUiVZ4eASgLQKJ8O9pQq6/pMnT3Z1dZ0+ffrly5etrKwWLlzI0wR69eqF03jx4gVqjpOTE3u7BKDwqlatiqJOxuzZs9kGcleJP5KmTZuiirLwgwcPWD1B14fFSCJ+u6qgENy6eUOPBnGFZBnIq6mu1NswdtsWPliNIAgi61BIyvzzzz/79u3jhgSdOnWCjjl16hS3fwM3dvfu3Zo1a1aoUAFyR0VF5dWrVzxNwNbWFv61Ro0a3JYR/JyHBNiwjOrVqzNTGkJCQrCTfv36DRw4ECcJB4DziYyM5MnpUqtWLXd3d8mHQD9//kQG9fT0dHR0eJR0oIjwV/JFG2Avg3AU/EXRsU+ExHz69ImH0iBl4UCvsGG82BtOVVK+SD5NkZ5nz55Bb0G+tGrVqkSJEsrKyuLHUQx9ff06depAzj58+BDFIpbqyK+fn1/ZsmUr/aZcuXJs7BHbgJAEBStWtJaWlvhbu3btVCc3srCwYAGUJwvIgYuLi529Y6tfVVI2mhsoff3qLX5LSBAEkUUoJGXQk4Zz4oYE/fv3hxw5e/bsiRMnxM9dAgICli5dCt/GBj0UKVKkc+fO8GqsLQbe3t47duxAPJQQi5GV+/fvQyqxcGBg4MGDB7G31q1bsxhpYO+zcCbMr0OQ/fvvv1Bg4qE/bINUPwnp27dvvnz51q1bx77ihtQ4dOgQNMGAATKPGIAU0NXV3b9/v1igWFtbX7lypVmzZuw9Ef66urqyj9hxqqamppJv9Ni7s2QniT2Iixp6CzsvVKhQu3btYGJv2Il4jQz4nmSz9yLX0gwYYoUj1h84JTbkWXLgVO/evSHvbt682b17d/E7vp49e6Kot27dyp7ksRyxFSHYBkSq4Iqwa5rqI5kPHz58+fIFgY4dOyqy5uuLFy+qlFItKPtzMXVVpaqlf+Ln3CYIgsgaFJIyc+bMGTt2LDckUFVVhVtq0KABpEy/fv3Gjx+PzYYNG+bk5IQuu3i8LftKCFsOHjwY20DiQDRs3LhRyhc6KWnfvj32NmTIkIkTJ44YMSI0NHTt2rUyfbtbtGhRCKxnz54NHDgQO4E6cXd3r1atGppj9pDJwMAADnjKlClwD+wnYiDslixZ4uzszH4LBWNubt6rV6+hQ4fyLaRGQ0Njy5YtOJCRkRErupUrV1apUkU8hQ/yCKmE1AkTJuBAEHCS+q9ChQqampooyTZt2vj7+7NIFA5kGYoa54YdQlmuWrWKDZ1GUtmyZf/5559x48ah3FasWIGrxn7FqF69+u3bt9u2bSsWQ6mC/RQvXnzTpk24lDht7KpevXqI37dvHxuayrbBufn4+EDKsBiArKFiPHr0CMfF6Q0aNAg6GLmjRdfT5927d+zrMPGEQ5KIJwoyNjZmAfmAJCpXXJ4XjqCcdryjoyM3CIL4+7h27ZrkJyxZRNaujI1G8Pnz5z9+/IC4gQiAL0wpLNAc29vbwzGXLl26Xbt24k8woCE8PDwkPfTbt2/z5csnfiuBvvvDhw/Z+whooJcvX9auXRvu39raOiwsDD4VakOsith3MR06dMAGUBtBQUGSnxp9/frVzc0NMWpqatgtpIyrqyu2rFWrVpMmTfBDeFkct2HDhtjY09MTMQhgbziQra0t4rW1tYU9/XpF9fjxY6goyJHmzZtD37B4ZBDxMCW/Z37y5EmJEiXSeqEWFxeHvHh5eamoqGCbpk2b4pR4mvCFM3YYHR1dsmRJyC9kITg4WCwTAwMDXVxcEhISWrVqhZOEnIJWaNGiBXaIM9TR0cHJFytWjG0MUID37t1DsRQuXJiVOS4KfstGkiIVZkxMDE6DjT6WBCWPq8Y+U8e1Rlnh6LjQ+Dkye//+fZRY//79xW/Z2LyFu3btYqYYnD9++/37dy0tLZwq+/oG2NjYoARY4ROSQKkDVCEIVsm6AXDpIRC9vb1RJSTnXpKDadOmBdibDmj6a7C2rFi+zadafhiEKbcJgvjLuHjxIloACBpup0b6H/RIQ9ZKGSI3AD/HpAz7ADtn8fHxGTFixMqVKyG/eBQhL5DXdnZ2Xbp0uXPnDo/6zYYNG1atWlWnTp0HDx5A1vNYuZg1a5anzdEhzeWRMtde5ytUdRR9x0QQfy0ikSg2Njbl17uSKC5lFHrBRBDS8/nz56dPn27btk1XV5eN0SEUAaKQDWx/9uxZsvHRFhYW69evzxQdAwwMDHx+zZwgD75hKjKNuycI4g9DWVk5fR2TKSgkZaytrenzhNyPioqKnp5eNlSm9HF0dFy+fLmXlxeb5pjHEvLCxi2hJA8dOjR16lSmZsLDwydMmDBmzJj58+c/evRIcR0Dfr1jDVBKzGDOy1QQ/VT6EqSGn3ObIAgia1DoBRMaUB0dHfE6RwSRDqhmMTEx6UxOSMhEz549b9++3blzZysrq0+fPm3cuBHFm5CQYGhoOH36dDagO7OoVqVip6pfm8v4eMXui9J5m+Jfvf3Zp20EQRCpksNjZe7du1ewYMEWLVpwmyCIbCEqKqp48eJxcXH79++fNm0aj80y9u3bt23DkjVDYjJctUCM6KfShsv5J0xbbrxsGY8iCOLvIyIiwt/fv1q1atxODRr2SxB/I9euXWPzFXl5eSky/Z2UJCUlGTaoW1rDbXgrad8zXX2d70NQecePLjRTM0H8zZw6ders2bPJ5ipLBg37JYi/kRs3buCvgYFBNugYoKKicunK9Vef81u+larFuW+vdN9R88q1G6RjCOIvR19fPxum0qCnMgSRx4iLi0PrEBAQMGPGjL179/LYrMfOzq57t06VS0SPbBVXmK9Pn5yoOKXzz9UdvDVuWN6mV88EQUgDvWAiiL8ICwuLCxcuQFI4OzvD1NPTa9u2rbq6OgSN3HNky4S/v//UKUYPHzxoXv1ns6oJFUr8Wp0AJCYpfQ1Wev1Z9bmLcrNmLY4cMxXPcEgQBJE+OSxlDh06hAZ0+PDh3CYIIiv59OnTly9fNAVw28YLoBVo3759dn4X9vLly0MHD9ywuB4eGVVM69fzme8RsQULaHbv3mPqtBmS82gTBEFkSA5LmRkzZujo6Kxbt47bBEH8TXz9+pUt8qWnp5fq0twEQRAZksNSBg2Zurp6yZIluU0QBEEQBPGbz58/29rapr+ssuJSRqGH0uXLlycdQxAEQRBEqjx9+tTExIQbWQZ9jE0QBEEQRJbQtm3bbJjGk75gIgiCIAgix8jhF0zx8fEJCQncIAiCIAiCyHYUkjLLly/fvn07NwiCIAiCILIdhaSMqgA3CIIgCIIgsh2FxsqwHyr+losgCIIgiD8Pa2vrmzdvbt26ldupkcNjZXB40jEEQRAEQaTK169f7e3tuZFl0MfYRHrs2rXLw8ODG8Rfw9q1a3/8+MGNdAkNDfX19eUGQRDEfxkwYMCBAwe4kWXQx9hZzvfv369fvz5s2DANDQ0elY0kJSWZmZl17dpVV1eXR0nw4cOHlStXQqz06dMn5QIUa9as6dSpU6tWrRC2sbE5cuRIdHS0srJyvnz5GjVqNGvWLMQvXLgwICBARUUFBypcuDB+oqenh/gdO3bgJ+rq6ghPnz69WbNmCBAy4e3tvWjRIldX1+rVq5ubm/PYbCEyMnL27Nk7d+4sWrQoj0qDffv2RUREGBsbc5sgCEJGFH+9o5CU+fTpE9wzLYGbPnPmzNm7dy+8wty5c3lUNnLixImJEyeOGTPG1NSUR/2XuLg46IzmzZsnE86XL19+8OCBZCTESqVKlRISEuBcoVp4rJLSxo0bV6xYAaGDA/Eoge3bt79//x7x+fP/WnGQkI/atWv369dvw4YN3M4unj17dvjw4dOnT3M7DWrUqBETE+Pp6cltgiAIGVFcyij0gmnXrl1wVNwg0mDGjBnz5s3LqfXD+/fvP3/+fJwAt1MAMVqiRAlu/CY+Pn79+vXJ3KeKikrJkiXZ0xceJVC6dGn8LVKkCDPFhISEnDx5knRMMo4ePeri4sKNjPj27Zuzs3P79u25nY20atUKGgWChtup8eHDh8+fPwcEBLx8+ZJHEQRBZDsKSZkmTZo0aNCAG0QaVKtWbceOHey1S/ZTtGjR7du316tXj9vScf78+Zo1a2pra3P7N8WLFw8NDU32GM/CwgJ/g4ODmcm4evVqnz59oH64TfwG0iQoKIgbGfHw4UN1dfWWLVtyO3sZMWJE+t8dHDt2jF1iBFgMQRCEJOj9RkZGciPLUEjKjBs3bsCAAdzIlcTGxkZFRbEwChR9XBbOInAsOzs7+CqEJd0VereAG78JCQkJCwtjYRsbG/yQhUUikXjEJTYIDw9nYcCygL/clgDyAsd1dHRMTEzkUb9JSEhIWZNwFOwK5cPt/3L69On+/ftzQwJIGRxdfNrg8uXLnTp1QkCybKOjox0cHJo3b87tbAF5jIiIYGGcJIqXhfM0Dx48QDFqamoiO/Hx8Tw2u+jZs+ejR4/SKknUtJMnT+KswLlz59KqSwRB/M3AR6BTxI0s40/+ggnedPv27ePHjz9//vytW7f2799vZWXVpUuXL1++8C0yFRzr1KlTysrKaPrnz58/ffp0RD59+rRVq1YFCxaUHKry+vXrPn36XLx4cd++faNGjVq+fLmqqmqHDh3gjKdMmVKsWLH69et7eXnt2bMHJ7xkyZJhw4bFxcXdvHkT29+5cwc7NDMz4/sSgCPBD5GvwMDAuXPnIqcs/uvXrziQhobGggULWAyAiNmyZcukSZPu3r2LE967d29K9WNra9ukSRNuSAApg79i1YITdnV1RZEiLOnwcAIs+9kDtNq6devMzc23bt26YsWK9+/f41rAy8ITpyr78hD3798vVarU2rVrURNGjhx55coVnpAtoOZUqVIF5cnt/4KqKClfrl69ykMEQRC/QU8sO4YZoDcP3/ZHAq8GJ71p0yZtbW14AhYJJ9euXTsWTsaECRMGSIGbmxv/gQSPHz+Gp+GGSBQQECA24U1xAvDuzAwODi5cuDB0CTPHjh3bvn17BCBEWAz0CrwXvDIzIWIgICAXPn78yGKOHj1apEgRFgYnTpxo1KgR3Dm3RaLu3btv2LCBGyIR9g/hwg2RCAJ5zJgx3BCJ/Pz8sP+pU6dyWzgTNTU1FB23JVi/fj3qzLNnz5iJkwwVQCR2yyKdnZ1xhizMgMNDx50bWQDK1tvbGwEUtYqKCsQrwjifQoUKhYWFCZtkPpBxPCQj8+bNQ23hRrq4u7ujYLE9Mz98+IAWAaWNMK5OTEwMi89SIKNxy3Djv0ApigfrIdC6dWueQBAEIQu/Pj5SjD/2qQzcJ/qUysrKtra2bdu27dy5M4tXV1e3trYWv3WSZMuWLXCKGaKvr89/IAF2iE4qEygwdXV1Bw8ezJLQyksu7wBRFRERUbNmTWY2bdr00aNH8LgVK1ZkMThtf3//IUOGMBOqQk9PD+qnRo0aLKZs2bI/fvxgL7AgdBYtWgTnLTkqBbpk3bp14jdc7Itoxt27d83MzBYvXsxtJaWSJUsmy9GnT5+gpVB03JZA8qmMk5NT6dKliwogg+JHNSdPnhw3bhwLA5QqNnjx4gW3ZWTJkiUbN27khvBICbWWGwIQMVAwZcqUQRjngDArum3btjk6OqYcjCwm5a6kJDo6GqoXOimrH/ncv39fS0sLBchMFDLkC5s6s1q1av/88w+Ll5XLly/3799fMu+s0qYKChbanRsSQFGhJot3ggAuMU0wQxBEjqCQlLlx4wbcMDdyGZqamsuWLUMb/fDhw65du/JYJSW0y2h2U106SkdHB6IhQ1IdyopDNG/evHfv3tra2lBO8KM9evTgaf/FwMAAf/38/JgJWQPdkOybIKifZJ+4V6hQgYd+w9Ykh7eD/06WClUUHx+f6suIs2fPQhuxc0gL/BbbcOO/SEqZ8+fPiz/LQq5ZJHOTkjIIWkQswuQAF0Vy9PHp06eTedZy5crNnDmThZ8/f44zZxPhoFRTFpok2JWrqys3ZKFAgQL79u3jRkZANbb5LxcuXJg9ezY3fgN1wn8gAaouksR1lZ0tyrZnz56DBg1ikXIAeYRqLH6ggqqYzgRWKE/IZW5IAEEsKZEBzFOnTnGDIAgiG1FIyty6devBgwfcyH2gsbazs0P3sWPHjjxKSendu3dNmjTRyOzZ6uBgLCwsbt++PXfuXOgSY2PjYcOG8bT/YmhoCD+0Y8cOeAgPD48zZ86YmJikKq2kQXJQcDJSTYJygnNK/8OitLwXEEuZixcvIhdid4h4REZGRjo7Ozdu3JhFZgqQAlOnTuWGklL6zvLevXvNmjUrWLAgt9Mle/zu1q1bn/yXIUOG/Pvvv9z4DdQJ/4EEjx8/hpThhlB1UW8VH0zduXPnQ4cOcUNJKa0JhxiJiYmp6trDhw9D8kLV4ZQAAtgSNZknEwRBZCMKSZlx48aJ34PkTu7fv4+ueeXKlZn5+fPnFy9eTJs2jZnJGDBggNBDzoBUu/LXrl17+/Zt165d16xZY2lpaWNjA1mT1vjiatWqrVixYu/evVZWVnfu3EnVjUkJhBH0BButIoY9IElVUjRq1Cg6OlryE6SUVKpUCdtw47/o6OjgLxSYl5dXnTp1WCRgUubgwYMZjvaFljpy5Ah83oEDB86dO8djhRHEmzdvhovdtm3b2bNnFy1aBF3i6OgIHYN4bODv7z958mR4dzjRf/75h30mlgyUZ4cOHVgYauzhw4csfEXg/Pnz69evf/78eUBAANsVTkNyV9evXz969Oi+ffs2btwo+cWZm5vbqlWroD/AjRs3eOxv8JOVK1fu3r2b25lHUFBQ06ZNWfjnz59QvZCPTE0mAyWJvLCTF3/GBVDUuCjI9aVLl3CGCODKzp8/f9SoUWyDDRs2bNmy5e7duygH9ExYpCR+fn4p36iibI2MjKDS8PNWrVqhErL9zJkzR/LoBEEQcA1v3rzhRtaBJlL054IOaPfu3bkhEk2ZMqV3796SI2QzC7gZeAhuCKB9hxtgYV1d3f2/h/3CRzZr1iydMZtwP1An3BCoVauW5M6hfnDh2EBXAPfWq1cvFmZAq8EFckMkgsASD/sNDAwsUqQIPB8zAdxSxYoVJYf9JgmT4EGscFsC9l4M6vDHjx88SoB9uY3+Pbf/S4MGDdhAV+gV5B1akMVDuMydOxcBHBHC6P379wjDGQ8bNgzn6evry7aRzF3BggWhPLghAEWIq4zAx48fcQ7wxyweJ8MGSj948AB+mkVCrEDTsHChQoWcnJxYGCBrqqqqX79+RRguf+zYsSzewcGhSpUqrLSvXr0KWYwAMoJjoSLhOkLQHzt2LNVR0qki/bBfaEoobxaGFilfvry4Ri1evBhqmIVnzpwJHcPCKJzmzZtDryCMA0EXIuDi4lK2bFmIjA8fPsCEwtbQ0Pi1tQCuHSQaN1KA6yUeop4qS5Yskaw8BEEQkhw/fhw9TG6kAXSIgij0VCaXAyf97NmzqKgoe3t7ZHXt2rXBwcHm5ubpv16RGzMzM+wcB0IYvq1t27YlS5b09PSEyoHjh0NlM6LCi8C1a2trCwNv9KpVq9alSxfxy45Hjx5BqWAn2IObmxtc14ULF/AXLg3xyBF2cu3aNWyJwzk6OiJw8uRJ/F2zZg1yCoe6c+dOeCxLS0tEhoSEwHnDk719+5YJoBIlSlhZWcG1W1tbw8SeUSxQTnCuFhYW7GEMzLp16967dw/hZLBHAhs3bkw2uAfx8KCjR4/mdhogm1paWlWrVmXmhAkT4EQ9PDxiY2NxzuXKlUNkjRo1EMZ5lipVCiYEh7Btmly8eBFKEXlHiUF/QJ0gEppDU1OTjdFBUW/ZsmXEiBG7d++GGhAPAE8GLhZ8fP78+VF0UCooMRa/adOmPn36sGHFffv2xbmxeIALxD4WGz9+fKqjpBVk4cKFqDwI3L59e9euXZAUOEmWJObTp0/QMShJZhoYGKCCsV8hC6xIIcWCgoLCw8PZYPMMi1RMfHw8ypOmwSQIQm5q167NJuzIUv5kKfP8+XP4yPPnz8NFoe/esWNHdG0LFCjAkzOVOnXqQG1Ur1790KFDcM8QKNu3b0c8Ou46Ojo3btyYPHkyHANioCTQxb979y60BcD2ODFjY+P9wmQwOGE240vp0qXxW0gTOB5kAYIDYUgcbACHig1wRCgb/ATeFyqkd+/eOO7WrVsbN24MmcLeBCUlJamqqh45cmTz5s1smDBo0qTJq1evvLy89u3bhy1Xr16No0+ZMoU9aGHbDBkyJNVRUNjbggULUi7C0LJlywMHDoiHzqSFu7u75KgghJEjJiCMjIzWr1+PE4MblmZQrY+PDwtAq+HoZ8+eRUYg/6EO2Vdm4lefkGXQf7giT548wZZsbmJJcDnwNyIiYtq0aVAMuIjt2rVjkhRAjEJ+sTCAUGABZBa6s2jRovgJi8l0pk6d2q9fP1zW79+/Q2vWqlWLJ0iA0sOpSgopdXV19hX3xIkTT5w4gbxDekKQMWmYDqwcJEEdaNSoUUr9RBAEISVoQyS/mc0q0A6yJzx/HsuWLYO/50auAX7R39+fG79Bt9vQ0JAbuQD04OHR8ZfbiiF+wfTw4cNKlSqJ38U4OzsXL14cGgJh1PXAwEA7O7tkM8FA2Ui+YELpsbdCcM8sJkNOnz4NEcPCtra2gwYNYmHsir2BYq+f5s2bN16YkAZcvXq1Zs2avr6+8OUbNmxgL7AYyEJ0dHRkZCR7R4OTb9iw4cGDB1mqNEBuIpvckBfxCyYIUG1tbfE7OwjWihUrsvyuWbMmICDg/fv3kH0slREUFCT5gmngwIF79uxBQPwaTszo0aPTf7sE6AUTQRAKAh2iIAo9ldmyZYtJLv5mAX6IfZebqzAwMBCvUSAG/iZXPcYvVKjQ/Pnz0ZXntgJYWVlBut25cwcetF27dtOnT1+wYAHkyPPnz+GMIRrYB0dxcXE9e/acPXt2nz59Jk6cyIaJeXl5WVtbf/nyBRJE2NmvVzznz5+/ceMGlD6LyRDU8qVLl6KEIZXg4+F3WTzblaWlJRsfDUVib2/v4uLi4ODg4eERFRV17ty5okWLLly4UE9PD+f86dMnHBeiQVlZGUkQDebm5gUKFEBBzZo1a/v27ckGX6cFdijrkljJcHR0fPfu3du3byHFChcujDJcvnw5yhOlipOZM2cOq/YQxy1btsS5DR8+vH///myQNXTYhQsXoCav/P5WH0oRShrlk+zFE8o8ODi4e/fu3CYIgsit5GOKhlsyAsejo6OzevVqbuca4I127dp1+fLlunXrdurUCd1TnpALQEd51apVxYoVw4kVKVLk27dv8KalSpWCs8yil1/ygVoB2QFHKJ7NTz4gC9goZl1dXeYsf/z48fLlSyiYFi1asHFL9+/fh6qAj1dTU4uNjYWrXrly5dOnTzU0NEJCQrANAuL3I5Aj2A+UBzMzBEIKpQ3fHyHMTMiGjzCS7Qpiy8bGpmTJkhABUFGQLOKNIaecnZ2rVq1arVq1pKQkZAqnGh8fjxgoJOgebIMzzI75uYUqFBMTg1JFhUGpIgbS5MWLF5ApKFL2OszPz2/GjBmQONra2ij8z58/Q2xBxkHAeXp6qqurIxeVKlUS9vdrtkNfX9+OHTuKX1Qha0ZGRps3b2bLnqeDsbExLmg6M9MQBEGkT4aDEzJEISkDN6OqqprOhKq5AeRO8WLKdNCnR5cavgelV7lyZU1NTZ6Qm4ALhAqcNGmSpPvPCjZs2ACPK/6QG34UHnfPnj3QDSyGkJVXr15BzZuZmYkHua9bt05PT2/KlCnMTJ8VK1ZMmzaNDXZOH5IyBEGkA7qmz549S2sOFEYOSxnibwA9fsmxulkBDnH8+HE/P79SpUqhNnp4ePTp06dly5Y8mZCL+/fvW1lZValSBWFfX18ERo8eLWWTIf1FJylDEEQ6mJqanjlzBs0Rt1ODpAxBEDkJSRmCINIBfVRnZ2fJOfdToriU+ZM/xiYIgiAIIgcpXbp0+jomU1BIyqA3xqY9JQiCIAiCyBEUkjKrV6/euXMnNwiCIAiCILIdhaRMcQFuEARBEARBZDsKSZkVK1ZkuBIyQRAEQRB/J3fu3DEyMuJGlkHDfgmCIAiCyBLCwsL8/f25kWWQlCEIgiAIIksYOHDgiRMnuJFlkJQhCIIgCCJLUFdXZ+urZCkKSRk7OztnZ2duEARBEARBZDsKSRkTE5OzZ89ygyCIv49+/foNHTqUGwRBEDmBQgsXXLlypVChQl26dOE2QRAEQRDEb+Li4kJDQ0uVKsXt1KA1mAiCIAiCyKWYmZmdOXPm1q1b3E4NWoOJIAiCIIhcSokSJcqXL8+NLIOeyhAEQRAEkWPQUxmCIAiCIP5qFJIyZ8+etbCw4AZBEARBEES2o5CUefbs2Zs3b7hBEARBEASR7Sg0VsbZ2VlDQ6NSpUrcJgiCIAiC+I2Pj8/Hjx+7du3K7dSgj7GJzMHDwyMiIoKFUatq1KihqqrKzC9fvkRGRrIwkmrVqqWszB/mubu7R0VFsTAia9asKU769OlTTEwMC6uoqCBJXFnd3NxiY2NZGEdBEgsDFxeX+Ph4Fk6WBN2ckJDAwurq6tWrV2dh4OTklJiYyMLQ1gYGBiyMio2kpKQkZmpqalarVo2FkYS7SyQSMbNAgQJVqlRhYUTiV+KkggULVq5cmYWxKySJ75fChQvr6+uzME4AZyhO0tLSqlixIgvjtJEvcVLRokXF4/nj4uJcXV1ZGBQrVqxcuXIsjCJCQbEw0NbWLlu2LAujYFG8LAyKFy9eunRpFsblwEVhYVCiRAnxdA64iLiULAz0BFg4PDzc09OThUHJkiXFE43/+PHDy8uLhQEOhMOxcFhYmLe3NwuDMmXK6OjosHBoaCjaLxYGOHOcPwuHhIT4+vqyMEBRoEBYODg4WHLZuQoVKhQpUoSFg4KCAgICWBig2FH4LIx4pLIwQM+qUKFCLIy9YZ8sDHCJcaFZGOeAM2FhULVq1fz587Mwzhznz8IAdQY1h4WRX+SahVGfUdNQFZmJUkJZsTCSUD/V1NSYibJFCbNw+jcXKjxuFmZKeXMhErdkqjcXdoUkFgaoaahvLJzs5kISCg0XV7wfgsgsTE1Nz5w5c//+fW6nRiZUPLSwaLWJvw208uvWrTM0NJw0aRKaRXgUeF8G/Me1a9fYZmiC4Yd4gpB0+/ZtlgRPADfJE7S04JAePHjAkrBzuEmeoKUFD/3s2TOW9PXrV7hJnqClBQ9nY2PDktBAw03yBC0t+EV7e3uWBNkBkydoaWEziAOWZGdnh53wBC0tOG+4B5b06tUrHJonaGnhuPBSLMna2honzBO0tOC84Q5Z0r179yST0L7De7EkS0tLlABP0NKC7IAfYkmXLl2STIIbhttgSWfPnpVMgq9l8eD48eOSSXByPEEkOnjwII8VqF+/Pk8QiXbt2sVjBZo1a8YTRKLNmzfzWIG2bdvyBJFozZo1PFYAnSSeIBItW7aMxwr06dOHJ4hE8+fP57ECQ4YM4Qki0YwZM3iswJgxY3iCSDRx4kQeK2BkZMQTRKJRo0bxWIGZM2fyBJFo0KBBPFZgwYIFPEEk6t27N48VWL58OU8QiTp37sxjBdauXcsTRKLWrVvzWIEtW7bwBJGoSZMmPFZg9+7dPEEkqlevHo8VOHToEE8QiaBdeKxwL6CNZvHQuFBXPEFIMjc3Z0kQFsluritXrrAkdB6S3Vw3b95kSdBSqHg8Qbi54AlYUmBgIKorTxBurqdPn7IkKC3JmwtJb968YUkQRrg1eIJw371//54lQYLDhC/BCXTp0sXMzIzFE0Sm4OjoePjwYW6kAXSIgtBTmb8OuFhjY2N4yjZt2owePRqNl7gLThDE30l8fPyHDx8ePnwIOWVhYSF+6EUQ2YDiT2VIyvx1PHv2bMOGDTt27JB8+EwQBEEQOUIOS5kVK1Zoa2vPnz+f2wRBEMQfgY+Pz6ZNm9DnEQ8VIogsQnEpo9DH2DEC3CAIgiD+FHR0dN6/fz916lRuE0QuRqGnMtAxysrKGhoa3CZyMTNnzixXrtySJUu4TRAEkS4+Pj5169Y1NTXt06cPjyIIGXnz5s29e/eWL1/O7dTI4acy+fPnJx2TJ3B2dj527Njw4cO5TRAEkRFly5bdtGnT0qVL5e7uEgS8z+PHj7mRZdCw37+CmTNnhoeHnzp1itsEQRBSEBcXV61atUePHtFUqIR8hIaGenp6NmzYkNupQV8wEVKhp6d34cKFtm3bcpsgCEI6EhMTxXP6EURWkMNSxt/fH1W8RIkS3M6VBAQE7NixIzAwUEdHZ9q0aWy+1+fPn5uamsbHxzdv3nzs2LHiiT7/SL59+1axYkX8pS8RCMLPz+/Dhw9xcXFou6pXry6erzmriY6Otre3x22IVrt06dK1a9cWzxScpYhEIjc3N3d3dwQKFSpUt25d8aTMBJFLyGEpM3PmTNwVa9eu5Xbuw9zc/OLFi9u2batcufLZs2eNjIxu377t4eGBNmXz5s2enp6dOnVq0aLFhQsX+A/+UIKCgmgePOJvBl2aw4cPHzt61NfPr6SerqaGRkJion9AYNGiRceMGTN9+nTx8hSZS2Ji4qVLlw7s3//i5cvChQtpC6s0BAV/i09I6NKlC47bvXt3tmWmY2dnt3//fjRu0G2lSuqpKCtHRUfj0NUNDCZPmTJhwgQtLS2+KUHkKDksZfbu3VukSBE0BNzOZUCv7Nu3z8TERFxM5cqVU1ZWrlixorW1NUxDQ0Pc7QYGBs7OzmwDgvHw4cOzp0+9ef3M5ZNnUpJIU0O9ds2qLVt3GD9hInp1fKMswMvL6/jxY48f3Hnv4BQRGY0Lp1++dKPGTQYNGd6vX7+se8odGxt7/vz561cv2r619fYLRIx2Ua369Wp36toLLX6WqsAXL16cPnXy1XNrJ7cvCQmJ6mpqNatXat6y3Zix45o2bco3ygL8/f2PHz/+8N6t9w4fwr7/Wn6rfFk9Q8PG/QcOGTx4cNYN509ISLhy5crli+ds39p4fPVDjFbhgvXr1mzfqfvEiUbidaYyF3j0pUuXVK5YvplhXYMqFTV+Pw6Bmvni6f3qnaPDR9dFixauWrU6c+sYmpcxY0aHBAc3b1SvYb2axYpw6YAWN+hbyNv3H1/Z2tepW8/U1FS8YlemEBERMW/uXDNz88YNajdtWKd8mVLi9Zuio2McXT69fOvwIyLy4MFDAwYMYPHpkJSUhI5f+l+gEEQ6QGOkL1ZyWMrkZmJiYnr37o1GU7LngR5YeHj4vXv3OnbsCHP+/PlWVlZo5tq1a8c2yCnQ9Bw9evT79++hoaFoNQoWLMgTsp3nz59Pn2rk5+s7uqt+23rFa+sXU1PNFxWbaP85zOpt8IUH7q1atth/0ES8+GJm8e3bt0UL5pmfO9+1WYV+LfUaVtMpVlhd9FPJzTv85cdvJ628EkSqO3fvhZflP8gkUPnRWV+53Fi3mMaYzuWa1NSpVLow7qqgsFhb15CLTwKe2/tOmzZ13fp/xIsUZhbv37+fNmWis7PLyC6VOjQoUbdyMQ015dj4JAf3sAfvvpndc69bt87Bw8dq167Nf5BJ4BZYbrz0yNGjbRuWG9SmJIq6RFENNAHuvhGvnb6dvOsdFpG4cfPWiRMn8h9kHmZmZosWzNVU+zmua4VmNXWqltNSzqcUGhH/zjXk6vPAe6+9Ro8auXX7zmLFivEfKAzc8NixY6zu3BkxoIdBlTTfJfn4BZy9fCs8Murz58+Z9f7l8uXL0DEdWjXt0q6FeJHIZMTGxV2//ejpq7dnzpwZMWIEj1UMPz+/Tp065hMlDevfTacYX6ozJTZ2Hy7esGrevAXaQx6VBgEBAaVLl0aLSt+rEnJw9erVs2fPXrp0idupQVImTe7evfvy5cvVq1dzW1h3V09PDw4JckHuvhdaRvRvFC/3ZERFRUF1bdiw4dOnT3Dq2r+XEc4U4LqcnJyaNWvG7bTZtOmfjf9sWDmm9twhNTTUUml8wyLiVxx1OGX15fiJk4MGDeKxCmNjY9OvT89G1bT+nd2gYslUFINI9NPsvsf8/XY9evY9cuxEZnWdIyMjRwwb7GD3et+chr1b8iWpk/HR4/u0XbaBEarXLG5JLsetINBPC+bPnTekuvGo2gU1U8lORHTChlMf9l1x3fPvvkxUFc7Ozn16dS+vo3RgbsPqFfi608m4+uTr7H/tDJu0OGt+QbyUtILEx8cbTRh7z+rWrpkNhnXUT/UG+uIXMXPPO0fPmKvXLQ0NDXmsYhgZTbxrdWfG+GGFC2XQPYiPT5i/akutWrUgMdNSHtLz4MGD3r17jR3St05Nvhh7Ohw5fcn+owtuUsUrGDpFTZo01tYqOLx/DzRUPDYNIOA2/3sUfafFixfzqNQgKUMowsWLFyFlrl27xu3UICmTJiKRCH/Fj1UBOkno0/fs2fPGjRs8SnYWLFiAnUgjC+Rg6dKlW7duzXQpAzm8c+fOFy9ecDsN1q5ZbXJwz60tbetXzeDo155+7b/skbm5+dChQ3mUArx7965D+7YrR9dYODyDNaF8g6PLDriI9jQ6+te7Jx4rL3CuXTq1V4nxuby+VbHC6Q3AhJDqY/zo5gtvd3f3TBklum/f3tUrjK9vbNO6nh6PSoOH7/w7zrmLWrFw4UIepQAQyq1aNDPqUf6fSfXTL7+QH3HFe51DIC4uTk1NjUXKDW7Ggf37+Hx+Z7m5TUntDIbYz/3XZs9FJ3t7+zp16vAoeUEbOnmS0cIZ48VvdtInNi5u56HTM2fNWrrUmEfJRVhYmIFBtS5tm7Vo3IBHZcT1Ow/9gn/Y2dkpKNMnjB//5tXzqWOHZqhjGF99/PccOfP06dNGjRrxqBSQlCEUAbc/mpH0v61RvD1XaIq83AxEjKSOAew5aocOHZgpHw4ODjyUBWT6wx4GahLgRhpYWlru2rn93o72GeoY0K91+WubOkwymgDXyKPkBZ3IAf16LxlukKGOAWVKFAi2HFamRMGtW7fwKAVYuGBedKgHnGv6OgbAK1hu6TB9QE3448TERB4rL9CUS5csvrmlXYY6BnRoWOrx3m5rVq98+/Ytj5IXSDcU9ahOZTZOzkDHAJ0iGhF3R9arprd8mUJOnbFhw3pnh9eoXRnqGLB7duPVE+r379srKiqKR8kF8jtr1sx+3TtIqWOApobGsH7d1q1bD+fNo+RizerVpXSLS69jQK/Obb+HhR4+fJjbcmFjY3Pu/Plh/bpLqWNA+bKlOrZuOn36NG4TRGYDR5wN3wgrJGWsra1x83Aj12NlZYW/bJSMfEAMPXjwgBt/ENHR0dOnTto1s0Et/TTfrCejb6tyY7tVmj7ViNvysmrF8sol1ZaNlrb/XbyIxpnlzdavW+vh4cGj5OLNmzfHjx8/t6pFgdRe7qTK7lmGCVHBu3bt5LZcJCUlTTYat2ps7ea1pZ3CoG19vcXDa+JXCj49hf5TE4VvnZbeRFWSFMqvar6q+f79++zs7HiUXLi5uW3ZvMlsZfMMJaOY1ePqlSryc93a/78dloPLly+rKCs3qi/bo51KFcpW0a9w7NgxbssOFNgJ0xNd2jXntnSoqKh0aNn433//5bZc7Nu3t2nDutrFUn9vmBYdWjf98OGjra0tt1NQuHDhhg0bKv5wjiCyDoWkjLm5efovwHIPrq6uXl5eJUqUSPbUOpkUQ2/s0KFDawXQnN26devdu3eIDw0NPXnyJPtW6/nz55YCTk5Owo84fn5+//zzz6JFi+bNm4dmNCaNhTaDgoJ27do1WwCH8PHx4Qkp+PLly7Nnz16/fv3q1avPnz/z2CwA17FYQaUJPatyWzr+mVT31es3ivi579+/Hzl6ZOf0etyWDoiA3i3L79urUKO/Y9uWaX2rVS5TmNtSoKaqvGVKnT27dijyYObmzZvhYd8WDMv4EZQkxqNq+/v6ZDg8Mx3i4+P/3b1r65Q6qioyPPmrUaHIxJ5Vd+3czm252LN71+D2+oYGMoylzZdPacf0ergTIyMjeZTsnD1zpnH9WnI86GzSoNaZM6e5ITu4xMWKFtUvL/OnWA3r1fT19Xn//j23ZQTV8uLFS80MZf7AUFNDw7BeLXNzM26noGDBgm/fvk32kJsgchUK1c5Bgwb16tWLG7mM2NhYyY67+JGM5EuciIiIuXPnckNJ6eXLlyNGjOjUqdNqAQMDg5EjR7LvtD09PeF3mzRpgjAki7tASEiI8Ltf3L17FyKpTZs227Ztw2+vX79eo0aNlK3SqlWrDA0NtbW1sc26deuwk7p16yaTRGIcHByww3bt2kFF4aA8VnYKCXAjNU4cM5naW+YhIEUKqg/rVPn4saPclh1IqLpVdaV5pZWMqX0qnTxpmpSUxG0ZgTC9bnFjal/ZpBvo3rSMmnLS7du3uS07J44dMeqpL5OeAOpqyuN76B8/doTbsmNhYVG0kGqnRqW5LTVT+1a5dOlyeHg4t2UEEurs2TPT+so8ZUvTmsUrly2qyIRP6KVUqiDPp9341adPn6Kjo7ktIzhu+dIZvzpMiZqqavkypeV+kyg0Iz/LynXoCmVLvsxoLB1ByAf8rIuLCzeyDIWkDLx+8+ayPUfNHn78+NGyZcvKlSufOHGCxVy+fBl/a9asyUzG1q1boS24oaS0cePG7t27iz8zbtWq1bx581i4YcOGc+bMYZkdPHgwwqB169YsFdy5cycsLAyKB+GiRYviuOjETJ8+naUy1q5du2HDhosXL44dO1ZHRwebJSQkQCF5e3vzLSSAn7a2th44cCC01MGDB6FpeILsdOvW7erVq9xIAZyNzdt3XZvI7ORA10Ylnj99yA3ZefH0UVdDeQY4t66nFxsTI/dsQG/evClXUqtKWRkeyTCUlfN1alj8xbMn3Jad58+fdW1Sihuy0LVxyeeKHPepdRfDEnI8oqilX1SnSH72bFIOHB0dlZVEzWrJMyF4V0Md1BBuyAiESPC3byV1i3NbFooW0dLU1EQ3g9sy8vnzZz1dOT/nLqVXQu7nr/hhmVKl5Btvh4L64vGr7SKITAfeZ/bs2dzIMv7MZ4bwVXZ2dhATpUv/8tDo2+nq6qqqqkJtsA3AtWvXIBe6du3KbeE56vr16xctWvT06VO25YQJE6QcJgyZcunSpZEjRzJTRUWlTp06km+vsMPt27cbGhpKfv0E8eTq6ip5DgwfH5/evXvXq1cPukfxubNQDoULp+m2oZc1NdQqlZbZr4P6VbU/uvyaEJ3bMuL44UO9KvJIGRXlfHWqlYSb5LaM4If1qsq52kb9KsUcHOy5ISP+/v7fQn/Il2UUta9/cGhoKLdlxNHRoX5VaQdCJaOBga7co91R1HWryfOcADSoqo0awg0ZYU/slOXy60BZWUXuZ374oXI+OdtVZRVlRY4r9zfkaCLSOW5iYqJkl48gZKJSpUrpfB+XWfyZUqZFixYNGzYcMGAAXDgExK1bt8zNzc+ePXvs2LGTJ08+evRoypQpb9++hf7gPxDYsmULCn3Hjh1t27bV0dGpXbv25cuXS5YsyZPTBQfq2LEjdj527NihQ4cuXLgQEkGydbh//35UVBR7RSVGTU2tatXkrzmuX7/eunXrx48fGxgY8KisJCYmpkB+Dfna/EL51RIS0NDJOXYkJia2UH45Pz0tlF9d7lcAyDLOnBsyUqiAKk6bGzKC4yor58uvIY+/YSec1gCsDBGKWu4sy1/U+GGhAnJ+wYuijo6WM78aGhpwzzFxcdyWBUjzuNjY9N/JpgN6RLFyHRfExsYpctzoGDkvE45boECa35h8+/Ztw4YNcfJmivjLadWqFTrt3Mgy/kwpg7vaxsZm4sSJHz9+bN68uampqaqq6uDBg93c3NDAff36dfHixbg5k43Jr1Chgp2d3cuXL7du3Tpu3Ljg4OB58+atW7eOJ6dAcozLtWvXypUrZ21tvWnTpvPnz0M/1ahRg6cJSO/vcc7v3r3Dz/v16/flyxceqwDfv39/+vQpN1KAkklIlLMjmJAoypcvH4qU2zKCTiT2wA0ZwTnLPQOHkGW5jytS5Lg/fyolieT5EImdsAKHzsGilr92yX1cdXX1ypUr+QprUMiKf+A3NXU19Gq4LSN169b1Dwzmhox4+wbIPZsOjuvnFxAfn8BtWfDxC6yr8Cw+BJGDKCRlDh48aGaW5rj3nAUutmvXrpMmTWrZsiWPUlLS1dUdPXr02LFjU106btiwYbGxsU2bNl24cOHx48e9vb3xc+SRJ6eY90U8kubz589jxoxp06YNNBN7pQXEn85CVEFCtW3bFs2r5CsnBrqAbISNGAipYsWKWVhYYPtevXpJvhSTj3v37qUzm2e1atXCfkQFhsrT/f3o8b1yxTJy+xuDalWcPH9wQ0Y+ugfJPTWqgYGBk8f/h2zLBLJsYJDx/K2pUrZs2QL5NZzlyjKOW1SrkJ6enC9rcM7YAzdk5IP7N0WKGleKGzLy4cv36gYyD80W06FDR+fP8oz/cHJzR/9HboGOO93N3StB9keVoWE//AODWrRowW0ZQe0CH13lGWrj5vG1fQf5Z6kgiBxHISnz4cOHbBiZnG14eXmdPv3/jzChJCBuJJcSLFLk14QN379zlyBu7N6/fx8ZGSmpmRISElA4LPzq1StIGUgc9lbryZP/DN68IsANCcqUKQM14+PjM2DAgPj4eB4rF8J8zmk+CShcuLBBVf0n9vL0X586BDduImfLCxo3a/3EUR7/6uT5PSIqXu6FLRs1auT05VtouDwPzJ9++NGoiZxD3VFhGjaoJ29RBzZqJP9c/o2atMCZc0MWoHE/e4fK/aq7QYMGQaFR7r6/lquUlacfvhs2+f89JSvoh9jYOcr6NlAk+vnK1mHy5Cnclh1okZKlStraf+S21Dx/Y9elS2cp32inyuQpU17ayjyqKSDo2+cvnujjcZsg8iAKSZmlS5fOmDGDG38EK1euPHv2LHsZ5OnpiQz+888/LAkMHToUyubgwYNRUVGHDh1q1aoVi+/SpUuNGjUOHz785s0bmH5+fkuWLIFwQRibQbvUr18f4V27ds2cObNv376mpqaQPtjJzp07LS0t582bFxMTgwBbrxs/YTKoYsWK6NQiskePHhcvXkRMFjFi1Lijt7y4ITWJST9N73iOHC3/uujDhw+3euXp903mF/xHLN0HDOgn9wySFSpUaNqkkeltmT9ReecW4uoV2r9/f27LjnxFDY7c9Bo5ehw3ZGfgwIF2roFyPJg5dvNzuzat5PavWlpavXp0P2op86MCr4DIx7beqCHclp2GDRs2a9bsxr1f95T0PHr+ulBhrX79+nFbLpYtW377wTOZRsx8Cw2zfvnW2HgZt+Vi8uTJPn6BDk5u3JaOq7ceTBg/oXjxNL/2wkWEPqMp8gj5+PTpk7m5OTeyjD92DSY52Lt3L7omd+/ehSKJi4vT09MbMmRItWr/eZsQFha2e/duLy+v5s2bo+EQv3JKSEiwsLC4f/++hoZGiRIlZs2ahfv/woULrq6uw4YNkxzb+/nzZ6glDw+PggULQtZABiEyPDz83Llzmpqa2CGEFERM+/btIYlu3LjBIqOjo6dOncr2ICs4DWimV69ecTsFAQEBVatUur1Vqqn0xey77LLHIsDFzV3uR/GgX58epVS/HlrQmNtS4B0UVWuM5W2r+3I/igeQhvNmTXY+1VOroAwNdK+lT8rX7rT/oPyzy0PCVqxQ9tgiw36ty/MoKTj3wGPOvg+eX31QGXiU7BhNGPfd8/nl9Vx/S0NoeFyNMTdNjp3u06cPj5KdR48eDejXy/l071I6MkjP8ZtfRWpUv3ApzUkEpMHd3b1B/fpD+3VrUOc/A9fSwuOrz4Hj56zu3hX3UuSmU8eO30OCxg/vl+ytdKrEJyTsO2bepVuPAwcO8Ch5OXXq1OzZsxZMHaujLdUHa3cfv3hr7/zRyYk9ciaITOfEiRNnzpxJf6J8aW6T9CEp8+dz584dSBlING6nxrZt247s32pzuEvRQlLNLu/s9aPplDuXrlzv3Lkzj5KLL1++1Ktb++LaVt2bleFR6ZIk+tl14eMy1VuZnjzDo+Slc8d2pdQDTq+Q9m3RMctPxkednVzcdHTknDWEYWpqumzx3HdHu0np2iHdDCfd2b33sCKPKEBQUFDNGtX2zKw3qou0A1qHrH4WpV7J8tav6SUVYfjQweG+by03tZVybaDrz7xH//PK8YNT+fIyCL5UsbS0HDpkyND+3RvVy2CGZTd3z+NmVzdt3jRjxkwepQAhISHNmjXTKVJw+IAeaukOJouKjjlufrW4bim09erq0q7tkA5z5sw5Z242efSgUnoZzDhwz/rFw6dvHltbN2ggw3JRBCETaOTt7OwGDhzI7dQgKUNkDK5vXFxc+h16kUjUr0/PMN8PN7e0KVIwg/bU3Tei4/yHI8ZM/mfjZh6lAGfPnp0xbbLl5rYZPhNKSBRN2Pza7uvPF6/epjNTjpT4+/s3adRgRHu9LVMbZngfXX3yddSGF9ctLBVZw0vMuDGj3r++f3d7O72Mllf0+xbdecHjVh16HzKRf1ZlMbdv3x4yeMC51a16tchgGlyR6Oe8fbbXX4W9tnknOVxMPr5//968qWFLAw2TRU1UMlIzD9/591v25NiJU4MGDeJRioFcDxs6tHaNqr26tC1SOJVPnWNiYu9av3j66t3evXsnTpzIYxUmICCgT5/e/n5+g3p1qlqpAo+VADfm+w8uV28/bNmipZm5ecGCBXmCwqxYsQK9l+4dWrVp3khNLRUhFRgccvXWg5Cw8BuWlg0bSrssF0FkETksZeLj43EG9A71zyAmJmbIoP5uH21PLG3Ssk6a3uvcA48Zu2zHTTDavmMXj1IYExOT+fPmrBlfZ/7Qmmm5Ojfv8IlbbSKSCt+6c79UKXkmzE2Jq6tr966dapdXP7ygUeniBXjsf4mNT1pr6rjvitup02cVHEIhJjExcfzY0dYP7xxd3CSdeZZvvvSZtM2mW4++JkePyz37WTIuXrw4YfzY+UOqLx9TW0Mt9X16B0XhuO5BP29bPUj1Wz858PHx6d61Y/H8sccWN05r6avEpJ/bzD9uOPVh3/6D48bJPzAoJTj6zJkzb9++Va92jSoVy5YppaeuppaYlOQfEOzh7ff2vWOjRo0OHzZJNhu44uBC79ixfeM/G3W0i9WpXqVcmZJFtH5pqZDQ71/9AuwcXUQ/f27dum3s2LFs+0zkyZMn06ZN9fH2aVS/VoWypfRKFFdWzhcTG+fjF+Dq7uXy6cvYMWO2bttWtGjG76HQMqxdu3bz5kzotxBEquSwlFm0aJG2traxsTG3iTyOSCTatm3r+nVr29QvPblXxTb19HSK8PnN4N7uvvE7bOnlFRjz774DQ4YMYfGZxbNnzyZNHJsUFz65l37/1uXh7VjdjoxJfO0UfPy251VrT/SYN23emomdVxASEjJ39sxr166N6FJpbNeKDavpsCnskkQ/Xbx+XHz89ejNL6XLVjx6/JTcE36kxcGDB42XLsYRp/Su2L5BSfETmoDQmAdv/Q9bejp+Cdu6baeRkaLLjyfDzs7OaMKYb4G+k3rpD2pXwaCcFnvvEx2baOsaYnrH89yDL4MHDd65+99ixYqxn2QKERERSxYtPHnq5MB2+hO6V2xSs3hBYVlyND+ffMKvPvlqYumZv7D2kWMnJWfEzkS+fPly8qTp40ePnF1c4uLiVVVVq1ap3LJV6zFjxtSrJ9uapjIRHR197ty5m5aW7+zehYaGodXW09WFeOo/YEDfvn2ztCv49OlTMzOzVy9fenp5ikQ/CxYoULtO7U6dOkM8Sf9h/9u3b7t27Sq55BxBZC45LGUgYiBlIGi4TeRWzM3N+/WT9pMfPz+/o0ePnjl14vMXL73iWupqqlHRcd8jouvXrT1+4uTRo0draWnxTTOV+Pj4y5cvHzl84MXL1xrqqkW1CqDx9Qv6rldCe+iwEZOnTE0262AmYmtre/jQwStXLv0IjyxVoihuq5DvkT9/5mvfru3kqdN79eqlyNDmdPj27dvx48dPmR51dnUvXqyQpoZabFzCt7DIWjWqjh0/afz48bi/+KaZSlJSkoWFxZHDBx9bP1FRzqddtCDaAP/g78WKaA0YOGjqtOnsm7us4OPHjyjqixfOBYeEoaihosJ+RCckJrVq2XzSlOn9+/enp7y5DRMTE0ixhw/lX22NINInh6UMkVdo2LDh7NmzZX1oHxYW5uLikpiYqKmpWatWrQIFUn8Fk+kkJCQ4OTmFh4dDQOjr64tnHcwGvLy8vL29cUdAQ1SvXj2zXutkCDLr7OwMMaeurl6zZk3FRwJJCS4uLjEuNJqS8gI8Ievx9fX18PBAURcpUgQilRRMrmXgwIF16tRZs2YNtwlCFqytrW/cuLF9+3ZupwZJGUIq9u7de/r0aTbtDUEQhJRA2VetWhV6V/F1bYm/E7ieM2fOWFml9yEkSRlCKiIiIipUqHDixIm+ffvyKIIgiIzw9PS8ePEijSIg5CYqKiogICD9DwhIyhDScurUqSVLlnz69EnupXcJgiAIItPJYSkDv6iuro7uPreJ3M3Ro0dHjBiRbUNeCIIgCCJDFJcyCn2XsWvXLnhHbhC5HiMjI9IxBEFkyOnTp9u3b88Ngsj1KCRlmjZtSjNF5kWePn26bt06Hx8fbhMEQQi8ePGiT58+ixYtmjt3Lo8iCAVISkqKiJBnbXyZoLEyfyOfPn1auHChlZVVu3btmjdv3qlTp5YtW4qTnJycWBhUrVpVPAWqi4uLq6srC4Pq1asbGBiwMH6CH7IwwE/EK2g6Ojp++fKFhUGdOnUqVeJrANnb23t6erIwqFevnvgriXfv3nl7e7MwgGIuV64cC799+9bX15eFQaNGjcqU4es3vX79OiAggIUBpLZ4SeeXL18GBQWxMECuxfPxP3v2TDz9V758+Vq0aCFeJfjJkydhYWEsjKTWrVuLZ417/Pjxjx8/WBhJbdu2FS/I9/DhQ/GtiyT0btnH1bjRHjx4EBUVxZKUlZU7dOjAZvwTiUT379+PiYlhSSoqKh07dmTzAKEhQFJsbKw4CdeLLUORmJh47969+Ph4lqSqqtq5c2e2jk9CQgKS8JclqampIYl98IztkYTfsiQNDQ3sEL9FGEfBsXBEloSjIIl9kR4dHY2Tx3mypAIFCuAM2XQ7yBGyLE5CjpDEnhijHB49eiRuYVAOyDILo/Ssra3FSSg91EYWDg0NxUURJ6HM27Rpw8Lfvn2DrxUn4UqJqy6uL64yCwNcX1xlFvb395f8fK9UqVJNmjRhYdQl1CgWBqhLqFEs/PXrVzs7OxYG5cuXF69VhHqL2svCAPVWPMmeu7s7W9meUbly5dq1a7NwOjcX7izcXywMpLy5cCAcjoUBDiQeXJnOzYVMIWssDJAp8Uf4Xbt2xU00fvz45cuXp7NWNkFIz4ULF86cOWNhYcHt1GDNhSKQlPl78fDwsLS0RBOvr6+/bt06Frl27dpr166xMID/27p1KwsvW7bs9u3bLAx69uy5YcMGFoYwklz4tH///qtWrWLhWbNmwS2xMBg6dOjSpUtZeMqUKZIOZsyYMfPmzWPhcePGSboKIyOjGTNmsPCIESOcnZ1ZGCBePB/uoEGDJFt27A37ZOHevXtLPoXCOeBMWBjNt1jl4I5auXIlzh9h3BdwyZJSBvnt0aMHwlADXbp0kZQyKCV4fYTh8rt16yYpZXbv3s08MbZHoUlKmf3797OZbeGh0RWWlDImJibskSfc8IABAySlzIkTJ9jUw3BIgwcPlpQyp0+fhhdEGOUwfPhwsZSBvjE3N2ciEi5z9OjRklLm4sWLTCk6ODhMmDBBUspcvXqVyUH4e1wvSSmDtomtrAkBMXPmTEkpc+vWLTaPIsQKroK4hYGUgYBmEg1yasmSJeIkSBnEMLGFaon6I06ClEHtYo3dlStXcBXESXp6enfu3GHhc+fObdmyhYUBciRuPU+dOrVr1//X2ahSpQqyzMJHjhyRXI8aQuHs2bMsjKsj+QIdLv/48eMsvHPnThQ1CwOI5kOHDrHw5s2bz58/z8IAl37Pnj0snOzmQoXZtm0bC69YseLmzZssDCRvrkWLFkFfsjDo16/f6tWrWXjOnDlQ2ywMhgwZIp57ferUqRAlLAxGjRq1YMECFsYllpRoEydOxOVjYfykVq1a9GUAkYngNjQzM8Ptye3UYHe3IpCUIQiCIAgix1BcymTJdOwEQRAEQRDZg0JSxsLCghbmIAiCIAgiB1FIyty+fZukDEEQBEEQOYhCY2VsbGw0NTXZCESCIAiCIAhJvn375u7u3rRpU26nBg37JQiCIAgil2JqanrmzBnJr/BSQsN+CYIgCILIpdSpU6dr167cyDLoqQxBEARBEDkGPZUhCIIgCOKvRiEpU7NmTWVl5c2bN3NboH///gULFpScaDI6OlpPT69MmTLiWUTB48ePCxQoMGrUKG4LrFq1Kn/+/CdOnOC2QIsWLbS0tCRncfXz8ytWrJh4pnDGhQsX8FvxjJaMKVOmIFJyGk1QuXLl4sWLh4aGcluYXL9QoUJdunThtsC///6rqakpOX8o6Nu3L3InOUdtVFQUcle2bFnxbKfg4cOHyN3o0aO5LbBixQqcjKmpKbcFmjVrVqRIEcmp/X18fIoWLVq/fn1uC5w7dw6/XbhwIbcFJk2ahEjJGXiBvr4+cvf9+3duC1OYI3fdunXjtsCePXuQO/Fko4w+ffogd5LzuEdGRurq6pYrV07y0d2DBw+Qu7Fjx3JbYPny5TiZU6dOcVugadOmyJ3kBOosd8mW7jI3N8dvFy9ezG0BIyMjRIrncmVUrFixRIkS4ml2wfv375E7NgmvmN27dyN3O3bs4LZAr169sOW7d++4LUyrnzJ39+7dQ+7GjRvHbQFjY2OcjOQEr6Bx48bInZeXF7eF6XeRO0NDQ24LnD17Fr8Vz3HMmDBhAo5iZWXFbYHy5csjd+Hh4dwWFnDAOffs2ZPbAjt37kTu8JfbAtgmWe6wH+xNPCc9A0fEcXF0bgssWbIEZyie5ZaBXCAvkjPcI6fIL3LNbYEzZ87gt+JJZhnjx4/HUVCS3BZAOaO0JVdjsbW1xTn37t2b2wK4asgdriC3BXB9sSWuNbeFqZORO/Fk/AzUFpyMePZnBuoVIlHHuC2AGojcSU4AjVqK3CUbnIj6jN8uW7aM2wKo+cid5Lt/1B+WO9wvPEqYHxl3E+4pbgvgjkPuxPP/MnBvIneS01vj/sVdjHuZ2wK3bt3CyeCu57bAokWLEJlsKlW0HslyhxYGuWNTS4tBW4Tfol3itgBaLeRO8tNUtGxo39DKiSeqBmgDkTu0h9wW2Lp1K3K3d+9ebgt07doVuUMby20lpbCwMOROvMYCg+UOLTa3BdCeIxJtO7cF0PKj/YcX4LYwtzV8BDwFtwXgR/Bb8bTjDHgc5A7eh9vCwiDwTSVLloSf4lHCrMfIHZv1Www8HXK3b98+bgt07ty5cOHCkktVwLPo6OhUqVKF2wKWlpY4malTp3JbYN68eYgUTzzNqFOnDnLn7+/PbSWlz58/I3fiBToYx44dw8mI531mjBgxArmztrbmtrC2CcudeCZx8OrVK+RuwIAB3BbYuHEjdrh//35uC3Ts2BG5+/jxI7eFMbzIXbVq1bgtYGFhgYxMnz6d2wJz585F5KVLl7id1eAmRE2VD7SVqKCoAdwWwIX89OkTN37j7e3t6+vLjd+4ubnhjuWGAG4VV1fX+Ph4bgsEBQXhPuTGb9DuBAYGckMgISEBv0VDyW0BtHeIRGXltgBqCRpobvwG1QUXiRsCsbGxLi4uqAHcFpAydzii9Lnz8PDgxm9yKnchISGp5g6tBjcEUs0dGnEpc4eYVHOHPXBbINXc4UxSzR3OnBsCaeUOW3LjNzLlDufJbQFFcof94ygpc4fz4cZvUuYO+cqG3CEXqeYOueaGAA6KrkKm5w5XkNsCqeYONSFl7pAR1BxuC6SVO9xl3PhNytyhPity7XA3ocXghkCqucO9mWrucC9zQyDV3KFNyIrcceM3aN8UyR2kBjd+k+m5g49INXdodbktkFbuIPu48ZuUuYOnUzB38JjcFmC5g9rgtkBAQECquQsODuaGAHKHk0mWO2jEbMgdujTJcocsSJm7tIAOURAaK0MQhPysXbsWbdb27du5TRAEISP0MTZBEDkGmo4yZcrExcWhQ8wW0CYIgpAVGvZLEESO8fTp09DQ0JiYmGRDmgiCILITkjIEQciJiYlJUlJSQkICAjyKIAgi26EXTARByENUVFTx4sXj4uIQVlVVDQgI0NbWZkkEQRDSQy+YCILIGS5fvqyszBsQDQ2NZF87EwRBZBv0VIYgCHlo3ry55PRRNWvWlJxdgyAIQkroqQxBEDmAp6enjY0NNwTc3Nwkp9IiCILINkjKEAQhM6ampurq6twQUFFROXbsGDcIgiCyEXrBRBCEbKDFqFixYkBAgJqaWmJiImJUVVUTEhKKFCni5+eHMNuMIAhCGmiKPIIgspv4+PiXL1+y8JEjRyIjI+fNm8fMJk2a5M+fn4UJgiCkgaQMQRA5ibGx8Y8fPw4cOMBtgiAIGaFhvwRBEARB/NWQlCEIgiAIIg9DUoYgCIIgiDwMSRmCIAiCIPIwJGUIgiAIgsjDkJQhCIIgCCIPQ1KGIAiCIIg8DEkZgiAIgiDyMCRlCIIgCILIw5CUIQiCIAgiD0NShiAIgiCIPAxJGYIgCIIg8jAkZQiCIAiCyMOQlCEIgiAIIg9DUoYgCIIgiDwMSRmCIAiCIPIw+X4KcIsgZCEpKWn8+PHfv3/nNvH34eLikpiYWLt2bW4TRBoYGhquXr2aGwQhQb58+XhIXkjKEPIDEaOtrb1161ZNTU0eRfxlhIaGikSi4sWLc5sgUsPV1fXevXsQvtwmCAlIyhA5CZMyYWFhRYoU4VEEQRApuHv37uzZs0nKEKmiuJShsTIEQRAEQeRhSMoQBEEQBJGHISlDEARBEEQehqQMQRAEQRB5GJIyBEEQBEHkYUjKEARBEASRhyEpQxAEQRBEHiYTpIy3t/e0adP27t3LbYH79+9PmjTp4cOH3BbYs2cPtvT19eW2klJsbOy8efOWLl3KbQFnZ+fJkyefOnWK2wKXL19G5Nu3b7ktsH79+lmzZknONhsaGjpz5syNGzdyW+D169f47bVr17gtcOLEiSlTpri6unJbYPHixTifuLg4bispff36derUqfv27eO2wL1795C7R48ecVtg9+7dyXIXExMzd+5cY2Njbgs4OTnhZE6fPs1tgUuXLiHS1taW2wLr1q1LlruQkJCUuXv16hV+e/36dW4LHD9+HLlzc3PjtpLSz58/kbv58+fHx8fzKCUlLy8v5G7//v3cFrh79y5y9/jxY24LsNz5+flxW0kpOjo6WdbAx48fcTJnzpzhtgDL3bt377gtsHbtWuTux48f3FZS+vbt24wZMzZv3sxtAZY7CwsLbgscO3YMufv06RO3lZREItGiRYuQu4SEBB71O3cHDhzgtoCVlRVyZ21tzW2BnTt3Tp8+3d/fn9tC7ubMmbN8+XJuC3z48CFl7i5cuIBIOzs7bgukzF1wcHDK3L148QInc+PGDW4LHD16FLn7/Pkzt3/nbsGCBZK58/T0RO4OHjzIbYE7d+6kzN2OHTuQu4CAAG4rKUVFRSF3K1as4LaAo6MjMnL27FluC5w/fx6R79+/57bAmjVrZs+eHR4ezu3fuduyZQu3BVjuLC0tuS1w5MgR5M7d3Z3bOUqquVu9ejVyFxERwW0lpaCgIBTg1q1buS3w/Plz5O7mzZvcFjAxMUmWu6SkpIULF+LaJSYm8iglpS9fvuDaHT58mNsCt27dwg6fPn3KbYFt27bh0IGBgdxWUoqMjMTprVq1itsCDg4OyIi5uTm3BWAiEkncFsAP8XPshNtKStg5DoEDcVsAp4GTwSlxWwAnjNPGyXNbSQmZQu4AssmjhNyhEFAU3BZ48+YNDoRC47YAyx2Kl9tKSih2nF6ySYHt7e2REVwsbguw3KHScltg5cqVqNgpc7d9+3ZuC7Dc3b59m9sChw4dQu48PDy4LeQOFy5Z7nBxkTtUY24LoJJjh8lyh9sBNwVuDW4rKeGWQe5w+3BbANUvZe5wG6bMHW5Y5A43L7eVlHBTI3e4wbkt8OTJE5wMmgJuC6ChQO7QaHBbSQmNCXKHhgXNC49SUkKzg9yhCeK2ABoo7BC3M7cF0JQlyx2aOzR6aPq4LYCGERlBI8ntLCMTpIyGhkbJkiWTTfeppaVVqlSpwoULc1ugRIkS2BLbcxuHV1ZGDOC2QP78+fFbbW1tbgsUK1YMkYUKFeK2gJ6eHn6rqqrKbSUlNTU1xOjq6nJbAL/Cb4sWLcptAewfkTgWtwXwW0TirLitpKSpqYmYTMxdgQIF8Ftkh9sCODdEFixYkNsCLHfIEbd/5w7x3BaQKXdAvtxhG0RK5k5FRSXZmQBZcyfftdPR0UGkZO7y5cuH3yJScqolnC1i5Lt2yB02S5ZBlrtUa2ay3CEXiJTMnbq6elq5SzbBIMud5ATKLHdAvmuHg+K3OAFuC7lDjCK5w8+lvHYZ5i4HSadmooi4LVw7bCZl7kqXLp1hzWTXDhtzWwC7QqQ01w6bpXrtkt13rBFAErcF8ENEZpg7nAYik+WONQKS107cxCXLHQohWe5QyDgoCo3bArjvsEPJ3KFSYW+p5i5ZI8BqZsrc4efy3Xcpc5cp106yAWe5S3YyKBn8Vsprh58nu3aIQTFyW4BdOzQF3BaQ/tphs1Rzl+zapayZyB02kyZ3WQHN9kvID832SygCes9fv36tWbMmt4k/F5rtl0gHSTklHwo9lYEnk3yURxAEIT2WlpbTp0/nRvbi4+PDQwRB5H0UkjJr1qzZuXMnNwiCIGRBX1+/SZMm3MheDAwMJAd+EQSRp1FIypQoUSLZq3qCIAgpadq0abKxtNlG5cqVJccNEASRp1FIyixfvjynng8TBEHIjYODQ7IBzgRBZAW3b9+eOHEiN7IMhaQMQRAEQRBEWoSFhUnOJpBFkJQhCIIgCCJLGDRo0IkTJ7iRZZCUIQgiZ/jy5UuyuSIJgvjDUFdXTzbzTVag0Lwy796909TUzEPTQgQEBAQFBdWtWxciUXI21a5du7Zp04aFjxw5IjklYq9evZo3b87CBw4ckJzMt1+/fo0bN2bhf//9V/IZGnRogwYNWHjnzp0hISEsnC9fvqFDh9apU4eZ27ZtE0/mi6SRI0fWqFED4aSkpO3bt4tnU0XS2LFjq1atinBCQgKSxN/AI2nChAmVKlVCOC4uDknR0dEsSVlZedKkSeXLl0cYkTt27IiNjWVJKioqU6ZMKVOmDMLYFc5QPMExkmbMmMGmqPrx48fu3bvFswOrqqrOmjWLDfQODQ1FliMiInbt2jV//vxChQrNmTOHzYMUHBy8b98+8dymqMfz5s1j8zWh/FGG4qkzNTQ0FixYwCYo8/HxOXz4sHjeyfz58yOJTTXm5eV19OhRcRK2X7hwIZuayd3dHZdSXIFxGosWLWITZLm6usJNipNwAkhiU8w5OTmZmZmJk3Da2CEL29vbS05MiTtw7ty5LGxra3vlyhUWBqVKlZo5cyYLv379WnI+4nLlyk2dOpWFnz9/Ljllqr6+vpGREQtbW1vfvXuXhQGu77hx47jxd3D27NlDhw4lm982e0AFGDZsmOSUg3kX1GRnZ2cbGxv8vX79+oABA1g87uXp06eXFKboTHkvo/YyB8PuZfFE0mpqauncy7gd2CRSKe9l1g4gjEYSlzXZvYyrPHv2bCsrK8l7uUCBArj12NSU0LXHjx9P9V52c3M7deqUNPdy0aJFkcTCDg4OuJfFSWi40BCxMDzX5cuXWRj7wa03ZswYZhI5Qg7PKwOvj2rEjVwM7hxU3Pbt25ctW3bx4sWICQsLg7wQIzkVNG5sHisgmZTOr5IlifUESLbDmJgYFo97LK0kkCxJrEJS/kqsQpBN6ZPEjRraqXSSeNRvxO0dAjBRAtB5EEPYg7i9Y0liJJOwZx4rgCRxU5gySdzeIRc8ViD9JHHLhRLjsQJIYvEA5cxjBZIlweQJ/03CNeWxAlImoYh4rADqCU8QRCSPFZBcoQL6DDVWnM0/ldatW0MccyN7gev6+vUrN/IyLi4uVapUQZ8KEgF+HeKe1ycB8Q2b8jYX35UZ3uZisId0blhxUsq7EkmGhoZLly5N5zZPecOmk6TgbS55w6ILig4MTxBKg4eIPIVCT2WuXr0K7dy5c2du50pQa7t27YpmCx2UiRMn0tfjRO4HfdAVK1bo6+ujn1q5cmUeS2QeCxYs2LBhg+QKA3Lw8uVLqAf4QijUdu3a9ezZkydkIzg0TgONsOQE+YTc9OrVS11d/dChQ8km4CfkBnITOrJ06dLcTg3Fn8r8+QsXoFuM/sqkSZOSrWdBELkZ1Fv0YqFprl+/DjfJY4nchLGx8ZcvX27cuIHG2tTUNDtfUuC47LUykbl8+/YNnd6nT5/ev3+/Vq1aPJZQgDNnzpiZmSVbmjQZJGUI4k/mxIkT8JHJVromchV169b98OGDh4dHhQoVeFQWs2LFCnNz81yyuvgfydq1aw8cOPD48WM2eJFQhHv37l27dm3//v3cTg2SMmkSGRn5+fPn+vXrc5sgCCKzCQsLK1GiRLly5SBleFQWg97tiBEjXr9+bWBgwKOILGD9+vWFChUSjxQmspQcHvabm5k+ffq///7LDYIgch8vXryYPXs2N/ImT548EYlEbdu25XYWgx7a5MmTd+zYQTomq1m5ciXpmDyEQlLmzJkzkt+g5h68vLwuXLiwevVqbhNEHufDhw+Sn8X9GXh7eyNf3MheJkyYIPkFotw8fvwYf8VTOWQ1ZmZmJUuWzIZp4Akib6GQlHn+/PmbN2+4kZswMTHp2bNntr26JoisZvPmzZs2beLGn0KfPn1wq3Ijezl16lRwcDA3FODRo0f4m21PZRo3bnz48GFuEFlPbGxsREQEN4hcjEJSZs6cObmzf3Dnzp3BgwdzgyDyPj169LCysuLGn0L+/PmrVKnCjezlxo0bFStW5Ia8hISEODo6li1bln0wb2tre/PmTfTusm70YYMGDQwNDblBZD1Hjx6dNm0aNwi58Pb2hkfmRpahkJSpXr26vr4+N3ITOKv27dtzgyDyPk2bNrW3t6f5uzKL7t2785ACWFtbQ7W0bdv2xYsX48aNu3//fmRk5Lp162rVqiU5Y3gOYmdnt3jxotatWpUtW6Z06dJVq1YZOHDAgQMHfvz4wbfIGiDy9uzZ07dvn8qVK+G45cqVbde27bJlyz5+/Mi3yBqSkpIsLCwmTTJqUL9emV85Ll2/Xj2jiROvX78unsFPJuDjXr58yQ1CLnBf7NixgxtZBn2M/R/CwsJiY2NVVVWzYc0ISXBQHDpfvnza2tpsSv7sAZc+KChIJBIVLFiQrS2QbaAxjY6OVlFRQVErPnxdeuLj49lsocWKFdPU1OSx2UJwcDC0CA7KZoWXiYSEBA0NDR8fn/RnmiKyk9mzZ+/bt69jx45weLt370ZlRiRu5JIlS/bu3fvSpUtss8wCrQQoWrQot9Pl7du3M2ZMd3T80LBuzQplS+qVKK6snC8mNs7HN8DF3cvb13/q1Cnr129gy4ZkIt+/fzdeutTU1LSSfoWq+uXKltbT1FBPShIFBH3z9PG3c3Bq2rTJ/v0HateuzX+QeZw8eRJqKSE+rn7t6uVK6xUr+qtB+/4jwts34P1HVxUV1X82bhw/fjzbWEo+ffqEUxVPm07IgZOTE+Rg+i9w6GPsTADZt7KyOnHs6PPnT/wCvrFI7aKFGzduPHL0uMGDB7MlQrICd3f3I0dMbt245vLpS2Lir06Duppq7ZoGvfsNnDjRqGzZsmyzTCcqKsrMzOyc2Snbd3bhEXwwKdq7Nu06TDSanKVjGNGRPXbU5Mnjh199+ZJVRQoXNDRsOGzE6BEjRmTdNIbe3t7Hjh29ce3yBye3BOHZhqqqSo1qlXv07jdp0uSsm20MjeDFixfPnja1sbEJ/c5fupcpVaJlyzbjJxp16dJF+ntYV1fX0dGRLY+VPs7Ozjt37oRSLFKkyMKFC5E7uMDt27e7ubnhcGjNc8mce+goR0ZGsjV98iJ16tT5+PHjkCFDcDdJLucEtYEOCToJ3M4k9u/f/+bNGzhsbqfN5s2b165d26lNs3Ytm+TXTKX5gne/evtBXILI0tIyEyeCg37q26ePTjGtvt3al9JLpTcYHR1z78mrJy/f7ty5Y9q06TxWYVCLRgwf/uLFcxy3QZ2aEG084Tci0U/7jy7Xbj9s0rTZuXPnChcuzBMyAu1GhQoVUFGzs7v1F0JSRlHQNEw2Ghfo7zehh36XxiXrVdEuqKmakCT66PH9yfvAIze9ImJ/7tl7YNCgQfwHmQS6bosXzj995myfNvrD2pcxNNAprfPLi38NjLJx+Xb2ge+9117Tp09bv2Fjpnebjh8/vnjR/HK6BSd2L9eyjm6NCkVVlPOFRye8/xR685X/yTvu1avXMDlqmukzXcINT5k0wc3VZWz3Sj2alqpfVVurgFpiksjl649nDkHHbn/1DY7Zun2nrN2mDIFuW7Hc+ODBQ52blh/VqWwjg+Ll9X4VqV9ItK1riPlD3xtPPcaMHoVDS9nflR70y+fMmq6VP59Rjwpt6uvV0i+qpqIcFZto/znUyibg+K0vJUuVNTl6okmTJvwH6QI5Is1jpCNHjqAPBCmD7GzZsgWBJ0+erFu3btq0aa1atYKy2bNnj62tbd26dfkPco5r164dOnQoG96jZwXBwcElS5aEDvPw8JBUY6hv8JSVK1dGh55HSWBvb29sbAwH6efnp6Ki0qhRI0Tu2LFDmqnYIEbRXkkud5oqy5cvP3zooNGogeXLlOJRqYFW/9rt+w+evMKNmSk3O86tU8eO0E+d2vL1d9PC3dN716GTw4cPP3v2LI9SANwX7du3/xH2bcKwfgUKpLcSRXRM7JJ1O+DvcI2kXLMCl6l8+fIJCQkkZbKUHJYyuGe0tbUXLFjA7dwBFDraazSR3E6bgwcPLlo433hUrcXDa6mrpT5s6LSV+7x9dj179zt23JQ9QFYcJyenXj26Vi+jdnC+YcWSv9aSTYmz1w+jrTYhMRrXLG5m1hwS8fHx48eOsn5078A8w76tyvHY/xIdm7jmhOOBa247d+2ZNGkSj1UY9IQmGU2Y0b/a6nF1Cmj+Wu02Jdeefp2x+13jpq3OXbiUWU/CvLy8enbvXEwj9siiRjUqpN779/CPnLrjrZt/4vmLV8RLnSuISCSaPXP6+XNnd89qOKpL6o984hNEW8w+bj77cfWadeLlfBXEwcHh6NGj4hmV4G719PR0dXVXrFgxc+bMBw8esBXTbt++3bVrV7ZNDmJlZWViYiJeozg7KVu27Pv37xVZke3ixYtDhw4dM2aMqakpjxK4efNmb4Hr16/zqBTgcmzcuBGXSby4ujRII2WQamQ0cd6UMXoldHhUuly5ec/dy9/xwwe2qLXchISE1KpZs1WT+h1aN+VR6eLu8fXQqQtXrlxVvB6i8/P8qfWM8cPU1FJvWCRJSEjcY3K6ZZt2p0+f5lEZYWNjk1nNApEWOSxlIGIgZSBouJ07kPLt5uHDh42XLLDc3LZlnQyWDfMMiNQffLljh/b37j/gUQqAPlzzpo2NepTbYFQ//cuXmPSz3MBLASHRgYGBio/dwVUeMqi/p8ubm5vb6Gln0COBqui/7BEa64EDB/IoBcB+Jo4fe2Ftq+7NyvCoNAgIjSnV90KF8uW+eHgqXrmDgoKaNTHs2lBr/7zGKimeOUuCO6DtLKun9gFfvnxR/MMWMHWykfV9izvb2qYlVcU8tQ9sM/PO/v37Ff9QIikpqXv37lAG4ufn7u7uVatWhcP28fFRV1dHRRo5cmSzZs3Wr1+frHjv3LkDha2pqamqqgodFhMTo6ysPGfOHJ78x1G0aFFXV1dp3talxYwZM9AXOn78+Lhx43iUAK4j2pYjR46kMzigVatWL168wAng6vAoKchQyoSFhVWtWqVft/YN69bkURmBmr/vuFm37r127d7No+Ri7NixDnZvJ42Sobl49vrd09fvXd3cFHmtDHXet0+fZXMnFS0i7VC/H+ERG/ccuXTpcm5Q8wRD8dZeoS+YNmzYsHDhQm7kKezs7BbMn3t9Y5sMdQyAN/K6NMjR/u2ZM2d4lLzA2UBPDGpT8p9JGegYoKqSz+/q4MEdKo8ZNZxHKcDOnTvtbJ5ZbWuXoY4B/VqXv7qx/YTxYxX/EAPiYOKEcWdXtshQx4CS2vmDLYflS4zcrVjDyhg9cljTavkPLWiSvo4BuBZP9nWd1r/G0MED5PvSQZJfa0BevXhvR7sMdQxoXU/Pel+3RQvn29vb86g0gCKEyOBGakDEo/soOQ7g8+fP+Nu2bVs2lhye+/79+7htUzYclSpVQgdg165dU6dOxUWvV69ey5YtedqfCPKoiI4Bac0oY2lpCRXYp08fbqcgKioKHf0yZcrIpGOAigA3UuPo0aMltItJr2MAKkL/7h0PHT4MGcSjZAdC+dw58wE9OnJbOlo2aaiqoqzgOyaI8o6tm0qvY0ARrcKd2jTbsGE9t4ks5tWrV2hzuJFlKCRl8ufPn3VDYrOUqZMnzB9So009aduy8noFD8wznDdnloIfMaLzHfXdf+fMhtzOCDQ0RxY3cXj/9vz58zxKLtDWrFm90nRpE50i0l4vqJmhHcrPnjmV2/Iya8bUkZ31+6TxPislxYtomBo3XbVyua+vL4+SC3Nz84+OdiYLpRqGwtg1y/DHNx90tbktF9+/f58/b/ahBY3K6Uo7yAn1cM6g6qiT3E6DkSNHpq8sq1ev/s8//3BD4NmzZ/grzQRu1apVa9++fUBAQLFixTZu3NihQwc2jONPRcFxUSgoFxcX6L9ks1G8fv0a9RYqMJ3HqM+fP09ISJBjtojRo0evW7eOG6lx+NCh5o3rcUNqypbWq1CujCL9tBMnTtSqXk1HW7YiRePWzLCONCMB0gLdpFcvX7Zo0oDbUtO8UX2bNzZubm7cThdatlNBcKc8efKEG1mGQlImj4L2Hf1X41GyjXQb2LZClbKFpX/DmpKfP3/u2bV93fiaGmoyjLkpUlB92cgau3du5bZcHD58qINh6dZSSzfGP0b17t1/lOroRSlBJX74yHr9xDrclo629fXaNSx95IhC88Du2rFl+agaWgXVuC0FuC7rxtfCNZL7lSs4efKkQTktCEFuS8fyMbVRVunPYPHrTbCMJ/bgwa9XolJ+r2RjYxMVFQXdI/kxDpEqbL2ClBqRfV40dOhQZo4fPz7lm262zrk0+jIZxYsXT+dBjr+/v4enZ+3qsj3pYVSvUvHB/fvckJ179+5iD9yQhTo1q9nbv0et47aMoCT1K5QrXEjmDyMKFSxQWb+8NP41MDCwZs2aijQIRN++fbduVch/ScMf2Gbp6eml/8HRSdPjo7tWSmvwaTpM6VXB9PgRbsgObryoyB+yOjkwulslB8ePzs7O3JYd0+PHpvaWeTJD3WKafdvonzz5n1GNMnHq1Mn+7SqVKCrz9C1TelU8cUz+ov748aOTs2ta423ToX+b8uE/wp4+fcpt2Tl54ihOnhtSU1BTdVTXyqYnjnM7MwgPD4c6KVGihJTfp6TlnrOO0NDQ58+fcyNPkerSS0lJSefOncufP//w4b/eCEcLpHxuzd5MZfocnvb29qVK/prEhduyUK60noOjAzdk58OHj2VLy/O2rqhWYa3ChR0dHbktIw4ODqVKyjmIsJReiQxf6YL4+PiEhASSMopQrFix+vXrcyPLUEjK+Pn5Zco6JpmLlpZW+u9fXz5/0rFhxkNkUtKhYUl7x48xMTHclhH0udvULaGmKnOZFymoblhd99WrV9yWEW9v74Cg4HYNSnJbFjrU13n17FerLR8vnz7q2ECqLymS0b5hKV//QFQwbssIirpxDV2ZHskw1NWUW9UpLndRw3U5fHDq2Ci9j2DTokP94q9e/OqvZxZwt3CukCaSI2PQd09LE7OnBdk5TfadO3eMjY25kb1I48bSIdWBMj9+/Pj+/XuLFi3YFIgbN25MOZQwMjLy7du35cuXz3Aqo8uXL0+ePHnkyJEdOnSYPXt2YGAgate3b3ziq5REREQUknfihvz5NSMj5V9cEyeWX97ZJgsWLCj3IkcozAL55TwufkiLK/1JKCRlcK/u27ePG3kENO6unz3rVpZ5ulVQoWShQgU0XV1duS0jzk5OdSvJOaNu3cpFnZycuCEj+GHlcsXleAoFUFAfnaV6o5wqH13c5CvqQvlV9csWl3uac2QZJcYNGcE1cnKS87guLi5FChcoW0KeLzLqVtZ2dvNIZ2Cvjo5O+l/MRkVFQYSJe5Cpvl06fPiwl5cXNyRA1/P58+c4RJ06sr0NVITatWtnygICctCkSRNIfG7ICOTgp0+fKlSokOxjN21t7QYNGrAJS27evAlZk/Ij3mfPniUmJqb6yg+XQLzM1pkzZz58+HDo0CH0yq5du4ZL1rBhQzS28+bNYxukRFlZOf1R4ekgEv1U5K2isvKvL2G5ISM4Z7kPnYNZJnIbCl1LAwODnFoNTm4gZZKSRJrqcs4Qo6mhJvck1vihpoacx82voarYcWV+PsHIr6ESFx/PDdmJi0uQu6jzK1bUKDFuyEgOFnViYlI6TbOPj086H93AQXbr1q1Fixbi5U7YvCaSd2hAQACEeKrfoL558wZ962SPcNLB2dk5VUkkE3Xr1s2ppzLIqdyzDGtqanbu3DnVjzLu3btXsGDBcePGQdSm2s1jj75SlTJXr14VqysomFOnTjFfq6WltW3bNugn6NR0amblypV9/QPkUxRBwSEVK8j84ltMuXLlsAduyEJCYmJQ8De5nYi+vn7Qt1BuyEjgtxC2CGj6qKqqqqioKP6p8F+O3IpTehSSMrNmzRo9ejQ3cg0RERHJZnqQBPUSDURcgpwf3MbFJ8i9RhJ+GBcv5xWNi09S7LhyLkMYlyBSV5PTNwN1dVWcOTdkBOesUJblvsQJOVXUSULdTPOWRKvKQ6kBmfL8+XNU73r1fn3DsnnzZvbAQ/wh2Pfv3+fOnQuhk2q7nNanxclwc3Nbs2bNxIkTGzVqxLxyHuXu3btyLzpWrFgxKyurkSNHclsCbW1tc3NzU1PTtCYOZeWcUsrEx8fv379fvJ7/ihUrcAVZGLBvsNN/ilCrVi2RKMkvQJ7VErx8/Js1b8EN2WnatJmntzzvgr28/QoXLlyhQgVuywgq4VcffzkeCOEX3r4B0qwxXqpUKVtbW5IyinDlypUhQ4ZwI8tQSMrkTtCmozXhRgrQKFSrXN7RXZ5JFLyDosIjY+See7d6jRqOHnJ+y+3gHibN1Oapgh9+/hocEyePa3dwD60p1zcRjJoGVR2/yFPU0bGJ7t7BNWvKMEOGJMiyw2c558lwcA+vUUPO46JufA+P8vvGl7WSCVzi6lUrpu+u0qFs2bJQGB06dIiKilqyZEl0dPTBgwdNTEzgFE+fPn348GHoe8SntRplOgNloH7s7OxYWE9Pb/jw4UeOHIH/kPudwl8Lelnv3r2rKMCjfjNp0iRcGvGDopYtW4plDdiwYYO+vn76YyfV1NT69+//2lbm0btx8fG29h/ZUGX5GDFixFv7j0lJMvfT3rxzVOS4UIT5lJWd3b5wW2pcPn9JEolws3A7XXLDEh95GuFNiKKTdWXIHyhlMqRp81aP3qc5ei4dHr0LqFOrhtxzUzZr1uypQ0hikswOICI6wdY1uGlTqWYETwk6PSV0tJ/a8+UbZeKRfWjTFvJ/0oLfYg/ckAXr94EldUvIvaAmysrGOTgyRuYHJLg6zz58k7uoCxUqVKuGAeoJt2Xhkd23ps1bcyM1oEjSbxGgMNhDF2gaNgGJkZHR+/fv4SCrV69++fLlBg1Sn4EjPj7+xYsXqX7rBL1y584dsRPFriDX5NZbfzkWFhaJiYnJvnt6+vTp0KFDcXEnTEh9YqEDBw68ffv20aNHqF3pP5mbOXPWK1v77+GyjWa1fvG2StUqctd50KVLF60iRV6+5XpXSoJDQm0dnBSZ5BqlMXXqtPtPX8kkqrHxgyevJ0+eLPfDV0ImBg4cmM7Dhczib2ySxowdf/K2e6zsLz5MbnqNGZfeSuXpgy6vmkaBG89lHmx49u6X6gbVFFkWH1k+bOnBDan59iPuyqMvY8aO5bbs4LeXHrqHhss89ARnO3Z8BlPGpUO9evWqVKlkdk/m7tr1Z1/zFyic4XuWdBg9dsJhS5mnSI6JSzp91x2XidupAYGS4fAUVJK+fftWq1aN20pKECh9+vRBjthLilR5/fp1TExMqgNlVqxYASeXRQ/YnZycMmVa59yPiYlJx44dt2zZUrNmTWdnZ/h+0LlzZ3Rv4Ms/fvyIVMC3/o1IJFq6dKm7uzukDGT9sGHDNm7cyNNSo0WLFr379L5w7Y70D8z8AoLuPn5+4IBC00JC2u7ff+DGXetvIdI+Ck1KEplfvT1h/HhFmjWwaNGiqOi4x8/fcFsKnry0+REZtXSptIO0FJkFgwCoHtKsg6sgCkmZx48fv3kjQx3KJUBSlK9QYfs52T4Isnzh89EjLJ1ROBmCKzpz9txVJz4mJMrwJDYiOuGfM86z5yq0QMTUadPuvPJ+7STbs6g1Jxzbtmkl94stgHaqZYtma00/cFs6XnwIuvfGZ8oUhSYanjNvEcotKlaGBzPxCaJVxz/OnD1PkacO48ePd3APu/1KtqmKt5p91NevlKy/ngzhlU6WvNNJa0aZQ4cObd68GTnidmbz/v37K1eucCN72bVrV0JCAjeynsmTJz948MDBweHDhw8QjncF7t279+rVK8QAhJPVuqioqBkzZnTq1GnHjh0aGhrPnz+3tLRM+WYqGRAlETHxl27claamQHmYnL60ePFiaCAeJS/du3cfP37C4dOXfkjxTAgSzezKTTWN/Fu3beNR8lKoUKHzFy7cvP/EzlEqwWH/0fXG3cfnzp2XXN8jHQICAtAvyqL7jshEFFpOcurUqTo6OsnmSs9xIiIi5syZc/x4erONoTXp2KHdw92dmtaUamlc/5CYRpOt1mzYZmRkxKPkAq1no4b1utRR3T4j4xFnjDH/vPSOLvHwsfyTtjH++WfD6aN73hzuUqSgVI9V77z2HbTq2Ts7e1lXikmGq6trI8MGl9e37tok9VEayfgeGd9kyt3xU+dL321KFdTq9m1b6WuFmBo351EZsWC/7YOPIhvb9+k/xs8QdMHXr1ry9kjXklIsdwVefQzuOO/BY+un6a8VoKam5uLiIs1nF9IDJeHn57dlyxZfX99ly5axa41a6u/vb25ujsNB37CRqskoUKDAwYMHxyrwxA4EBQU5OjqmfBqRDaioqHz+/DnZsgO5Bx8fnz59+mhpabFv1lCZ7ezszpw5I81rIC8vL/TWtAppDu3brUjhNL/ed/joeu7a7QkTJ+7cuYtHKQYECppHi+vXRgzoUb1qmrPmhIR9N796O5+K2oMHD0uWlGeyq5RA5A0bNrRt88bdOrRM6+ljUpLo7uPnD5+9NjMz79u3L4/NCG9v7woVKiQmJirSvSEyRPHnvgpJGfQz0KI1by6tq8hV7N69a+P61Xe2tTM0yGAON9/g6G6LrQ2bdz5xUv5VC8S4ubm1aN5k/qAqy8dkMIGHSPRz/v53l58Fv7Z5V6qUPLOuSYKGpm/vHmG+H29saq2tlcFKTA/f+fdb9uTg4aMjRozgUQpw+vTpWTOmXt/YJsNp+kJ+xPVe9qR4ubpXr/9ak4/HygucdNPGDYe00d0+vaFyRitKrj/psOfylxev3igo3RhjR498//rBnW1tSxfPYGSVjfO37osfr1yzYfbsDJahhpSBLsxwajWZuHz5cjpTPqJ9gbpKdZx7pkiZHGTr1q3z5s1DkXI7l7FixQobGxtu/ObUqVO4i6VpCsLCwqZNmwYH38ywbvNG9Urp/X9K3ISExI+un1++tffxD/r3338z/RNU1IrFixdV0S/f3LAeBI2qKhcWcDK+/gGvbB3wb/iwYXv+/Tf9SZJkxd7eftSoUSHfgls0qte4QW3J1QwiIqPevv/44q19MW3t06fPpDViLFWYlElKSsqid6x/A+Hh4egppf90P4elTF5nx47ta1avXDeh7pzBNdJaPPmytdeMXbY9evU7fOSYgp11Me/fv+/ds1sTg8L75xqW0km94/7FL2Ly9rdfQ/PdvH0vsybviY2NHTFs8Pu3L0wWNurcOPVnJPEJoo1nPmwzd9q3/6Aib9OScfz48dmzZiweXtN4VG11tdQ1yj0bP2S5QeOWZ80vZNa71U+fPvXs3rlicSWThY31S6XedPp9i56+y9b2c9SNm3fYl8yKg27cZKPxd27dODDPsH+b1GfsSBL93H3BefUJh7XrNsyfn/q3u5KUKVPGwcFBR0ee2ZMznbwuZfIiR44cuX37tvSv5J4+fbp/376r166pq6uVLV0KfYOo6GgfX//SpUpNnvKLdNa8VAR0IQ4dOoSz/fbtW7kypfPn10xKEnn7+v0UiQYNHjRr1uyUMwdmCrjpzM3NDx448Or16+I62iWK/7pTgr+FfgsJadK48bTp09Exk1W8oudZt25dtJzcJmTn5MmTZmZm4ukfU4WkjKJYW1tPmTQ+LjrcqGfFLo1L1a1cTFNdBT7G2fPHE/vAIze9vIOid+zaM2bMGP6DTCIoKGju7JnXLSwGd6g0vEPZhtV0dIv9ct5wq29dQs7c97Z46jl2zOgt23bIPZFXquBa79+/f/mypbUraU/sXr5lHd1q5bSUlfNFxSbafw699cr/2M0vJUuXPXLspDSTLsjE27dvJ00cGxTgN6GHfo9mpepX0S6gqSoS/XTzDn/uGHTk1lcnj9CNm7ZMnz49cztAP378WLJowclTp/u0rjiqU7lG1XXYk5KgsFhb1xDzhz4XH7r379dv97/7Mr1lxz28cP7c8noFJvWs0LquXo2KRaCYY+OTHNzD7tr4H7H00CxY9PCR44qMMs5mUG/R1w8MDFy5cmW3bt369etXrVq19If4EJmFhYXFsmXLPnyQbeRZXFwcfgJNLxKJChcuDLFevrz8s+HJhIeHB8R3VFSUioqKgYFBrVq1sucx2Pfv3+3s7AICfn1IWLJkyfr167OlJOTg2bNnEydOlHuGdwKgDO/cuZPqlJJiSMqkzurVq+EepJw2AFoebcSJY0devHjxPTxSReXXZNiaGuqGDeuPHD0eQj5zH4RK4ujoaHL4EPruX7x8cVzE4NBVK1Xo3Xcguk1ZN5NyWFjYqVOnzpmdsnf4mJCYiGqEblMJnaKtWrWeOGlK165ds+jFMHKHOn3syOFnz55+C/2BLKPuqamq1qtba/jIsdCLRYvKudpAhqApNzl82NLiyqcvXix3yHKlCmW69+wzecpUBT+jSIfIyMiz4PSJd3b2sXHxODSOW6xIoRYtWo6fOKl3796Z9aiP+OPx9/cvV65cSEhI5nZviHRg48ayTfz9tZCUSZ01a9bY2treuHGD21Lj6+sbExMD74K6m0XuPFV+/PgRHByMy6mnp5d1yiklkHHe3t5JSUk4aGYNwZMSNBCsu4bWOTvdObRFYGAg6ryurq7c873KAWTc169fUeD58+cvU6YMj/27efDgwYkTJ86cOcNtIiMaNGgwbdq0yZMnc5sg/ghyWMocOHAA/YNUJ/DOWaBIKleu/OHDhzy3RBRBpMTT0/Pw4cObNm3i9p/C5cuXDx06dO/ePW5nIz179jQ3N89OLZspmJqaXrlyxcLCgtsE8UeguJRR6MGDk5OTm5v8yyZnHej1jhkzZsaMGdwmiDwLehpGRkZhYXKuw5Cb6du3r5mZGTeyl/v37//4IecqIjnIuHHjLly4wA0iK4mNjZ0zZ47cK8sS2YxCT2V8fHzU1NTSWa03B0E7Vbdu3WPHjnXq1IlHEUQeZNu2bfv373dwcMhzjxByM7a2tpk+sJ34k5g5c6aNjc3Lly+zc6TBH4mbm9vbt2/Tn9eDxsqkBzqyaP3Tma+dIHI5EDErVqywsrJq0qQJjyIIJaWPHz9qaGjQC/QsYtGiRefOnbO2ts7caZz+To4fP25mZnb//n1up0YOv2DK5RQrVox0DJGnef78+e3bt0nHEMmwsbFp2LAhlO6f2hHNKUQiUe/evS9evPjo0SPSMZlC+/bts2Gwx5/8VEaMg4NDr169xowZY2RklOEiJgSRs0RGRmbnV2w5SFxcXHBwsNzrn//lPHjwAA1a0aJF4SfGjx9P3bZMISkp6eDBg6NGjcq6iSGIlOTwCya0RMrKyrl28m9J7t69u2/fvlu3bpUpU6ZVq1Znz55l8WgOJFdrQurWrVtZ+M6dO6dP/3+lAmgg8WpTFhYW58+fZ2FQtWrVNWvWsPDly5clp+OsUaPGihUrWPjcuXOS34fXq1dv8eLFLIwD4XAsDBo1ajRv3jwWxunhJFkYNG/efObMmSx8+PDhJ0+esDBo06bNlClTWBiZffnyJQuDjh07TpjAF5retWvX27dvWRh069ZNPHk58m5vb8/CoE+fPkOHDmXhDRs2SK4QO3DgwAEDBrAw8v7p0ycWBsOGDUO3hoWXL1/u6fn/ZaJxIByOhZF3X9//r7mI0xOvxYO8BwUFsTCqODLVunVrZiLv4gGwSEIjztbNQAM0a9Ys8UBOJM2dO5ctaYRaOmfOnIgIvsodkhYtWsRm9Y2OjsZmUVFRLAmVeenSpbVq1UIY2+M0xJP6I2nlypVsxWmcwMKFC8UTgMKFoARYBw6OecmSJeKhgqqqqii3cuXKIezv729sbCxewhB3zaZNm9gk9N7e3qgkSMKenZycAgMDPTw8FF+qIveDvu+hQ4ckq3e28WfoRVTgUwL79+9n8/F//foVFTUxka+iqqGhgZu6ePFfK825u7uvXbsWdwpL0tTU3LFjB3PYrq6uqKgiEV/mtkCBAjt37mQLLn748GHLli3iJBTa7t278+f/NUf5+/fvt2/fLnYf2P7ff/9VV/+1xJuNjc2ePXvESUWKFNm7dy8TWy9evDhw4IA4SVtbG0ksbG1tbWJiwsJAT08Pp8HC9+/fP3HiBAsDyF+cFQvfvn1b8nt+fX198WxsyRpq3L+rV69mYXFDjax9+/atdOnSJ0+eZElE9qO4lPnVCvOg7KDdt7OzE7uZ3EzlypWHDx8O5wT3VqVKlerVq7N4tAXfv3/X/Q0cUv369VkSGrvw8HCeICSJZ7WHn0MqT9DVxQ7r1OELKiEJrpEn6Ori5mGuEcDRwjXyBF1dAwMD8bIUOAf4P54gJAGWFBoaCifHE3R18RPxIkFIQsPEE3R1a9asKV5rEDcnGgueoKtbu3Zt8cp5bAIbnqCrizOvUKECS4KAgM/mCUKSeG4o+Fc4Zp6gq4uiEHem4aTRfvEEXV0UINoFluTn54cWkyfo6jZs2FA8ew10DFpMniAk4S9L8vHxQYvJ4tGcGRoasrYYoKXW0tISJzVu3BhNoTgJLaZkEpviE5lFEppscVLTpk3Fk4whCZtJJomXzIXCECfhtJHEnB8KFkk4rjipWbNmyIs4SUdHRzKJtftIQr7ESVAqSGLrM6AxRRIiUXSQdPABuWR1gqwGtRTFBcXM7WwEl2bcuHF5Xc1AEKNBmzhxolj4okHAnYX7hVUz3ImoZkxeIAn3Y4kSJVgSum2o0qwjCumDuzhZEpvtCY1PQECAOAl3fZMmTZgoiY+PR7PA4gHaCiSxQbJIQjvDE3R10cLgfmTuCn2AkJAQniAksS4HQPOINo0n6OqiyUKzwJKSNdRIEjfUaG8lG2q0gXXr1mVJKRtq8WSY+An2iUgUHc4NHTCEWRKR/SguZRR6KoNeJhp09HG5TRAEkReAA3N0dBRLZIIgcpAcljIEQRB5ETR6ireeBEFkyKNHjywtLXfs2MHt1FD8ZqQv5gmC+OsgHUMQ2YO3t7eTkxM3sgx6KkMQBEEQRJYQFRUVGBiY/pft9FSGyBU4OzuTICZkxc/Pz9LSkhsEQfyJFCxYMBtm6FFIyri5uXl5eXGD+IvZvn37w4cPuUEQ0vH48WPx3AfZTPpzjxIEkbdQSMrs3r376NGj3CD+VqKioszNzY8cOcJtgpCORo0a5dS6+t27d6duGEH8MSgkZZo1ayb+7p/4a7l8+XJSUtK1a9fE09ARhDRUq1ZNPKljNjN8+HD6EpsgsoHExMTw8HBuZBk07JdQlObNm79+/bpAgQJ79uyZOHEijyUIgiD+es6fP29mZnb9+nVupwYN+yVyGC8vLxsbGwSio6MPHjzIIgmCIAgC5M+fv2DBgtzIMuipDKEQa9eu3bp1K1urSEVFxcXFRbx4AkEQBEFkCD2VIXISiGATExPxmotqamqSS74RRPrY2tqKl/cjCIKQG4WkjIWFRY6sakvkEp4+fRoSEsINYaG4I0eO0EM+Qkrc3NweP37Mjexl6dKl4rXNCYLI6ygkZW7fvv3o0SNuEH8fEC7i1f8Z4eHhNMEMISU9evTYtWsXN7KX7du3BwQEcIMgiDyOQmNlbGxs8ufPL142nfiriIqKKlGiBKSMiopKUlKSsrJyvnz5EhISBg4caG5uzjciiFzJqVOnRo0ahUrLbSJT8fT0rFixIjeIv5vg4ODPnz83b96c26mh+FgZGvZLyMnXr18vXLjAwiYmJg0aNGjcuDHCBQsWnDZtGosnCOIvZPTo0cbGxjVr1uQ28Rdz4sQJMzOze/fucTs1SMoQuYJOnTqNGDFiwoQJ3CYI4m8lPDxcV1d3xowZO3bs4FHEX4ytre3jx48XLFjA7dSgL5gIgsjDJCUl8RDxp3D+/HlcVvTF6eISwNDQMH0dkymQlCEIIme4efNmv379uEH8KRw8eBAiJjY29s6dOzyKILIYhaTM5s2bDx8+zA2CIAhZgMPLqY47eophYWHcIDKPT58+OTo6IhAfH0/egcg2FJIy/v7+9EEjQRDy0bt37ytXrnAje3FxcRFP7UhkIidOnFBTU0NAJBLduXMnNDSUxRNElqKQlFmzZs28efO4QRAEIQv58uXT1NTkRvbi5ORUunRpbhCZBOTL0aNHxXMPqqur07wMhL29/b59+7iRZSgkZYoVK6alpcUNgiCIPEKFChV4iMg8Hjx4EBERwQ1aYpYQePfuXfrLYmcKNOyXIAiCyARMTEwSExO5IeDq6vrx40duEH8l3bt3X758OTeyDJIyBEHkDJGRkR8+fOAGkccJDw+3sLAQiURs4m/8BT9//jx+/DjfgvgrKVmyZLt27biRZSgkZb5//y75OJEgCEJ6LC0tZ86cyY3sxdvbm4eITMLHx2fOnDkLFiyYP3++rq5ur169EAA0JonIBhSa7RcVV0dHZ9WqVdwm/lZotl9CDt68eXP58uUtW7ZwOxspWLDgp0+fyMtmEY0bN166dOnAgQO5TRDpksOz/erp6ZUoUYIbxF+MugA3CEI6mjRpkiM6BlStWjV//vzcIAgij5O71mDy8/P78uVLfHy8jo5OzZo12fwERPokJibGxcWhXVbOuWV+ceG0tbVz6sNagiByFbnqqczDhw8jIyO5oaSkoqIC/1KjRo0iRYrwqDwFG43EjSzAy8vL3t6+bdu2mVU+t27dunTpUvpDpv6c5SQ9PT337dv35s0bbgtPgEcKKJ7JHCEwMPDz58+GhoZZ7eBv3ryJrq2ZmVnZsmV5FEEQRM6Rq6TM6NGj4Z658Rv0k0eNGjV27Ngc7AHKwZkzZyDLpk6dyu0sgDmUo0ePVqtWjUcpBnyTubn5jRs3uJ0aOfyCKbP48uXLjBkzXF1dZ8+eff78+WvXrm3fvr127domJiZ79uzhG+U1Xr9+bWxsTJNdEgRB5Cy6uroXBOBfoAY2bNhQuXLlEydOnD59mm+RR4BPFM9AmFcYPHgwipobWUbOSxmRSLRmzRr83b9//6BBg0qVKqWtrd2kSZOtW7dC2l+5cuXTp098U4Ig/iDQhzl16hQ3CCLLUFVVLSkA/1K+fPk2bdrs3btXX1//5MmTydbe+fnzZ0xMTFpLg6WfCuIFuJERiYmJaekSOMTo6Gj85XZmgNNOSEjghgBiMv0oKVFTUytevDg3sgyFpIytra2TkxM35OX169eenp6jRo1CDeNRAvny5TMyMqpaternz59h2tjYoNoh8OzZs+XLl+PQCKNWQWgbGxsvWrRo9+7daBl//fI3b9++3bJly4IFC1auXHnu3DnJSoODbtq0iSVhD3FxcTzhv+BYSEWFu3jx4pIlS5YuXXrp0iXJeoxKYGVlhZ3gBPbs2SO+K44dO/b06VMEcNyjR4/iPKGmsTeWCl6+fIkYybsIB7p16xYL42a4du3asmXLFi5cuH37dhcXFxYP3r17Z2pqisCLFy9WrFgh+UqOgVMyNzfHCfz48YNHEUSuBHfBkSNHuJG9nD17NqtbcCI3o6GhMX78eLTtDx48YDEInz59Gt3prl27duzYEc3v169fWRKACIADGjhwIEtFm+/j48OS/P39R4wYcf/+fUR2EoA7YG4rJV5eXtgY7fbatWuxZZcuXUaPHo0bgScrKcFPwTX07du3W7dunTt3/ueff4KDgxHPjoIAPA4C1tbW7K/wo1/MnTt33LhxYvdkb2+PDeCgnzx5ggAcKE4eR2RLSWCfW7du7d69O47Su3dvCDvJ4USSXL58GT/P/QtQKCRl4KTNzMy4IS/sKrZv356ZktSoUQMuGcWN8Pv376EnUKCoYXDnKHdcDFy5AwcOoEkqUqTI48ePJ0yYIF5WHhdg/vz5bm5u0INQEocOHZozZw5rvLATVDXonhIlSkRFRe3fvx+aJtUBQ6hwV65cmTlzpqWlZdGiRcPDw/8VYKmo+osXL4ZaQgAngKqMe4PJDmSK6Sqc6qtXr/Lnz486J/kwExLnzJkzTO6AiIgIZCQkJARhSJDJkyfv2rULAktbWxu7ggkJxbZEBcVvURTQVdBzyeofzmTNmjW4LpUrV86jg9qIvwd0jnFXciN7GTt2rKSjIv5C6tevj7/iSRp37twJYd22bVv0itFLRAcbLT8bIQDvAMd//PhxiBikwgfBsyD1+/fvSEWrC1mDPidkBJpxiA9fX9958+YxCZIMdFOx8caNG9G8r1q1Cp4IDT40ENsYHgphtPD9+/dH3xguDBIEGgUuTEtLa8yYMdimevXqCNSrVw/n9vz5c2GvSugVw9fA6bi6urIYOJewsLCqVatGR0ezI9apUwfaqFKlSvjhjBkzsAE8C0TMkCFDLCwscCemfEQE94fTaNq06bBhw3hUrgUXCcUnH8jn3bt3uSEvqBCQitxIm8OHD0Pu9OvXD64dNQYxuMwdOnRwcHBgG+CCTZ06Fdv4+fnBxOWZNGkSSwI41VatWuFiI4ydTJ8+ncUD1BskoUJzWwLUTiRt27aN2yKRsbExzhZ1F2HILBzO0dGRJaFGooYBlnrt2jX8FnWIpR48eBANN+oWwqjEOHNoZMgRlvrw4UNs7OHhgTC0CLZ88eIFS8LGUFqIwc0DEwdt164dsoBKzA5048YN/BbtMioibgxUVtR+4acEQaQO7in2aJ3ICgwNDdHd4kZOM3LkSLgDbvwXtKvTpk1DAMIFrSh6vCweQFugeYdwQfjTp09IRReRJQFIB4gedIMR9vLyQir61QkJCSwVLTli4LOYKQmkBpKgTpgXA+h+I+bBgwcIo/OMMPrhLAmwQ7OHiABhSC4Whujp06cP2w+0SK9evdD4nzx5kqUOHz6cjdy4desWfrVp0yYWD7ANYt6/f89tkQh+HDE3b95EmDkU9MlxGgggj+JTlQ/caHBP3EgD6BAFUeipDBwq/Do35AUqVcopSVBRJkyYAIWYL18+1DNcdVy82rVrs1RNTU3oSmxz7949mNgnNI1Ycffs2fPUqVOQqCwJCsPZ2Zkl9e3bF0n6+vrMTAaONXHiRG4oKUHYQjFERESg7FB7oEhq1arFkgoXLjx+/HjoYmgOFiMJ7hlcsLdv3yLs5OSEyoEbjFUmxEB8VBDAVX/8+DFuoWbNmgm/+/WiEaINm1lZWbEYKBgIpubNm0uOvYdsX7x4MYQdRDTaER5LEERqoH9Ccwf85fxyob8/bH7y5An+NmrU6Ntv0MLXrFnT3t4+1VT8qkaNGiyVARmhoqLCwmjJK1WqJPnaKBlo3sXf7JQpUwZ/0fLjL3tO37BhQ36Yb9+KFClStmxZNOy/Nv0vLVu2DA0NZY//4UHQ7MMZ2dnZwfQWgBARNvyF5NIB1tbWpUuXhi/jtpISZFmBAgXgeritpARBs2vXro4dO06dOlXBz4suXbo0efJkbmQZCkmZTCF//vxRUVGQINz+Lz9+/GDXmNGiRQsWcHd3x9969eoxk2FgYIDmiSXNnj0bcmH69OnQ4+vXr4fy1dHRKViwIJKgeOLi4qZMmTJ06NANGzbcv3+/RIkSac2XhQtctGhRbqC8hHqPPYeFhYWEhKDe4BBi2BjGVMcpV69eXVdXFxUOYSgY3AaoiJGRkWxjxEPrIACBD6WSLF+lSpXS09OTfPkKHcNDv1m9ejVOBjJLwWpHEATxN8BW3YFfwF/0e/F37ty5AySAUmHx/v7++Dtz5kyeIIB+MktlJOsMo9FO9QUTA26Fh4TOKv5COeEv2+Ho0aP5MQTQ8ZY8kBjoIfgjdOkhyGxtbSGAGjRoANEDZwoVhd2K+8OgUKFCPKSkBM9Vrlw5SU+BjUuWLAmnxm0lpevXr0NFYeeKf4QL5wVhx40sI+elTNWqVaEMxG/4JEFV6N2796FDh7itpCRWFbh4+MsqgSSqqqrYGwJQ0BCDK1asgNeHCEAnbMSIEWwgC2KQtHz58qZNm+K4W7ZsQRITQLJSvHhx6CcxdevWHThwYKrzu6DetG7dmkkZ3CGoc9BP2PLdu3eQzwEBAUhFEjt55OLXbyQQ54shqa4YKIrDhw9DkG3atCktXUgQBJENqAhwI7fy+vVr/G3cuDH+sib3wIEDR/8LGxnJ8oIGlsf+ZufOnYhnoAvKQwLoVcoxATqkCfrbfO8SrFmzhm8hgZaWVv369eFT3NzcwsPDIWXg9eLj4z9+/Agpg7CkYGKdcAayk/IzK5ywpD+dMGECchcdHb19+3Yms+Smc+fO+/bt40aWkfNSpmXLlvib6vw5bEwTq2rJgObF32TPPwIDAyMjI0uXLg2vD2kCj96lS5d58+adPHly7969uCqnT59GhUMSNujatev8+fMRs2vXLtSDM2fO8L1IB8QEdG61atXmSDB58uQePXpA0/CN/kvbtm0hznDOkPNsxBkqn52dHZQvdGv16tURwxaFSaarkCloHcn1YlI+elm9ejX2gH7Dly9f2KdeBJHLwQ0+a9YsbhB/EEeOHEEDy41cSVxcnLm5OZw6e3TBGu2oqCg06WLQ5/T09BSnxsTE8ASB9+/fS868J/mdKfwLTPRsuS01NWrUwDlAV/FjVKtWpUqVV69eST6VkRQW8J44yRcvXsCDwEHgPOGVnj17hnOTfLuUDOzW2dlZUs3AMeEQODq3hRcgVatWHTlyJG7Su3fv8thcjEJSBjrg+vXr3JCXevXqwaPfvn3b0tKSRwl4e3sfP34cl4dpnWTo6+tXrFjRwsJC8vEXm4enXbt20CuTJk2S/M6zTp06hQsXxsVDDZ44cSL7npkBVZE/f/6UKjV9IHJxYo8ePZJ8injx4kWoGdRFhJnakKx2qNnFihU7deoUKjp7T9mgQQNURNRU9nYJaGtrY7M7d+5I1l2UM36S/jrprAcAIdWkSZOzZ8+m+pSLIHIVvr6+6EFyI3sZN24cu0+JrADtW1qv7HMEkUj0XSAsLAzdwpcvX6LXhx7j2LFj2Qum1q1ba2homJiYsLdOAC4cHWAmUNALRQN7+PBhcZ2xtrbet2+f5LBI9MbRl0YAbT5abGwpx0DSDh06wLMcOHAAforFwMcdPXpU/LUdtBf7bIoBvYIe+6VLl+BD4XHwW/iUq1evIr+p+k1G586dY2Nj4R/Zyw04F2QNgY4dOwrp/2fMmDEVKlTYs2fPt2/feFRuRSEpAzHIxrEqyKpVq8qVK7d169Y5c+ZcuHABFw9lZ2RkhIu0cuVKySdjkixevDgyMhKSBeIAF2/+/Pm3bt0aPHgwpCUqZa9evVC31q1bd+3atcuXLy9atAiip3v37gULFkR3ATEbNmxAEirBggULsB/2ybdMQLVAPuMEIKEg6Xbs2AHtNWTIELbEJvsWevv27bt27RI25+oH9wDOkA05RLWD0n/9+rVYygBkBH+nTp2KvbHZZdB7wDlLvvhMB+QU2afXTETup3fv3jk1r8yZM2dyf+tMZBaQL30E+vbtiyZ6yZIl6IKiTwspwzbQ0tKCr/Hw8EAqAnAKxsbGVatWZd98oAu6fPlyCJdBgwbBW6GJxjZoxsePH89+DuBZRo8ejXj4BTTd2DIdMZEW5cuXnzt37ps3b+DI1qxZM2vWrJ07dzZu3Bgm26BSpUroP8O7sS9aSpUqhRj4L0gZtoGhoSFa/tq1a6NXzGJSgl7xwIEDz58/j+yvXbt2xIgR9+7dg8eRfCrDgIBDWUGWbdu2TcHXTFmNSqov4aQEVxqlnHLchqxAv/fo0QPe3cHB4eHDh5DDqGfdunWDWKlSpQrbxt/fHwUKwSF+t6Krq4u6AiGMS/vu3Tv8HNVOvGZTkyZN4NHfv3//5MkTXHUIC1QLiGskNW/eXE1Nzc7ODknoFOKSQ0KlWu28vb2hW6FhuS08iIOuRwx2jrqLOgGFhBOAHEEFQp1AbWYnULp0aSjrkJCQ8PBw5IX9vFChQsgIxC97nYSM+/j4ICOSS03htsF5YrePHz9mY2uwTwgmtgHuSVRcKBvxq2hsibOCnGeDmnGI4sWLQ8UjULFiRbYNQeRCcBum0+BmKU2bNqUP/f4S0MzWr18fHoHRqlWrfv36QY6gJyludUGFChXghrAxGlgom6FDh8JliD9z09fX79mzJ0ykwpsgdfr06fACSEILf+XKFcgC6CTWns+ePRuyif0wGejQon2uV68e2nkWg3OQjIFr6NKlC24NHAjxo0aNQq9e3NrDeRUoUADyBWKFed6yZcvCEcNlsFNFRxrAQZQsWVL4xa9hQGXKlKlbt674ORmOiI4xdsVeU+DQ6ACLX0hhe+wT+2fbIzvwI+xDKnFpyAScEXw6TpLbqSF5IeQjd62MzYB6SOtJDEEQBEHkHtDjRV8U8mXQoEE8ipDg+PHj5ubmbJKUtFBcyuRGxUA6Jk+QlJT0SQCdEh4lEBgYiMhkS9FC/rONaYACQfyRJCQksHs88r9TkPv7+yMS/p7bArGxsWzjmJgYHkX8oTRr1myEsORClkKigZCTkJAQA4Fz587xKIGlS5ciMtkIss+fP7ONxStLEATUMK0U9sfg4eHB7vGbN2/yKIHp06cjsn///twWsLOzYxu/ePGCRxF/KDVr1pQcVJRFkJQhCCJnsLCwGDJkCDcIIm9StmzZR48eDRgwgNtETqDQWJnly5cXK1Zs4cKF3Cb+JuLi4q5evYpA48aNK1euzCLB69ev0T8rXLhwz549eZQwMo6t+92qVSvc+SyS+MuxsrI6cuTIpd9LpWYnZcqUsbe3L168OLcJhYmIiGDPY1q2bFmuXDkWCZ49e+bj46Otrd2lSxceJTzTZYMn2rdvr6enxyKJv5YcHvYLEYMKumzZMm4TBEHkBdAHc3FxISdKELmBHJYysbGxysrKckzPTBAEkYOEh4draWlxgyCILOPVq1f37t1buXIlt1Mjh79g0tTUJB1DEESeg3QMQWQPLi4ubMXvLCU3zitDEARBEMQfQFhY2NevX+vVq8ft1Pgzp8gjCOJvIDQ01NnZWY753QmC+JPI4RdMvr6+QUFB3CAIgpCFO3fuGBsbcyN7sbOz4yGCIPI+CkmZTZs27d+/nxsEQRCyULt2bckv9rOTZs2aJZt/liCIvItCUqZ69erprxFF/CU4Ojqy9eIJQnrq1q27ZMkSbmQv7du3Z2vXE1nB+/fveYgghHm9eSjLoLEyRCYwZsyYkSNHdu3aldsEQfzF9OnTZ/ny5U2bNuU28Rdz5coVMzOz9GfCzOGxMgQBIiIiLly4YGJiwm2CIP5igoKCbt26dezYMW4TfzciAW5kGfRUhlCU48ePT5s2DQE0YfTQniD+cnbu3Ll06VJ1dfWQkBANDQ0eS/ytQGDEx8enXxPoqQyR8xw8eDAhIUFNTS3ZEtkEkT5OTk67d+/mBvGngAYhMTERDuzatWs8iviLgUzJBkWrkJR59OjR69evuUH8lbi7u7MhftHR0f9j7yzAqmjaMIxBKCIgSikqKDYKKnZ3d3d3fSYmYncHdmNjt4KBWKSSYtLdSJ/vfzwz7n8+4nCScu7LC+ed2bO7Mzv7zjO7szNwYSSSwRAF1BxbW1tq5C87d+6E/qYGQ3a4uLj8/PkTgZSUFGtraxLJYMgbqaTM5cuXb9++TQ3GX8np06cVFRVJ2NPT09fXl4QZjDzp2rXr2rVrqZG/LF26NDAwkBoM2XHixImSJX83K//++6+Dg0NwcDCJZzDkSilpXEnZsmUbNGhQpUoVajP+MuCtRo0aFRcXR0wlJSVlZeUuXboQk8EQjqqqqqGhITXyF/iubt26lSpVitoMWZCWljZmzJjk5GRiqqioaGpqtmnThpiMv5P4+PivX79WqlSJ2jnBFi5gFCR2dna9e/dOTU2ltoKClpZWWFgY6ZYxGIy/Cltb27Fjx3JSBlStWvXHjx/UYPyVnDlzxsbG5tGjR9TOCTbsl1GQHDt2LCMjgxp8kpKSnjx5Qg0Gg/E3ceTIkZSUFGrwCQkJefv2LTUYfyU1a9bMhxmG2FMZhoQkJCRoa2sjULp06fT09FKlSpUsWTI1NXXAgAFXrlwh2zAYjL+E8PBwfX19JSUluAJBhzBx4kRIHLoRg5ET7AUTo8AIDAzkBn3v37+/adOmLVu2RLhMmTJwXiSewRDCs2fPTp48eeHCBWozijJfv37lXiJs27atW7dupqamCKurq48ePZrEMxg5UsBS5uDBg6imY8aMoTbjb6VLly6jRo2aNGkStRkMEbC1tbW2tn78+DG185GePXtevny5fPny1GbIFHNzcwsLi8GDB1ObwRBKAY+V8fb29vPzowaDwWCIQ79+/WxsbKiRv9jZ2XFf3jEYjKKOVFJm+fLls2fPpgaDwWCIQ+nSpStWrEiN/OXNmzcGBgbUYDAYcuPz58/58BJZKilTuXJlMvCTwWAwihCNGzemIQaDIU8cHBxOnTpFDbnBPsZmMBgMBoMhFzp27DhnzhxqyA0mZRgMRsGQmpoaEBBADQaDURwxNDQcMGAANeSGVFIGnigtLY0aDAaDIQ63b9+eMGECNfKX+Ph4GmIwGEUfqaTMypUrd+zYQQ0Gg8EQBx0dnRo1alAjf6lWrVpYWBg1GAxGEUcqKaPEhxoMBoMhDu3atTt69Cg18pcyZcqwtSQZjGKDVFJm06ZNixcvpgaDwWAUEYKDgwvqO3AG46/C3t5+4cKF1JAbbNgvg8FgMBgMuRAYGOjt7U0NucGkDEMGqPChBoPB+LthDoHBMXjw4MOHD1NDbrDlJBkyICIiQl1dnQ2cYohFcHCws7Nz3759qc0oLoSFhVWsWJGNRmKISAGvweTr6/vjxw9qMP5iKlWqxHQMQ1zs7e23bdtGjfylQNaw/HvQ0dFhOoaRn0glZfbu3XvixAlqFHrc3d1Xrlw5b948hLt06aImwIYNG8g2oE2bNjSWj+DX5ubm5jSWz/79+2mCgoKJiQmN5SP4XUatWrVorJpa+fLlz549S+J5PF716tVpAj/p8uXLJCk1NdXAwIAm8JNu3rxJkhITEytXrkwT+EkPHz4kSTExMbq6ujRBTU1dXR1NBUkKDw+Hc6EJamoaGhqvX78mSYGBgRAiNIGf5OTkRJK+fv2qpaVFE9TUNDU1P336RJK8vb0rVKhAE9TUEIauJUlubm7YkiaoqaFzxund9+/fY/80QU0Nx0W/nCQ5ODjghGmCmhrONjIykiQ9e/ZMMElPT49bCPD+/fsoAZqgplalSpVfv36RJFtbW8GkqlWrpqenk6SLFy8KJhkaGpJ4cOrUKRrLp06dOjRBQcHa2prG8jE1NaUJCgp79uyhsXxatGhBExQUtm7dSmP5tG/fniYoKFhZWdFYPt26daMJfw3NmjUbN24cNfKX3r17//z5kxpFmX///ffWrVszZsxo0qRJST60PvHv5Q8fPpDNvn37hjuRJvDv5Y8fP5IkHx+f3O5l+Mws9/L3799JUvZ7OSgoiCRlv5cjIiJIUvZ7OTY2liQ9ePBA8K6El+Pu5Rs3buR2L1+6dCnLvcy9ZDh9+rRgUu3atUk8OHLkCI3l+0n4fJrAKLJI9YLp3LlzqAr5MJGflLx9+3bZsmVooQcPHtyvX78hQ4agaefuLoAboGzZsiQcFhbGNaLAyMioTJkyJBwSEhIdHU3CoEaNGtz7YDTJUBIkDIyNjbmnFLjDudu1RIkSSFJUVCRmQEAAN1UXkiB6SpcuTUx/f/+EhAQSRhLuQ66XAxcMQUPCSEJzC/9FTDga7v5HJJK4B3fwZcnJySSMXWGHXBIkS0pKCgkjSbD99vPz42ZBxGnjDEkYfP78mXMoyCzyRcIArjAjI4OElZWVa9asScIAfjMzM5OEUXrctCKohEiCvCMmLgenMLIkqaqqQgKSMCKRxFXgcuXKVatWjYRxFJwGlwSnxi0fiHPDyXNJ8GXQQCSMzH758oVLgrOGSyVh6EskkTCAx4cjJmGUHsqQhAH0HzQlCeNycN4foDGAZyfhpKQkwYea2traaA9IGBU1KioKMqh58+YkhiFbxo8ff+jQIdQlahdZ3r17N3bsWLg1VBXcMqj2uAtIUpZ7GbUXdZiE4WcEm3aZ38v4FZcE/wkvSsJIkv5eRqMDNUPCQu5l5Ajui0vK7V7GBsgy59muXbvWsGFDQUfHkBJcI/g6XBpq5wTXGElM8R8rA8mCO3zp0qVz5sxB80NjGYxCDBTz/v37t2/fvmDBgnXr1nFSlcFgyJWNGzdu2bJl06ZNc+fOpVEM6bh06ZKNjc3t27epnRPSS5ni7yLR04WaWbNmDdMxjKIC6qqlpeWbN2+uX78+e/ZsGstg8AkKCkLfjBoMmbJy5cp79+5ByqDJoFEM6VBVVS1fvjw15MZf0dvj3hAxGEUIExMTe3v7Ro0aUZtRiHn06FH37t0bNmyor68v+IJG5vz69atr165sDSn50a5dOzs7u2N8aBRDCvr27Xv+/HlqyI1iK2VevHhhZWVFDQajaKKrqztjxgxqFDucnZ2LTd/X1NR0+fLlLVu2DA0NbdCgAY2VAxYWFlpaWocOHaI2Qw7UrVv3+fPngkP7GYUcqaTMrVu3nj59So3CBI/Hmzp1KjeIksFgFEI+f/6MLgc18pelS5dyQ91lgo6OTocOHciYU3TrSaTM+fTp04kTJ06dOsWGT8mb2rVrm5ubU4NR6JHqfnj48CGkKzUKEw8ePEhKSoKaoTaDUcTZtGnTu3fvqFFc6N279549e6iRv+zatSs0NJQasoMoM8FP7mULPNv48eMFPyNiMBhAqi+YnJycypQpU79+fWoXGoYPHw5NvW7dOmozGEWclStXfvv27eLFi9RmSMe5c+dGjx4t22cbqampmpqaKioqkZGRcnpqAl/N4/HY7HP5xocPH8LDw6G5qc0Qn4iIiC9fvrRs2ZLaOcE+xs6ZatWqnTlzpkOHDtRmMIo4dnZ2EyZM8Pf3pzaj8PHixYuOHTv26dNH+Hen+UxmZqa3tzfaEmigcuXKNWrUiJvZSN4EBwd//Pjx169f0F61atVC9zJ/3oslJSW5u7uHhYWhadPV1UWWJZ5A6OTJk2hKCuo1aPHg1KlTNjY2T548oXZOMCmTM48fP+7SpQt7ncwoNkRFRVWqVCkuLk5NTY1GMQoZVny2bdu2ePFiGlWgvH///uDBA9euXYeIqaynC3+Y9OtXaFi4kaHhtOnTp0yZoqmpSTeVKeiFHz169NjRo4GBgXq6OmXKlMnkZQYFhygqKo0YMWLOnDly+igP2bx+/fqhgwdfOTiolStXqaIWIiOjouITElu3ajVr9uwhQ4aI+0DLycmpR48egpOmMsTFxcXl+fPnCxcupHZOMCkjM4KCgt6+fevh4ZGSkkKmwjQ3NxecEFNOJCcn47iurq64/3E50Ydo3Lhxs2bN8mFJo0+fPuFG/fr1K/ptZcuWbdiwYcuWLbW1tWmy3AgPD3/z5g3XXatZs2bTpk3l+tEHIS0t7d27dyjq0NBQ1HkoAzMzsxYtWuTDt/q+vr5oVz5//pyRkaGiomJiYoLj6uvr02TRQLVE35qbHVUU4II3bdoEGZSQkDBt2jQ4ZUSio2lvb5+ent4K/n3WLG6C6QIBda/YvC7p2LEjuu+oY6jMhw4dgjNBIbdu3XrChAkyqWNoEn78+DFo0CBq5058fDwUw/Xr15qZNWzexMRAX5drKlJSUz28/RydPkZGx+Ikhw0bRuJlBbrgCxYsqFpZt2XTRnVrGSn/8WPQGT8DQ965fHRy9Zg4ceKOnTtle995eXmNHTs2MMAfxzU3ra+p8f+5ZWPi4p3cPN84uevpVz537pxYrubnz5+GhoY4eWoz5AOTMjLAzs5ux7bNz+xe1DXUamSspapSOj2D5/k92u1zhEmD+nPnLxw9erT0BZ2d4ODgbVu3nD17RlWlZJPaFfUr/n4E6h+W4OwT+W8JxUmTpyxeslQe0/qh8Th27NihA3u+//hpVqtS3eqapUqWiE9Kc/OL+hIQ06d3zyXLVshpvnyItm1bNt1/8LCmgaapsVZ5VaWMzH99fsa4fo5AT3H23AWTJ0+WR8OGtnzH9m0nTxwvqZDRpE7Fqjq/H2wERyY5+0b+Sv133LjxS5dZcKsQyBDcWefPn9+3Z6enl7dprUr1DSsoli6ZlJLh7hfl/T2qS+cOi5cuR/tHt86L5cuXr1mzRvQG4MOHD1ZWVjt37oQih2bFgdBXhqiChIKsuXr1KloUS0vLJUuW0B/kO/fu3bO2tr5z5w61izLoAmlqaqIHAqX46NEjNKtt27YNCwtDt8TY2FgmX3ru2LEDgvjKlSvUzoXAwMDOnTsplSoxYkAPwRY9Cy4fvS7femhm1vjly5c0SjpQ22fPnn3pos2IAT0b1M11Zp2IyGibG/e/fveHsucWNJCSx48fDx40qFUzs16d2yoq5izN0zMyHj5zeGTvINZjs4CAgGrVqqEHwp7xy5UCljKbN2/G3VsI572IiIgQ5UvspKSkObNm3Lhhu3BY7Sl9jCtXosswEeKT0s89+rr1oq+Rcb3zNpe59TtkwtmzZ+fPm92lie6CIbXaNPzPgxBcjadOwTuvfHbxiz924lS/fv1ogiyA+xg1YmhiTMiykbVGdDYsq/Kf2/5bcMKR234HbD9PmTJl+45d3FpR0pOWlrZk8cKTJ0/MGVh7en9jQz26TAzhV0rGpWfft9j4qlescuHiFdnOMHbz5s3pUyc3qaW+cKhxl6b6WW6ZV+5he675PXMJ23/g0JgxY2isLECLMmbU8B9fvZeNrDOmm1F51f8UZlDEr2N3/HZf9R04aNDBQ0e4JcBkBer2uHHjbGxslJWVSUzjxo3RxezUqRNEDC6Hurp6amrqokWLtm/fTjbIfyBiIGUgaKidj5iZmaEPI8M3LNhbly5d0Pfo37//8ePHOde8bNkylPDr16+FD3sUBVGkTHx8vLl5U+0K5Yf371myZB7NQ1BI+Oa9Rzdu3AiVTKOkYOmSJefOnZ0zaYQQ/UTIzOTNX7mpfPnyISEh0j+bQZl07NhhWL8e5mZ5P265ef/Z05dvHB0dBdd8FUJCQkLv3r1lpfYYuSG9lJFKaYaGhqLbQY1CA5oQUV4MxcTEdGjX+ofnC6+zfSwnNsqiYwDantmD6nid7W1YPsrAwECGtdlyzeqF82dfWNXi2ro2WXQMwDXtaq7/cHuHPbMbDAD9+9MEqcE937KFeYc6/3481WNSb+MsOgYY6attndHY7WQv+wdX0ARyK1NKCfbTs3sXx2e2bid6b5lhlkXHAJwJzufjqZ5tjDNw7a5fv04TpGbfvr3jx47aO8fkwbb2KNXs90vbRjrX17c5v7I5Gn5TU5m9wvf29m5u3rimRrTnmd6zBtbOomMA6tvaSY08z/b59vF5uXLlBJcplQkWFhZLlizhdAyIi4tDnUfLirCSktLUqVNHjRq1atUqksqBthCKh1vKVK706dPH1taWGvkLND23uqpMICND69evD3Em6JfJMo3cqtHyZs6cOUqlSoiiY0BlPW2LeVPWr18Hz0CjJOXp06eHDh2aNnZInjoGlCpVcu/G5doVKyxfbkGjJAW+ZfiwYd07tBZFx4ABvToP6t112NCh0Po0SihqampMxxQJpJIya9euFT6Wp0CAh8qzmmZmZg4e2FdPNf7Jzo7ZRYwg5cqUPmXRol51jQH9+0ZFRdFYKTh69Ojhg3scDnbt3ZKu4Jobo7oanV/d9vadOzdv3qRRUuDv79+nV4/VY+vsnN1EWVHYSxzjKuUdD3VDYMK40SRGSsaNGZkR/+PFvs41qwgbsqqiVGr3nKbdm1UeOnRoQEAAjZUCSKLVK5c/3d15ZBe6yHZu9GlV5fGurh8/fkJ/mkZJQWRkZK8eXSd0q3xiWQvUHxqbE1UqlX26qxMCQwb1Q50kkTIB5yDY70xLS0ORampqNmnShMTs27fv/PnzgsvV+vj4DBkyZObMmVZWVmiSO3fuLO8PN9DkC4qt/MTLy0vcsUrCsbe3x9+NGzdmeZbp5+eHv9lfX16+fHnQoEE9evSoV69ehw4dZDJHPhTJ9evXRgwUSccQqujrdm7bctasmdSWiH///XfmzBm9u7bTqfR7pK0olCpVauTAnkeOHIXop1ESsWPHdsXSJTu3E+kRC6Fjm+ZlVZS2bdtGbYaccXNz279/PzXkhlRSBp6xiH5PsXv37hD/z5csW+M2oFFC8Tjbv23DSgvmzaG2pHz79m3RwgWX17auWy3vvgsY3c3o0tr206ZMkn4I/ZRJ4/u10v1nWD1qCwUNcMTdEa9f2Uu/dsbp06ffOr68sb6NaraHQDnycGeXCb1rT5sykdqSEh4ePn3a5BPLmjerW5FGCaWruf7TPd0W/jP/x48fNEpS5s2ZZWqosmmaSLOeKymWTHg8OuiHL7QFjcqF9u3bx8TEUCMvssxA8+bNm4yMjHbt2uX2IPfLly/Lli3bsWPHhQsXTp48iQa4fPnyXbt2zXNkRhGlWrVqNCQLfv36BRmhoaHRqlUrGsUnJSUFEqds2bKNGzemUXw2bNiAJvzcuXMPHz709PQcNWrUjBkzhg0bJvxdv6GhofDnzfv37WveuJGmunhL93Vs08zb28fJyYna4vP06dOoyKg2zf+TxzyB7jEzqWttfZja4oMqffjw4S5tm4v1egLbdmnXAsclD8wY8sbV1TUfpif4G4cyJSQkrLOytF7YRMTGFaD2Y/ubt27iqtAoibBcvXJE5+qdGosxwnR45+rN62ps2byJ2hIBj/nR3WXXHDNqi0BFdeVds00tli6Cv6BR4gNnsXL50j1zTLXUxeh8757T2Nnp/ePHj6ktESixNg20hnYU43ufzk30hnSoimtEbYlwdna+e/fu4YVNqS0CEI6HFzaxWrsmMTGRRuWEo6OjxO+hnj17hr9CZqHdunWrnp4emXcfKCsrk+cES5YsSUtLI5GM3MClQSm1adMmy+BQFDtUTrdu3QRHhAQFBUEvjh8/nkx2gmZ42rRpI0eOvHbt2q1bt8g2OTJ48OD169dTIxu4T69fv96iiQm1RUZFWalJo3oXL9pQW3xsLlxoalpfggH7zRubXLgg+XFfvnyZnpZev47Ycx/XrWX0L+9f8iBNOKmpqWwRcinp2bPn6tWrqSE3iqGUgTcRPtr8/PnztatpdjDTpbZo6FcsO6Kz0REp+hCRkZHXbW8sHl6H2iKzeHjtM2dOSbNkjPWhA1N6G6mriveB97CO1UuXyJDmAxO4ZhXFfwe3F68HrFFOaXIvoyOHD1JbfJKTk1FiKDdqiwyuztVr16UZuWJ9+NCobkZ6WuINZoSKqlFZ3cZGcrcuHCJlhEwa6enpefTo0fv371MbWrZixfr16wcEBHz9+pVGyRpINw8PD2oUZcj6Ldk/RoOoxd8BAwYQk+Dk5OTr6ztx4n+eO/bq1Qt/hUsZ4Xh5eUEVVdaTZPq7apX13jg6UkN83r57W91Akrd11Q0qx8bGSvw2GSVZrYqeWI9kCPhJ1cq66HVQO3fCw8N37NjBPsaWBl1dXfmtSsYhlZSJiYnJn+GBYlGjRg3hHfrbN66N7ZLHOJUcGde92s0bko9SfPjwYYMaleqI9mpJEKiuskolX716RW0xQX/x4aPH47rnMV4kOyVLlhjdpeqtG5IPwr198/qozlVEf3PPMa6H4f0HDyV+AozumrqqYttGYrv1+oYa9Ywq4kpRW3xu3bwxtqskLy/Gdq18y/YqNWRKfHz8hw8fKlSo0LBhQxrFH9/w6NEjavBfeSxevLhz587U5oNmBn/l9xIZLf2cOdK+tJWMnz9/0pAsIP37Tp1+D3viQO29fv26oqJinz59YEK3ffnyBYGWLVsOHTo0i5QhHRVpvhnEzivrS9KuAx3tit++S/5eFYWpqy3Sa9wsKCqW1tGuRIYTSQBEto62qKNzsoATJpeDUTyQSsqsXbt2165d1ChMtG3bloZywsXV1byuJDdA41pakdExEn+M4OriYl4r68c7ItK0jqaLiws1xAQd3zIqirUMxJZQoGltTRdnyb9ucHZ6b15HkqKuW01DSbEUOprUFhP0t8xrS/idbVPjcq6uEhY1+pcxcfGNa0kyG1DT2lqomdSQDsiU58+fc8+WECYDZQSfVjo4OAhOdoJmeNu2bYLzu6MM/f3927dvz711kjlGRkbSf6IsGfXq1QsODqaGdCQlJUEpampqmpj85+XOnTt3IiMje/fuTWaHgqwhvRFtbe3Lly+PHz+evxWFPDYbOHAgMXMER8EPqZGNzMxM4U+jhYDOhjQPHni8fyWTUADnLPGAd5yzNFmW7UB7RsEilZTR1dXNt+U8ZAW6ShFRsYZ6knQ0y5UpXalCeYmlDH5oqC+hlDHSLy+x58Vxq+lXkMzVGOmrBYWEU0N88Nvsn16LAs4W5xwYGEhtMUFZGeqLN/iR43eWpbjE2lrls3/lLgo4blhEtBD3umrVKhFVxfLlyyFNuIlcyRdwgsspow3Yv38/+TA7RyCG5syZU7FixVOnTtEoOdCsWbPNmzdTI3+pVauWrGabhSiEUkT3KUuzSt4uTZo0iZhPnjwZOXIkCWfh5cuXFy9ehLjp2bMnjcqJFy9eCJmnoFy5ckmSzp6QnJKqqir5zEZly5ZNSU2lhpjgnHHm1BAT/DAlRcLjIssSH5dRCJFKysBjFsL58YCQpkj4NwKiIPEepDx0kTsukO7IRS/LUh4XCNmDpaWliJ8uk0nnWrdujb9oJlNTUw0MDLgvs6CWLCwsJkyYAKVCYrKzevXqnz9/ojEWa52EIoSrq6us5scjA2WyD6kmzznI1+9QKs2bN1dRUeGn/IfIyMipU6f27t3b2tqaRklEw4YNQ0JCUyUaox0YHNrwv4+UxKJ+vXrYAzXEIS4+IT4+PsvTLNHBD4NCJexo4YeC71tzA5WELecnJffv38/yOlUeFMMrFBAQUL9+fWpkQ1FRsbyaami0JLNjpaXzomMThTQAwsEPQ6MknJUrNOqXlpaEb4V/HzcynhpigoKqWEFyj19RS0PyLEfGizJlc47wi1rCHurvLEtxiaNiEtMzJHlWj+Oqly8nkxWRVq5cWbduXUNDwy1bthznA3Hz4cMHiKFTp04NHToUzSoZZ5oj2Mze3t7Jycnc3JxGMXKHfMaMBo+YHIsXL0YFfvz48cGDB52dnXPs9UVERHTt2nXYsGG3bt2ScoqdypUrV61a1dNHkvEfn7/5d+z0n2FSYtGlaxffL5KMPfLw+dLQpKHET0fatm37/UdAYpLYd3rSr+RvPwJEGYuKc5PyU0pGXFyc9JOJ5EkxlDIpKSlC5vEsUaJEI5N6Lr6STHb36VtM2bIqEq8bYmpm5vJF2Ne2QnD+HGNmJsan1II0atQoMiYxKEKSpt3ZN9rMTKT5UXLEzNTU5bMkRe0flhQT/0uUblOOmJqaosSoISbOfgmmphIWdc2aNZWVlTy//x4tKy7OvlFmjWSzpuaIESNevnxZpUqVbt26nT17tkyZMg0aNPDz80Oridp75syZwYMH002zsWrVqpCQEEgZMoOci4sL+s0kiZEj27dvf/jwYfZHCyhzMp0PasWOHTuyD+kNDw/v16/f2rVr169fT4aMfP78maZJxLTp0984faSGyASHhn/77j927Fhqi8/EiZM+eftGx8RRW2TeOn/EOVNDfIyNjc2bNXP84EZtkXnr5N64sVmdOmJ/TMqQgCFDhpw+fZoacuNvfG7WrWe/Ky9CqCEOV+z9u3bpJvEAN/TbHD8Gh4j/lAIS6mdIvMTfs6mqqrZq0eyynSRfKKCguvXsSw3xwW+vvJDkyTPOtk0rydesbt++/dfAWK8fYkuKwIhf7zxCsvewRQR1o0vnzqgn1BYHflELW2+refPmon8lrqWlhVwIzsxWunTpNm3aoGSEfJG0fPlydEOPHj3KLcy+c+dO+T1d//r1az74OHkD3QzJSI3/AuE4efLk7t27U1uA0NDQ0aNHHzp0qP+flUm+fPly8uRJEs4RSCLhqzpPnTo1JDzSzcOH2qJx44Hd5ClTJH7oC6pWrYrm6uZDO2qLxhsnt5TUdGkkFIDyfvbqbVy8GB/SxickPnnxZtUquc90wiBAxEtTu0REKifl5OTk6elJjaIDnMtz5wDvn+L1IRKTM049+DZthuQzfBsaGnbs0O7QDV9qi8y+a5+HDRuioaFBbfGZNmP24dvfxH3x8cIt7EdIPLr41BafUaNGfQmMdfgo3vvstHSe9W0U9Wxqi0+FChWGDB6077rYfVxcnS6dO0ozFey0GbNO3P+WlCLevIKe32NfuQYKf6Ps4uIi+my/ErBo0SIcQlNT88gftm3b5ubmJr/RkW/fvj1x4gQ18pdz584V4GQhwcHBffr0GTlyZGRk5BM+Dx482LRpU926dekWOTFgwIA1a9ZQIyfQYOzfv//KrUcRUaJK3gfPHBISk6UffL1nz96fgSEvHD9QOy+CQsJv3Ht25OhRwY/mJAAysV+//mev3M7IEOlzpMzMzHNX7/Tq3VvIC1ZBUlJS5s2bRw1GIUaqlbFnzpyJm2fDhg3ULhx8+/YNfRfhSyEumD/X1eHW8z2dRJ/yZO5ep09h6nbPX0n8VAa8e/euc6cOzsd6ij67zBuPiC4Ln7m6fZRmvej09PQmZg2HtVJdPV7UEXap6ZlNpj4eNWne8uUraJRErF+/7tr5w05HuikpiqqbrU59tH2f4uTiLs3AEV9f3yaNTe32dGleT9SBL1C3Tac+sH/+UpoxIribOrRrbaafuHceXe0oT3i8f9vPtzPvMGjnrj00KifQufHx8alRowa1ZYqFhUWOq9L07NlTfitXBwQEvH//XsjbLvmBqvXly5cCGdQcEhLSvn37HCc1gX+QfnzS4sWLzpw+PW3s0Mp6WZeqzcJDO4eXb5xfvHzZqJEMFlJ1dHTs1q1rr85tO7RuRqNy4UdA0PHz1/9ZuEgmk8DC1bdv3y4lKWHCiAFlVISNN0pJTT1z+XYppTKvXr0SUUKhiqJjk5GRwUb+yhVpWlWCVFLm1q1b6LFlmVarMAD/2KyZsNspMTGxaeNGvZqU3T1HpAnmzz78Om+/6/sPLtLoCYLFsiW3r55xONBFlLn8A8KTWs588s/S1dIv2+nk5NSxQ7sra1v3ymsZS4AaMW7jm89RZR0c30s5EBUqqnVL83o6KaeXtxSlut51DBxh9frFS4csy9ZIwI4d2/fv2ux4qGsVoSuGEiLjUtvMeTpw+KRNm7fQKEn5/PlzM/MmB+abje0ukuxYsN/5oWuSk8tH4e5VrlLGzs6OTIiXBUNDQ4kHaRVmli1bZmVlleMnRfIG1SO3JWlmzZpVtqzkH0VzWFmt3bp1a7cOrTu0MldSymHavZCwiBv3n8Ul/Lp7755MdAzhzZs3Awb0r6xbqX+PjpW0cphdCWLi2ct3dg7vNm3a9M8//9BYqYmPjx86dKibq8uAnp0a1qud3c/AoXl4f77xwK6BScPr168LrqIqHCZlpCc5OTkqKkr4RBIFLGWKNOgVtW/bql/LSug9C1kpGmWz56rX6hOfbG/c6tq1K42VgszMzBHDBnu5Od7c2LaWgbC5T1w+Rw1c5dCzz+DDR2Swai64cuXK5EnjDyxoOqGnsFVLEpMzJm156/oj48Urx+wr+kpAcHAwirqJkWKeK0Wfuv9l7l6nU6fPDRkyhEZJx/Spkx8/uHFjQ1szY2HT1vn6xw1Y6WDSpM3Fy9dk4rMeP348eNCADZNNFghdvzM1PXPuHqd776Oev3wtOO9LjkBT+vn5QVtQm/GX8e7dO2jZLHPr5Yajo+PMmTO+ff3WxLR+tcp6OtpaJUuUTE5JCQwO8/3288u3H5MmTd6yZUv58hJOv5QbaLQWL15sY2NTx7iGsZFBFT0dFWXlTB4vNCziR2CIs7tnQxOTw9bWMtfHaMWOHTu2atXK0qVKmdavVUVft4LGb70SExcfEBzq7vk5LT19/foN06dPF6vV9Pf3r169Opy29G3tX8v58+dRHwQXRckOkzJSgWo6dPCA+KjATVMa9GtTtXSprKX50j1szUnPb2Hpl6/atmghxjrywvk9sceyJYcPH142qt7MAbUqaWTtGgZF/Np7zeeAre+KlatWrlxFY2UBmtixo0e2qKexZlz9ptnm4UXLetX+54pjn4zrmKBRl/hb6OyEh4dDwH3z89w0xWRox+rZXzZ98I60OuP13if2vM0lmUhGAur2xo0bNm/aOGdQ7flD6lTO9ngmPCbl8E3fbRe9Z8+evWnzVgmWxMsN9FCHDx1krK9kNaF+9iUUMjL/ve3gv/yYh3rFKlev36xatSpNyJ3Nmzejkcj+IQzjL+HUqVPnzp2zsxNjdC0q4cWLF9++cfz+4+e/PF5Z1bImJiadO3cZN26cxDMOiEJoaOiZM2fs7ew8PD1TkpNLlipVw8iwVevWo0ePkf5pqxDS09Nv3rx5+9YtJycn8gEwstm4SZN+/foNHDiQG8wuOq6urp07d5ZmUTbG06dPb926tX//fmrnBJMyOfPjxw9dXV1Rnh5DVaCI9+zanpGW3NGsomkNDdUypdPSeZ4/Yl99ig2LSZ4yZeqq1ZbyWIbm9evXq1cue/P2Q6emVRrXVCOt7M/QRCe/xFeugV06d9i4ebsMn/1yoNtkuXrl2XPnalTRaFVXvW718qVLlYxLTHP7GvfMOayCVsUly1ZOmjRJ5r0QVLMTJ05s37oxNia6U2Nts5oa5VUVMzJ53j/iX3vFfQuKHT9unNX6jWSWd9ni5ua2cvnSZ3bP25pVaWpcrpru73Gs0IvOfgn2zoGtWzVfv3GrPGbQT0hIWL9u7fHjx3UrlGlrotHAUEOxdMmk5Ay3r7F2LhFKKqoLFi6ZM2eODPUToxgDXdK/f3/0CqjNkD8+Pj4HDx4U3gwzpIdJmZwZNWpUgwYNVqwQdbwqj8eDcnzj+PrTx4/JKcmlS5WuW69uU/PmvXv3ltXs5rnh6+v76NEjNxensPBwXE59PT3Txk1xXGk+ohEFtLJ37txx/vDO78sX6LlyquVMGjVq27YdkLmIEQSV7cWLFw4OLz+6uSf9SkIrXsvYuHHTZn379pXfsoUECNz79++jqINDQnAaOtraKOoePXrUqlWLbiEfkpOT79696/ThnY+3T0ZmRhmVMiYNG7Zq3Qa9vb/8BbyDg8OlS5cOHDhAbYZQUlNTNTU13717J/H0uAxG4aSApczZs2fLly+fZQn7wsDVq1eXLl369etXNlaLUTyIjY2V5mv8wsmVK1esra3FemMiK8aPH3/o0CEpvwTOf8aNG4dqsG/fPmozGMUC6aWMVC3927dvnZ2dqVGYGDhwYGZm5oULF6jNYBRlzp07J/GsfYWZfv36HT9+nBr5i42NTT5Mpi5zVq5cmefwcIasED6jB6NQIdVTGV9fX2Vl5cK54Ny1a9dmzJjh4eGhq6tLoxiMIkhwcLCJiQmafAh0GsWQmsePH+c2RS+DAdzd3du1axcaGirvMQbFHn9//0+fPvXu3ZvaOVHAT2Vq165daBfOHTJkCKRMSIgkCxQwGIWE2NhYKJg+ffowHSNbmI5hCAGt7+DBgxcsWMB0jPQ8ffp09+7d1JAbf/XH2AxGIadTp06qqqrXrl2TctlkRjHjyJEjP378sLKykuADY4ZwPn36hJ5Dly5dDh8+LNdvIP4SvL293717N2HCBGrnRAEP+y0qxMfHP3v2rFevXqw9YBQtUG/btGlTXOttZmZmQkJC8RvOnA98+fJl+PDh6enp+/bt69ChA41lSA2KVE9Pb9asWZCJTMfkG0zKiAS6L9AxkZGRY8eObdu2rbm5eeXKlUkSj8eLiooiYVC2bFnuo4YsSYjn5hSHCxacNKlcuXLcc0ghSRkZGYLLAaqpqXEz3+D+EZw2vnz58lzrJSQpLS0tLu7/i2Kqq6tzXbTU1FQIOBIGaC24qdWEJKWkpKBpIWGgqanJrVqQnJycmJhIwqBChQrcbChCkn79+pWUlETCQEtLi/umDPGCo+oqVqzI1WbBJETiV1wSDoTDkTAiBaf5wpnj/ElY9CQUBQqEhHFuOBYJA5QtSpiEhSQhs4Jz4eBi4ZKRMEoPZUjCAFcfdYCEc0zCXy8vL09Pz/nz58tvEcfCw40bN6ytrR89ekRthjigmm3ZsmXPnj0GBgYoSW4aaMFqhltbUCnCNcFBkTB8heD8/fB13Pqa8DCCswALSYJT5ZoPeDPB+RQEk+ADBetzbkmIFByLLaI3lsxRc96YO2i9enRibtza7FlXPsN5eMnBhURVkAyyBB01Cj2PHz+ePHky6quxsTGN4vH27t1LC4JPjRo1aAKPt3XrVhrLp379+jSBx4Ngp7F8mjRpQhN4vCyT2bRu3Zom8HhZ1lHq3LkzTeDx0AmgsXx69+5NE3g8nDON5TN48GCawOONHj2axvKBSRN4vCxL9GEnNIHHyzL8avbs2TSBx8uynNaiRYtoAo+HjNBYPitXrqQJPB6yT2P5rFu3jibweCg0GstHsLZkWUsInUuawONxQpNw5MgREg/HJKhCwJkzZ0gSmXKDxvK5cuUKSYL6EXS+4Pbt2yQJbo7zlQQ0qyQpLCyM83qEFy9ekKSAgADBxyS4Cd++fUuSvn79KjgbLwSQq6srSfL29hacCg9hqBaS5ObmRhQeHCjq5/Tp0yGwSFLx5uHDh4L1OT/R1dUNDw+nRlEG1fvChQsRERHEdHZ25noLALXx+/fvJMnR0VGwwUAdDgwMJEn29vY0lg9qPlc4uEY0lg/UAMQ6Sbp58yaN5QNhhE4ISbp06RKN5QOtD31Akk6fPk1j+VSqVInEA+haGssHEo0m8HhQbDSWj6APh56jsXxMTExoAo+3du1aGssHnViawOMtX76cxvLzO2bMGJrAKAigQ6REqqcyixcvRh0VfSa6wongswG0JYKrJ+aWhBLjng0AyZLgSri2DdeSe2wAJEtCr4jzYmj1uYcNQLIk3OGc70MnhnsOASRL4npLQEgSupvcgw3sCjskYSBZEg6Ew5GwZEkoIu4RGkApoaxIWLIkXERBPYTriOoheHSGXIHw9fHx0dHJuqBEMQB1CZ6BhLNXM1GS4LLguEgYwGtxbYRkSVBUghJfSJKgyxWSJOhXgTSOOstNyigQ4HtpSFKkkjJwzTgDwerLYDAYhZ/4+Pgsz+oYDIY8ePPmzZMnT9asWUPtnJBeyvz/UaQEQNQzHcNgMIocTMcwGPmDr6+vg4MDNeQG+xibwWAwGAyGXIiNjfX392/YsCG1c6KAXzAxGAyGxERFRXl5ebVt25baDAbjr6SAXzAFBgaGhYVRg8FgMMTh0aNHK1eupEb+4uLiQkMMWePh4eHj40MNBiNfkErKbNmy5dChQ9Rg/H34+vrSEIMhPiYmJn369KFG/tKyZcuAgABqMGTKiRMnTp48SQ0GI1+Q6gXTwYMH1dXVx4wZQ23G30RkZGS/fv0cHR2pzWAUHXr27Hn58mU2+FfmZGRkVKpUqVSpUmFhYdy0EYy/GQiMzMxMwY/ns1PAL5hmz57NdMxfi42Nzdu3bz99+kRtBqPo8ODBA6Zj5AEKNjU19devX0+ePKFRjL8bW1vb4cOHU0NuSCVlGH8zZK019iSZwWBwHDlyJI3P0aNHaRTj70aaNz+iw75gYkjCx48fmzZtmpGRoa6uHhERIfzhIYPB+BuIiorS1dUlU1rDJ4SHh7O1QhkQGJC2glNLZ6eAXzAx/lpOnDhBljtITU198OABiWQwxMLT03PXrl3UYBR9bGxsuBZLSUkpy0pMjL8TyBThOkYmSCVl7Ozs3r59Sw3GX0NGRsbZs2chtBHG3yNHjpB4BkMs3N3dsyxJmG9s376dW7GLISsOHz7MLYeEAEwSZjDkjVRS5sqVK3fu3KEG46/h/v37qX9WneTxeI8ePRJcZJ/BEJGuXbtmWWQ+37CwsAgMDKQGQxZ8+vTpy5cv1ODj5eXFJphh5A9SSZnhw4f369ePGoy/hiNHjnBSBigrK9vY2FCDwRCZSpUqdezYkRr5y7Zt26pUqUINhiw4efJklq+vS5cuzT4LYMTFxXl6elJDbrBhvwzxiIyM1NPTIyP7OOrUqYMeGDUYDMZfRkZGBtxCbGws1AxxDiSgpaUVFBTEJpj5mzlz5gz6uo8ePaJ2TrBhv4z8BpUS2pcsio5eFwn4+PiwCWYYjL8WHo/39OlTJyend+/eDRs2bNSoUQjARAOWpdvD+NuoWbNm8+bNqSE32FMZhnhcunTJz88PgdDQ0FOnTi1fvpzEd+3atUWLFiTMYDD+WubPn6+oqLhjxw5qMxh5If1TGSZlGBLi5ubWqVOn6OhoajMYYoJ+/IkTJy5evEhtRrGASRmGuBTwC6YDBw6cO3eOGgwGgyEO8fHxBfXtW/fu3XF0ajAYjCKOVFLGx8cny9d3DAaDISL9+vUrqG/fnj9/HhcXRw0Gg1HEkUrKLF++fPbs2dRgMBgMcShdunTFihWpkb+8ffvWwMCAGgwGQ274+vqeP3+eGnJDKilTuXJlbW1tajAYDEYRwczMjIYYDIY8ef369enTp6khN9jH2AwGg8FgMORCp06d5s6dSw25waQMg8EoGFJTU/39/anBYDCKI9WrV+/fvz815IZUUiYlJYWsKchgMBjicvv27YkTJ1Ijf2FjfhmM4oRUUmbVqlVs8gAGgyEZOjo6NWvWpEb+gp5iWFgYNRgMRhFHqinyVq5cqampuXjxYmoXHRISEmJjY6mhoKCrq6uoqEjC8fHxgj02wSTEC85FoaenV7p0aRLG3rBPEgb6+vrcsiMxMTGJiYkkXKJECSSVLEkVZHR0dFJSEgkjqXLlytxMQVFRUdxy+VmSIiMjk5OTSRiRgqviCSbhKPgVCYOIiIiUlBQSxrnhNEgYhIeHc8tDIkfIFwkDuHvuwVuWpGfPng0ePJisV4AiQkGReBASEpKRkUHCSkpKaLFIGAQHB3MTmSsrKwsOGw8KCuLxeCSsoqJSqVIlEgaCSWXKlBH87CUwMJCrwGXLltXS0iJhROJXXJKqqmqFChVIOEtSuXLlUI1JGEdBEgkDNTU1DQ0NEsZp4+RJGAgmIbPIMgmD8uXLq6urk3B6enpoaCgJA8QjlYRRsIKtKfaGfVKDIWdwa7i7uxfU91PFGzZFHkNcuNZNcuDQ4b6LPWiqL168OGDAgB49esBs1aoVzT+fNWvWkM1A48aNaSyfjRs30gQer169ejSWz86dO2kCj2dkZERj+Rw4cIAm8HiCogEcP36cxKP9y+JJz58/T5IgR7jGlXDt2jWSBC3FtYWEu3fvkiSoHzTYNJZfOZ48eUKS0NBCAdAEftLLly9J0s+fPyEpaAJfAL1//54k+fn5cTIOQAC5ubmRJE9PT8El4qByvL29SZKLi4tgEqTMt2/fSNKbN284GQegVyBESNLz588FazNECQQWScqyDhnae6hDknT79m0aywdCAaqRJF25coXG8oGOQR0gSWfPnqWxfCCnSDw4evQojeVjYGBAE3i8ffv20Vg+xsbGNIHH27ZtG43lY2JiQhN4vHXr1tFYPubm5jSBx0NPgMbyadOmDU3g8aA7IXSowWAUKbZs2QIdQw3GX8/Tp0+hbqmRC9AhUvJXLFxw7tw5CwsLtOUTJ07s06dPo0aNEIniI6lAsH0Fsk0SLGG01oINdpFO8vDw6Ny5M3kakSVJyK+KVpJcKwbILWn48OGvX79GkzBmzBgaxWDkTmZmJvoS379/d3d3r1u3LolEj6J79+6kD5Oeno4ugeDDV3TqSB8Govnhw4fYgCSh94Ik9EAQxvZI4p6wYnvskHRv0N0SXCoS3RL8ivRhkpKSHj9+zNVtdEvwK1K9ExIS0LBxSeh6IYncfXFxcc+ePeNuPfRYunbtSpLQdbG3t+eS0GPp0qULCaP/9uLFCy4JPcBOnTqRMPpCDg4OXBL6je3btyfh0NBQ3F8kjBOrUaNGw4YNicmQOWh/bWxsHjx4QO2cEPTAklH8pQw6uO3atUPnePDgwVkaEoaUeHl5ZXlSxZAJ8PVXr15FV6Z169Znz54VfNjGYAgSFhY2e/ZsSAe4cegPtPpNmjQhSRAWx48fb9CgAcIBAQEjR44UlDKnT5+uXbs2wt++fYNiFpQyFy5cMDQ0RNjX13fChAmCUubSpUvkjfanT5+mTp0qKGWuXbtGXiW7uLjMnDlTUMrcuHGDvN599+7dvHnzBKXM7du3yWPmV69eLVq0iGuMIGXu3btHdBgkzvLly7kkSBm0i0RRIWBpacklQcpAYJF28datWxs3buSStLW1sUMSvnLlyvbt20kYJ6OhoYFDEJMhc379+gVZWb16dWrnBJMyDEaxJTIycvjw4cTd06jiRVBQkJOTUz58qFmM+f79+/nz5/v162diYsK6atIDfVatWjULCwuoPRrFkD8FLGV8fHyg04l+ZzAYMgcdGkdHR+5xejEDvX9ra2t0x6mdjzx8+LBHjx7UKILAaUvv/RnZcXZ2Hj9+vJqa2t27d7lvCBjyRvrKLJWK37t378mTJ6lRyLCxsZk2bRo1GIyiSdmyZYurjgHNmjVDs0GN/KVPnz4/f/6khozIyMgICAj48OEDdJKDgwONlQOXLl2qVasWNRgypUmTJlAzlStX7tq1a3R0NI1lFHqkkjKtWrVq2rQpNQoTaWlpixYtKtK9Lgaj2GNsbDxlyhRq5C9jx46V+ZfYq1evhkts3rx5r169Dh06RGNlzcePH1FoWb6nY8gQMiSoevXq6KvTKIYUQOILTn0iJ4rnWJnz589v2LDB29ubPYNlFA9mz54Nad63b19qMworM2bMOHr0KKQMAjRKdqBVgFTq2bMn/BuNYsgHNIsobcHZKBiSAV1oY2MjfMBfAb9gKrSg7CZPnsx0DKPYULVq1WPHjlGDUYjx8PDAX+67X9ly48aNmJiYNWvWUJshN9B8MB0jE8qVK5dlLjR5UDyfyhgYGNy8eZP7KJHBKOq8efOmX79+ERER1GYUSpKSkipUqKCpqSk4xbMMuXfvXkpKyuDBg6nNYBQL2FOZnLG3t2c6hlGcqF+/flRUFHrk1C4WODk5rV69mhrFAgcHh/T09Hbt2lFb1vTu3ZvpmPzk9OnTS5YsoQajECPVU5kbN26UK1eua9eu1C6yoASeP3/++rWDp4cHOj2lS5euXbu2ebPmPf5MiCk/vn379vDhQzdX54iISChTPT1ds8ZNe/bsKbh8kjz49esXenjOTh++fPmSmZmpqqpq0rBhu3btW7ZsSbeQG46Oji9fvvD49Ald2FKlStWsWbOpebNevXqVLVuWbiEfAgMDHzx44OriFBoahiuurV3J1KwJLrG8ZxNITU3FcZ0+vPf19c3IyChTpkz9Bg1at27Tvn17sfoiioqKnz9/Lk5zH1y8eNHa2vrFixfUzkfQPq1fv15FRYXaMmLFihVbtmzZt2/fnDlzaFSBkpiYiNv8w4cPX79+5fF4cNeNGjVs375D8+bN6RZyA6ru5cuXnz59gqvBbW5sbNys2e/bXHAFFXng7+8Pj+rs7EwejOno6KBbi9u8WrVqZAOxuH379vLlyz09PanNkA/SP5WRSsrMnDlTS0urSA9Aw+0NZ7prx9bEhNgOptqNaqirqpROz+B5/oh7+Sk6Pilz+oyZFstXyGO61ffv369Ztfz5i1dtzSo3qammX/F3Q+4flvjhc+I7j+BePbuv37gFfXGysQxBz36dlSV6G/oVVVvXU69bXb1UyRLxSWluX+PtXEL19fWXWqwaN24c3VqmnDlzZtuWDXAxHc10TGuUL6+qlJHJ8/kZ/9orLjgyaeLEiWssrbg1GmWIh4fH6pUWDx4+bmGi39S4XFWdcogMjvzl/CXhlWtQxw5t123YYm5uTjaWIdBqmzdtPHLksIaqYlsTzfrV1RVLl0xKyXD/GmfvGl5eXXPh4mXTp08XcWYzXLKxY8eSueGLB/Hx8ZDypqam1M5H0F2BiBc+A6kEoCfw7t07d3d3ExMTmFCxuLgFMuQiKipqzZo1Z8+e1dLUMNDX0amkVbJkieSU1JCwSN+vP6pWNVi5ctWoUaPo1rIDrcnJkye3bNkcERFhbFhVT6eSirJSJo8XGh7pHxiamPRr8pQpODF5DJ5wc3ODlHz27FlNo2r62hU1NX4fIiYuPiQ8yu/rj44dO27evNnMzIxsLCLe3t5NmzblFv1lyIkCljJQvpDYhXDqevRCRGmZ0E0fNmRgRMj3jZNNBrWvimaGJvBBqdi5hFie8gyKUbhy7YYMPzuHflq1cjm6bv8MqzN7YG09razdlJ+hibuv+hy97We51mrp0mU0VhbY2dmNHjnctEa5NePrtWrw/1WpCcmpmZeefV91wqNBw8YXLl6R4QxRkZGRo0cO8/rkumFKgxGdDVWUsrbHjh7hVqe9Pn5PunDxMpwOjZUF8Krr11lN72+8YEidarq/RYwgIVHJB2x9dl/x+eefhevWb5DhfKmohKhdBlolrSbW69T4/yuKE9LSebYvf6464amtb4jaJdeHcLa2tnfu3ElPT+/fvz9ZvgOtOKpfXFxcgwYNoKXyYVBeYePChQsjR46U7fS4CQkJuGXU1dVDQkLQnD98+FBbWxsyWlNT88iRI1mWlZWA8+fPOzk57dmzh9q58+jRo9GjR0PBdG3forpB1qqVlp7+wdXjod3r5s2bX7CxybJyrTSEh4cPGTLE18e7Z6c2jRvWK106623+9bv/o+eO0XEJV65cbdOmDY2VGjRh69evh1Jp26JJ+1ZNNdWz1ufYuPiXb5xfvHFaunTp2rVrRW84AwICqlWrlpmZKX1b+9eCWuHn59e6dWtq50QBS5nCCfp5cNC/fv2idi5gsw7tWnc10zj4j3kZ5Vx7uiib7Rc9lx12OnHixMSJE2msFEDHQEy4vn9+c2PbutXUaWxOvPeObD7tHpoZWX2UjyZt3NjRe+Y2ntpX2Pxa8Unpo9a/vvf6JzwyWVRFSkJDQ1HUDaqUOGXRoryqsB7q0dufp29/Y2VlJashFHNmzbh94/KNDW2b1hEmy7x+xNYfewuBjIwMmTRvkIwD+vddM77+4hH1hdyk0I6zdr8/fe+zr6+vsbExjZUdkC8TJkxo1qzZvHnzgoKCunfv3rVr10mTJm3atGn//v248du2bVuzZk1ubRqGNDx48KB3796dOnVSVVVdvHgxyhaRqampuLLQMW/fviWbScyOHTvev3+fZcn37Pz+fnPSpCF9uzVvImyJxF/JKacu3vD+/BUtjUym2EHPsG2bNtpa6iMG9lTmr0aZGy8cP1y9/Wj79u2LFi2iUdIxefLku3duTx41sIq+Lo3KiaCQ8M17fy99L7o0YVJGek6dOmVjY/PkyRNq54T0xSvLTkkhAdUOUCMXkpKS+vbuPqCl1kmLFkJ0DEAJLx1Vf+7gunPnzP769SuNlYLVq1ZCxzgc6CJcx4BmdSt+ONYnPj5eJtNhubi4jB835uKa1sJ1DIDauL2pfY3K5QcN6IOmncZKCvYwsH/vpkalr1q1Ea5jwLR+tTZOa2xpaenm5kajpGD37t03bS+hqIXrGFCvusbniwMRWGspg89cv3z5MnhQ/33zGi8ZKUzHANS9UxYtm9WrhCLKU3xDBNOQyGzYsGHatGnz58+Hp6hSpQp6zKhLo0aNwt9KlSohHr0lb29vujVDOp4/f46/qLoodqJjgLKysomJCSQIGkUSI1fevXs3adLEiSMHCtcxoGwZlZkThlfQUB84cKAEVSsLaWlpffr0rqyjNW5Yf+E6BrRvZd6zc9tly5bJZAzK5s2b7965NX/aGOE6BlTW01618PdkPxs3biQxeVK5cuUjR44wHSMNjRo16tWrFzXkRjGUMqKwZvVKTeWUPfNEfWe0b0GzcT2Mpk+dRG1J+fDhw549u23Xt6mkIdJ4Q7TBLw/0WLF8mZQqCnpi0oSxi0fU7dfGgEYJpWTJEh5n+8WG++/atZNGScr27dsSogJPWjTHPmmUUFaMNVk13hRnK6WKQiO9etWKK2tbZ3+plCPGVcp/OtN/584dzs7ONEpSpk6eMLpLtYm9alI7LxwP91RXSl5rmceDKGgRdKCpIQJv3ryJjY0VnOCEvPLv0aOHtvbvd4utWrWqU6eOtbU1PzEr0jdvoiC9Vi482Nvb4+/+/fvJQBmOqKgo/BXSHD58+JCGpAN6Yty4cd3at65XuwaNEkrJkiVXLZrx7YsfzplGScqmTRvjYqKHD+ghYqPfu2v7zu1ajh8/Xspq5uXltW7dugkjBmiUV6NRQtHVrrhs7hRImU+fPtEooaCIpk6dSg2GRDRu3Piff/6hhtz4G6VMWFjYwYOHjixqWkq0xpWwdbqpu5uLnZ0dtSXCynLl/CF16huKMbK1bSOd4Z2qb9qwntoScfXq1aS48BVjfi/3LyIqSqUOLDDbvGljnk8LhIC2c+uWzQcXNFZWFGOw6qrxDWKjQq5fv05tidi0cd3ILoatTbKOBxJCAyONuYNrW1muorZEPH361Mvz45bpYgxlRT20Xthk//4DwqeNQWpCQgI1RODixYuzZs2iBp9v377hL6QMMefOnYuWoFu3bsTkwFU7f/485A6aRholH+7evTtgwABqFHHi4uJcXV1RaMOHD6dRfFJSUjw8PMqUKaOn95/xUihkHx+fU6dO9e7dG31WmQhHXPFfiQld2regtggoKSoO7NUZaiA1NZVGiQ/yvn37jiF9u4o1Jr1X57b+P39Iueq7lZVViyYNq1URYxySQWXdVuama9daUptRLJBKymzatOnw4cPUKDSoqKgI/97v5MmTbc2qoN2itmiUV1Wc0LPG0SOS5/fnz59Pnz2fM6g2tUVm3uBal69cgb+gtvgcOXxgRl9DJUXxLnenxnoG2uUuX75MbfGBbzXUL9/BLI8Hv1mA7sHZHrU+SG3xiYmJuXLl2vwhYi+5h6vz+Mkzad4FHDl8cGJPI7Wy4n200rCGZsuG+mjYqC0Ldu/eXbv2/yvbv//+6+joqKio2KpVKxqVjUOHDiF19OjR+G10dLS8H8zwx+kVzEA9U1NT2U7S8+rVq8zMzA4dOmQZawVpi85A165Zm3ncVtu2bVPiA1OUcoDoEb5E7sGDB1s2bSTuYK+6tWqUVVGWpucA4VtZT8ewahVqi4aiYunmjRtK04JA3N+6dbN9K7G/PWzXssndu/fkNI0ho0CQSsqEhYUVwulHDQwMhL+CfXT/1vAOWb8oEYURnao+evRQYuf75MmTFiZ6lSuJPXuKqXEFAx21ly9fUltM0P9zcHw7vLMk352ioB7dv0MN8Xl0//aw9hIVdefqLx0ck5OTqS0mL168MKysbmIk9qcZBtqqzerrCR+hJgTUjcdPngzvVJXa4jCigz5qJjVkQZa289OnT+Hh4ebm5kLm75k1axbkzs2bN/PnA+k+ffrY2tpSI3/x8/OTuHblCBkoww2R4bh79y7+Zn/4NGnSJPSpoBrV1ER6MwLq1q0rZJn02NhYJyenJo3E/p60RAkFk3rG9+79Pk/JuHv3jkldUV+nCoKzRbmlp6dTW0zs7Oz0dXW1K1agtshU0qpgUEVflEfs0Ls6OjoFJbgZoiOVlLGyssqHd2ASIPzTVrePnk1qS/KZsUkNjV+/Ur5//05tMXFzdW1SU1S3lYXGxhqurq7UEJOPHz9W1CyHRpra4tC4VgVXVxdqiI+rm5tkRV1Nt5yGWhkR32dnxw3HrSXhJ6aNa5Zzc5OwqL9+/ZqamiaBhAK/i9pdWH5L8KGG+Dx79gx/O3ToQMzCALIj7ykoc8PHx0f6r6MFIQNlskgNHo8HKQNNmQ/rgKLOV9SqoFZOktvcQF/XxUXy2xyHrlpZkh4LJIVi6dJeXl7UFhMct7JeJWqISWWdivg5NXInMTER3XUmZaQB5SyTL1eEI5WU0dDQEL1LUUhIS0uLT0jS05JkYlllxVIVNMpJ/CAKP9SrKOFMl/qVVCMjI6khJjiubkUJJw7Rr1g2Ikry5/ARkTHZZ80REb1K6mKNchXkd1FLdInB7yxLcYm1NMtlmaBIRHDc2LhEIcNgz549K82UbkTKZFnmEP14GvrLMDAQafy7iKDv7u7urqurK/hGDzx9+jQ4OLhTp05kiqZHjx6hX0GSZA7qXgVJZ4hRL18uKiqaGuITExNbXk2kwfVZgDLX1NSQ+DaHS1QXbbRvdvBDiY/LEAt0wu/ckfzRvohIJWUKLQ4ODjSUDWn6tQSJ9yDloYvccYF0Ry56WZbyuEDIHkaMGCHWMAh4as5Zp6env3z5UklJSXBeMh6PN2/ePGowpABli8LMvho21Cf+jh8/njMhd0hYAk6fPj179mxqZKOg6jwoqEMXYJYZotOrV698WMu9GEqZr1+/Zv8og0NRUbFiBfUfIYnUFoeklIyI6HiJn0tXrlxZsuOC78HxWb6AEB0c92dwtGSPSL+HJOrrSvgIF1TW05YsyzhbnLPEc+DiGv0IEeNjH0G+hyRIc4nDo+KTU/OY1ihHUNTaFTVltS6Bk5NTzZo1jY2N4+PjYT579iwxMdHAwEBwRPyJEydmzpxJjYIgISFBfk8p8hMyUCb7KpK4CpCPZAFILy+vqlWrks/gJSMyMlLI88LfdU/Sp4lR0bG6OpKfmLZ2pegYSabxhP6LiIyU5jbHmVNDTCKjY0U5LpE7TPRIg46OTvYxZDJHKikTHR1NHGWhAreH8CnyGpuZOvlK8rLGxTdKS1OjShXxBupzmJqZOflJuJaHk29M48aNqSEmv+c+Tk7/EiTJlXLyjW7cRPLFifBb7IEa4uDrH5ealiHxElQoqw++Er4Xc/JLNDOTsKihFTTKq7n6/Z5HRFycfCIbC10gRqzPZW1tbaFd4ERUVFRSUlJ27drVpUsXxHBDLF1dXd+/fz927FhiFgj37t0rqMdCP3/+pCFZQAbKZB+HVL16dWgXZWXl5ORkCwsLuY4sbNiwYXxCYnSMJN85BgSHNZViDbImTZr4B0nyNVBIWETJkqWyvJUTHTMzs6AQCV8SBYeGi7IeE+TOmTNnmJQp/EglZaysrHbv3k2NokPfAUPOPQmihjice+Lfr7/k02D06NHD/XMYGmlqi8xL97CE5EyJhS36hd27dTn3SOzRyjzevzbPAvr2H0Rt8cFvLzwNkOCB0LnH33t07ybxOnzoH0fHp77+JLab8/4Z5/Elonv37tQWn379+597LEkzee5pUN8Bv7vvuYE+fVhYGDXyYvjw4Xp6enPnzkUrC72yZs2aCxcuYA8zZ8589uwZ7lxra+sdO3bQrQuIGjVqCPkyXK7UrVs3ODiYGlIDldmyZUvsk9p/OHfuXKVKlcaNGzd69GiUtjSPZPJEVVW1Q/v2H1zFHimPvp/rJ+8BA37Pdi0ZAwcOcvXwoYY4fHDz7N2rl7hfj3N06tQpOjbOPzCE2iITCCETGS3kczAOiJiClfsMEZFKysBXSvPqt6BA1fT6HvXKXdRWgRASlXzxybcZM/8z55hYwKkNHNB/1xWx7/mdl33Hj58gzeL402fOPnrna3ySeB89Xn/xMzWjpDSTmA0cODAp9d8bL8Vr2uOS0o7f+zZj1hxqi0/ZsmXRfuy84kttkdl52WfI4EHSLEkzfcasC4+/hUWL96Hvc9fQz/4xY8aMoXZOREdHJyaK+rauUaNGPj4+yAjUz5EjR9q0aYPq9/r166FDh/r7+/fu3RuR6up5LJ0hb8zNzTdt2kSN/AWyQ5obKgufPn3KcXweytzZ2fn48eO2tra1aok9y1EW0KwKfzwwe84cRyf3tDTxbnNnd09llTKoEtQWH1SqxKRkD58v1BaNX7+S37l8nJX76J88UVNTGzVqpL3jB2qLjP3rDyNHjCjw+s+QIVJJGQsLi+nTp1Oj0AAPhQ4KNXKifPnyq1avmb7T+VeKGJOmz9rt3KdPnyZNmlBbItZt2HT+8fcXbmKoqGvPfzp4RFksX0FtiYCfqteg0ZLDYnxjHB2fuuCA26Yt20uXLk2jxEdRUXHDpq3z97vFJIgxb+yig64NGzXmJqWVjBUrVz93i7jx0p/aIgA9cenZD6v1oq7PkiPNmjXr0aMnagu1RSApJWPGLuc1llay/R4Qexs5ciQkXYUKdOINXMru3btPnDhRhsu8F1GgMGS4IjQKVojIIJPgSU+/fv2yTN+cBfQ6ahrXuvP498AdEUlITLr10H7Hjh0SPxoBKioqGzdutL33NDlFjHegNx7YtWrZSspl8C0t13p//iqWiuJv77fWyoraeSHxtDcMwr1797iR7/JDKilTOKlSpYqvbx7d8UWLFlfUNxq94U1GpkgvP1Yfd3f+krR3v+TzzxJq1qy5bfvOYZYOnwNEGrni5BM1ees76yPHpX80feLU2esvgw9cF+mZEETeoNUOzVq0kb4KTp48ubF5y8GrHUQcDLvvms+t16HHTpymtqTo6Ogctj42YfNbZ1+RRq74+scNW/t6+45dRkZGNEpS9h88/P5zouVJd2oLJT2DN3q9o66BceGcookhb8jAvjxXwAXGxsbZP5ISBHLq7NmzTu5er9+L1GlJTUs7efFGly5dR4wYQaMkZcaMGQ0bNTpz+VZGhki3+bOXb/2++x8/cYLaklK5cuVDhw6fv3ZHxEEzwWERZ6/c2b//gIhf40dHR+vp6bF5ZaQhPj4exUgNuVEMpQyoVCmPj27Qi7K9efdHTJkeS+xDhb4LQKM+fce7Y/cD7j98kuduRQH9qklTZ7ae/fjx+zxe1V+1/9FpwVNLq/VDhgyhUVJQvXr123fvrzrpYWHtmpYubEL67yGJHebb/VvW4NyFSzRKOs7bXM5Qqdxh/rMfocLej+Cslh52sTztifOsVq0ajZWCYcOGrba06rTg2bXnebzhevQ+uPXsJ1Onz4FHplFSAN2J2mJ9x3/GzvfCn/yFRCX3WPLcP67s9Rt38vx2Cf5UVt835caPHz/u3LmD5pCMY12/fv3NmzdfvHhBUhky5MGDB6NHj+7Zs+elS7/vMjMzM+iJFSukevgKIHdwBW8/sr/35AVP6LoTEVHR+4/bVDGofob/xbiUQEVdu3ZdRVXt4MmLMXHC+mnQOrb3ntq9/nD//gOJv10SZMyYMcuWWew/fuGj12calQse3n77jp1ftHjxhAkTaFReJCUloRlmUkYa0H6dOXOGGnKjBC7SX3udEhMTp0+d/ODBvcXD60zpU1Onwn/enScmZ1x4/G2LjY9+1Zo2l65WrSrJbPS5cfz48UULF/RuWXn+YOMW9bMqJHuX0F1XP7/xjLY+epx8ySkrvL29Rw4fkvErctnI2sM6VVdR+k/T6B+WdOT2573XfMeNHb9rz14ZzsSampq6YN6cCxcuzB9ae3o/4yxTD6ekZV6x+7HFxlepXKWLl6/VqVOHJsiCq1evzpwxtXV9rX+G1urYOOvQrjceEXuvf37wLmTX7r2TJkm78rkgP3/+HDViaGjgN4tRtUd3M1JV+c97Ogjo43f8dlz26d27L65yuXJ5zzB248aNAQMGCB8tISWfPn168+aNkpISeWOSkZGRnp6uqqo6cuRIuoVM+fr168uXLydOnEjtv4mUlJS0tDTcYoJFjb/CB3DAV4tSAXAdoeOTkxI6tm5mZlK3dOn/3OZR0bGv37u+fOM0ZeqUnTt3STy4PjvJycmzZ826cuVKh9bmrZqZZVmtOi093cXdy87hfSUdXdyVNWtKstZBbtjY2MyaObOGoUH7lk1rGmb11V9/BLx84/z564+Dhw4JH5GWhYCAAHSrMjMz5XrfMaQvXqmkzE1nbz8AAKsBSURBVIcPH8qUKdOggRjrLecPcMe4T0R8iPLo0aOd27e8fPW6QY2KpsZaqmVKp6XzPL/HuPhG1K5Vc868hZDw8qjHuEm2bN6I1r1CeeXGtSpUrvS7df8ZkuD8OSolXWHChElLl1nI5DlQFuAura2tDx3YGxwc3Lh2xbrVNUuXKhGXmObmF+3zI6pH966Lly4XnEhNhrx69WrHts2PHj+tU13LrFaF8qpKGZn/ev9AUf+eW2LWnPnTp0+HZ6dby46IiIitWzafPn2yjFKJJrW0qun99rBBEUnOvlExCWljx45dZrFC4m/shYBu8enTpw/s2+X35atZrUoNjDQVS5dMSs5w84vy+BrZvl2bRUsshMyBVOxB5UdVRK2gdj5y9uxZNGnSDBDJf86dO/fs2TPUKGoLBTrp0KFDBw4cCAsLrVZFX1enUskSJX+lpAQGhYaEhffs2cPCYnmLFmKsoS06z58/37pli529fWU9ncr6umWUlTN5mcGh4f6BIZAF8+fPnzJlijyeL4aGhm7evPnsmTOKiqUNKutq8cdCRcfEBgSHpqamjRs/3sLCQtwpo759+1a7dm02XEbeFLCUmTlzppaW1oYNG6hdaBg/fryent6WLVuoLQLoQ799+9bDwwMdC7SmderUMTc3l3heE9FJSkpydHR0dXUNDw/H5cRpm5mZtWrVKh/WpsFBnZycvnz5gj5HuXLlTExMcFycAE2WG5BQ0JofP35E3uHRjI2NmzRpIsocD1KCfjCOi1yHhISgzmtra5OiFj5IXCagXkH3+/r6QkdC/aOo0YrI9jlfUSQwMPD9+/eDBkn+tb/E4B5HzZdmIYj858qVK9u3b0dForYIoJ67uLg4OzsjsxDWampqDRs2bNmyZT58eRoUFITb7dOnT+Q2r1WrVtOmTRs1akST5QYcOI6LXJOZC3R0dMhtLtkHa69fvx4xYoQ0S+UzRKGApczt27fRDHTu3JnahQb0XUaOHOnv76+iokKjGIwiC7QmlF8+qL2/B3TQ165dW7T8A+RIgwYN4uLiCmoNzr8QlDa0oygz0DByA+IyMjJS+DjrApYyhRl0PsaOHbtkyRJqMxhFli1btty9e1fIymKMv4Rq1art3btXmqmeGIx85vz58zY2Nvfv36d2TkgvZYrnF0zg8OHDVlZW6MdQm8Eomnh6em7YsGH79u3UZvzFTJs27dy5c9RgMIoCenp6sh3inSPF+QumM2fOtG7dOh8KkcGQE9+/f+/YseO4cePWrVtHoxh/MWlpaeie1atXj9oMuYFm8ezZs6NHj5bHhwiMLLAXTAxGccbU1LR9+/Z79+6ldvHCwcHBxsbm0KFD1GYwCg0HDhzYvn07hKMMP1Zn5EYBv2A6c+bMjRs3qFGICQoK2rRpk7+/GHPYMxiFgVu3bhVXHQOCg4N9fCRZhlB6xo0bl5Qk4TL1hYHY2Nhfv35RgyFrzp8/v3z58nPnzjEdU1SQ6qnMrFmztLS01q9fT+3CSmRk5LRp0+7fv9+pU6e2bdu2atWKm/87Pj7e3f3/E8xXqlSJm58NzuLTp/8vM6ujo8MtCBcdHe3p6UnCQPBdII7l7e1NwkBfX79GjRokHBERIei4q1SpYmhoSMJhYWGfP/9/qsqqVaty092GhIQIjvipXr06NxQcEu3bt28kDIyMjLjZMwMCAn78+EHCAKfHfWX98+dPQVWHTCFrJPz9+/fAwEASBigKbmKbr1+/Cq4kXK9ePVx6Evbz8wsN/f8S/w0aNOBWt0GmBBdzbtiwITcDGIoCBULCoFGjRuXLlydhLy+vqCi62gDUuqmpKTeDnIeHR0xMDAkjqXHjxmXLliXmx48f4+LoquNIatq0Kfd9ipubW0JCAgkjydzcnPsGxMXFhWvSSpYs2axZM855OTk5JSfTmaCR1Lx5c+5R84cPH1JSUki4VKlSSCLzZOBWQlJqKl2JBtsjiUxegqR3795xE1TgKEgifREej0eSkDXkHfVn9+7dXPEWY1CGqN7cXZCfoPxxW8lkUukCYcuWLSdPnjx9+jS8GY1iyIi1a9fu3LnT1ta2a9euNIohZ4gnlAappAwaKjQJRcUdoAm/evUq2gw0Xdxo6lOnTqHikjBAXl6+fEnC1tbWmzdvJmGAJv/JkyckjI7yrl27SBiYmJjcvXuXhLdt23bw4P+XakKDev36dRKG5jt+/DgJg9atW9vY2JDwqlWrBEfzQXLhxEh46dKlly9fJmHQs2dPnBgJz58//+bNmyQMBgwYwPXgZ8yY8eDBAxIGw4cPx4mR8MSJE+3s7EgYoHvKidFRo0a9fv2ahMGUKVNWr15NwoMHD0bTTsJg9uzZODES7tOnj6DmW7hwIU6MhOELBCUaOjrcygDt2rXDFSFhYGVlxc0mjjae00ao4ps2bcKJIYyKCu3CLeeBJHgcMhsydECTJk0EpcyBAwdwYgij8wqBIihljh49Siamg1pFSyAoZdA2EJkLmYUz5Dq+UCoXLlxo2bIlwpB0HTt2FJQyqFdknVHIR+xZUMrcunWLzCGJcujdu3daGl1WE03pvXv3ateujTD0Wf/+/TMzMzU0NIyNjVExULysOyhXnj59WqS/sIX8hQuC78KtPXfuXMh9msCQDniS6dOnL1iwAP0uGsWQDvh5NBDEG+dGAUsZBoPBYBQU0Mc7duxAj8je3t7c3BwxMTExZ8+ezcigK3+hqzlp0iTy5DIqKgr9JW7dShUVlcmTJ5Mnl+Hh4VDq3JpN2B5JZEHvkJCQS5cucUnlypVDEnk8GRgYeOXKFa75UFNTQxJ5PInWC104LkldXR1JpLn6+vUr9D2XVKFCBW7lCmTnzp07JAwqVaqEjhYJe3l5CfbN9PT0SPcGoJl8/PgxCYMqVapA3pGwq6urYLetevXq3Dow6JiRxcWQNZQMehEWFhYkiSFbTp48iSqKzgO1c4JJGQaDwfirSU9P557h/fjxY/ny5YJSZvfu3eQ18ZcvX1atWsVJmTJlyuzdu5e8C/bx8bG0tBSUMgcOHIA0QRhCYcOGDYJS5tChQ2TmXBcXly1btnDNR/ny5Q8fPkwE0Lt373bu3MklQShYW1sTlePg4LBv3z4uCVLmyJEjJAxBJjgGXEdHB6dBwo8ePRJ8pG1gYMA9F797967gaoVGRkZbt24lYVtb24sXL5IwqF27Njc3/eXLl69du4ZAyZIltbS0OnbsOHToUJLEkC3e3t7v378fP348tXOCSRkGg1FUQbMaHx/PjaxiMBh/J9JLmWI7RR6DwSjk3L59e8SIEdTIX1j/jcEoTkglZZYvX84mIWUwGJKhqqrKfdGWz+jr60dGRlKDwWAUcaSSMul8qMFgMBji0K1btytXrlAjf0lNTeVGjTAYjKKOVGNl4A5KlizJvhplMBhFi8TERG6yIgaDIT/evHnz+PFjS0tLaudEAY+VUVZWZjqGwWAUOZiOYTDyB19fX8HpyuQE+4KJwWAwGAyGXIiNjQ0ICDAxMaF2TrCPsRkMRlElKirK09OzXbt21GYwGH8l0kuZUoLT9ouLv7//nTt3VFVVK1SoQKP4kyO9evXK0NCQzJUEIJVu37795csXbg0jEBcXZ2trm5aWpq+vT6P4sz0+fPiwYsWKZHYmwvPnz9+/f1+zZk1uBZz09PQbN24EBwcbGRmRGBAeHn7z5s1SpUppa2vTKAUFd3f3Z8+eValShczpRMAhPn36hJMhi+OA5OTk69ev45SqVq1KYsDPnz/v3r1brlw5wXkv3r59m2Puvn79mmfufH19Hz16lGPujI2NyfxRgOQuJCREMHdhYWG3bt1CCXCLIgE3N7fsuXvw4IGHh0ft2rW5yvHr16/ccoczyZ47HJfLHY/Hy547qGzkDufJresEfHx8kDucnmDu7O3tnZycRMydoqJi9twZGBhkyR0aP5xMltzFx8dzS1OBHz9+ZM/dmzdvXr9+LXjtkDscN8fcZWRkZM8dqpbgi4nsucMVx2+RHcF1hUJDQ7PnztXVFT/Pcu3u37+fJXdJSUnYYY65K1++vIaGBo3KPXffvn3DGZIYEBMTg/LPkjtvb+/Hjx9nyZ2dnV2OucONlj13OCgqNo36kzucM7cMFsieO9yw27Zt4yZ7zU9QtVxcXPLMHSoq6n+W3OGH2XN37949Ly+vLNcONRN/cZVJDPj+/Tu2VFdXF7x2jo6OuHa4I7j39bh2KBxcaMFrFx0djTNEkq6uLo3iT4OLa6ejoyN47XLLXURERPXq1UkMILlTVlbOnjv4iiy5QyUR9Co55g6VLXvukDVksEaNGlzuMjMzUWfggril6wDJHdxp9twhBq0MjeIvOpEld6mpqdlzhwYie+6cnZ3hcrPkDndTltwlJiYid/AtgrmDo0AdRtYEP7tzcHAQJXdQ7bjvsuQOt8OTJ09EzF1kZKRg7oKCgpA75EJwsbbccgf3JVgzxcodHEuW3KFmounPnjsEuOX8AJoh5A5+RjB3ucGdm8RINVYGbfDRo0ezvAZDlhCJC0lt/pVADMBNSKP4BYcYwWmqAS4DIuEHqc3HxsYGkYJLD6KxQYzgDI8A6gSRWWZHRsuHSFxIavM5fvw4InETUptfLRCT5WMKIbkTXI4xJSUFMUAwd9BtiEEdojYfkju00NTmc/78eUQK5g6NDWJEyR1qHiKhkKjN59ixY4jMnrurV69Smw9UCyJxE1KbD24YROaYO8FHd+LmTvCrVzgsxAguOAU+fvyISPhfavPJMXeIAdzSSIDkjkzcyQE9jUjchNTmg7sXkYLrZULC/t7d0aPU5uPn54eYLLlDu47ILLlDLhCJ25jaueQOehqRghOoA3h8RAouUAUQAwRzh7NFDM6c2nyQL0RmyR1KAJGCucN+fu/uv7nDERGDo1ObD8md4LqqgOQOOaI232EhRpTcofQQiZKkNh/EAG6FTmBiYtK3b19q5C/Zc4daihjUWGrzwRVHJJp2avPJnjvcHYgB3MpcAPcRbsYs1w53HDbD3UdtPrg3EYmaTG2+UEAMfk5tPuTa4b6gNh/cNYiEf6A2n7NnzyKSW3gV5Jg7eFpE4s6lNh/4ZETiHqd27rlDDGnAOEju4DmpzSe33AnO3gvgpREpuDoBgMdDJPwDtfnANyJSMHfwn4i5cOECtfmImDv4bcQAwdyh/UIM/CG1+aAtQGSW3KHVwGUSXGoXQgGb5Zg79KKpzQctPSLR5FObz+nTp7FDtHHU5vfSsRm3YB8BcgebkbUXOEjuBNcYhvJADEArTKP+5E5w/T5Acvfhwwdq87l8+TIiIXmpraCQkJCAmBMnTlCbD4QgIkXJnfxgL5gYDAaDwWAUGAX8VIbBYDAYDAajYGFShsFgMBgMRhGGSRkGg8FgMBhFGCZlGAwGg8FgFGGYlGEwGAwGg1GEYVKGwWAwGAxGEYZJGQaDwWAwGEUYJmUYDAaDwWAUYZiUYTDEQ3BaZwajAGFVkcEgMCnDYIhBbGzsvn37qMFgFBz+/v6nT5+mBoPxd8OkDIMhBhcvXjx48CA1GIyC4+zZs4cPH6YGg/F3w9Zgkgv9+/f//Plzv379SpUq5eDg4OHhMW3atJIlS0ZHR6MtdHR0rF+/Pt2UUaRo2LAhriauYIsWLWgUg1EQVKlSJTg42NfXV3D1bAajKMLWYCqMREZGqquru7i4bN26ddOmTdra2u3atduyZQvC1tbWI0aMEFyrnVGE8PLy8vb2Ll26dJZlbxmMfAYdJPgZZWXlU6dO0SgG4y+GSRnZc+3atbVr15YpUwbhf//99+XLl+3btydJQFdXV1VVlRqMIsXJkyehYzIyMi5dupSSkkJjGYx8B2Kax+OlpqaSAI1lMP5WmJSRPW3atDEyMiJhT09PdJ46dOhATDBs2DAaYhQpMjMz0QNG40HMmzdvkgCDkc/8+vXr6tWrkNQIJyQkPHv2jMQzGH8tTMrIngYNGtCQgsLz5881NTUbNWpEbQWF4jFK5tatW23bttXX1//nn39oVHHn0aNHycnJJIzAkSNHSJjByGdsbW25sQUQNEePHiVhBuOvhUkZ+fLixQs0+SVLFrdy7t+//927d0NDQ83MzGhUcQfaJS0tjYT//fdfBweH4OBgYjIY+Ym1tfWvX79IODMz8/bt2/Hx8cRkMP5OmJSRI9kHyhRmnJycXr16RQ0R+PDhA/7mf+6gDp2dnamRX8TExDx48EBwUIKSktK5c+eowWDkF/7+/m/fvqUGH0VFxcuXL1ODwfgrYVJGjnh5eUVERAgOlCnMuLu7Q81QQwSeP39ejQ+18wtIqI8fP1Ijv7h48WKpUqWowSc5ORmdY2owGPnF2bNnS5cuTQ0+v379YhPMCCE4OJiMK2LIlp8/f9JQIYBJGTny4sULDQ0NwYEyxQlImaLywEl6rl69ir/KysroAZcsWRIBEB4e7uLiQjZgMPIHVMUSJUqg+kHQcFXx8+fP3759Q2pKSsr3799RLQvqsyaIBkEyMzNpQgGBYiEfHiIsWCbcbGo5RoLi9F1YTEyMj4/Ply9fqC0j0Fe3tbWlRkGTH1Pk4e46duxYbGysjo7O5MmTcdfdunULtXzYsGG1atWiG+Uv0dHRqN/x8fFmZmYDBw58+fLl+/fv09LScHo4SbpR7pBvIJGjChUqTJ06Fb7j2rVruGkHDx5ct25dbIDUgICAx48fp6end+/e3cjICHsmvxUEJYOefWBg4Pz58w0MDEiku7t7WFhYt27dEL537569vf327duln0EoT06cOIECEXEYLzqCmpqa+/btw4mhHJD3uXPnlitXjibLkx07dmhpaU2cOJHaeYHCPHPmDLLWpk2bHj16PHr0yNPTE9d6+vTpyALdSGQuXbqEXDs6OlKbwSggDh48+PDhwzt37lCbz7Zt2+CL0H5HRETkg9PIQlRUlJWVFXwpMDExIQ+kcSYQ/X379p09e3aW50k5sn79el9f35s3b0KoDRkyRF1dfcmSJfr6+jRZHEJDQ+fNm4d7loxWPHDggI2NjZubGxwyumHwq2XLlj18+DAinZ2dq1Wr1qlTp02bNuGI2HjatGlXrlyBq+nfv/+uXbv4+yuS4KKsWbMGeUHzJPMHyRs2bDA3N0cbR21JkUFdhY6B/JQfaDMWLVoUHByM8IQJE6ZMmbJ27VpIgbZt23bs2JFsIxaQCBBDeYLrR3+QDSThlNC2QU6heVuwYMHRo0dxvxkbG8+YMYNulDtQJ4sXL4b+QBjVfdKkSagoyCZug9atW5NtRASngYYWLqldu3Y0isfD/T9u3DgSRuXDNYKaJqZcgdzcuXMnNfICggAnhtNDUcPE/Q9XRZLkDZw1VBc18iIoKMjCwgLCC1WuYcOGuHAXL15EFYJwRDzdSBzg9Vq0aEENBqPg2L9/f+/evakhADoVaH2pURCQR5Vo/qnN48G7mpqaNm/ePCEhgUblRaVKlcR1p9lBhwfdVGrwuX37Ns7N1taW2nzQY0QkFA+1/4DmAL6CGoUPuDUaEgFtbe0LFy5QQ3YkJSVBFIp1JjlCHqlIg9xfMO3duxdaQVdXF2EoazQkkMlo+BMTE4cOHUq24cjzaSTyjOZfFIS8PEaDja5DuXLlINVxYnfv3oUcgbJBjwHtMd2ID1QLDQkAaY/uBekl6OnpoW2D74Aqwh7EmjPm7du3UC24Y93d3bnZSpKTk9+8eYN7mJhQOWpqauJOqYfrivOhhnx48eJFxYoVcXo1a9aE2a1bN/QOIWtIqojkw3nu2bMH11pFRUVRURFFbWdnN3z48OjoaFz9Xr160Y345HitGYwix/Pnz9E1okbhQEtLa+XKle/evdu6dSuNkj++vr7fvn1DZ5XafCpUqIC/8ADEJKBZwd+4uDhiEt6/f9+jR4/KlStTu/AxZMgQaAhqCMXb2zs8PFwe4wHKlCnTvXv3wjBUS+5SBu0HVxv8/PzQSGtoaKBtdnZ2huYl8ZGRkU+fPoU+gOghMbkB8QHtfEsEVqxYQX/zX9B81qlTp2zZssTEKaG+YreGhoaenp49e/Yk8V+/fh0zZszp06dxB0KNkUiCpqYmN9b1y5cv6KPjRkVjiaoPTUPiRQGHgAKAiLly5cqgQYNIpKOjI2K4kcKQ0n369BHlnRcBuVu3bp2lpeXRo0dnzpz5/ft3mpANCK/g/4I7OcdI+oP/AneJssLpERP3Cf76+PgQM0+gWXGBNmzYgHtgzpw5OBBNyEZsbCw5Ew507HKMpD8QAPe5ubk5RAwxca3Ri0XAxMQE15rzcQjjWp89e3bZsmVsig5GkQa+1MPDoxAOYiO9WVdXV2LmA7iXu3TpQo0/wFfjb1RUFDEBfCaZ7lIwEty7d69fv37UKJSQhxnUEIq9vT36nJK9pMsTdA7/Cikzbtw4GlJQyO3L5A8fPqSkpKAJz4cxYiVKlEC7RcIxMTGfPn3KfkpkgAsuz9SpUzdu3Ojl5YV2jqaJliNRGD16NFrZ+/fvQy6MGDGCRL548QIVTnB9OLEWbNqyZQtEFdTMrFmzFi5cOHDgwNyK1MLCYvx/OXHihI2NDTX+sGjRIvoDAZKTk3HJBLs7ZEBZ+fLliZknEIjI1+rVqyH+cJSRI0fShGzMmzePnAkHtCxOlRp/wK7oDwSAYEXHhYR//Pjh7++f/WIlJiYOGDDg5MmTkydPRpfx2bNn0ME0jcEoasCB4DaEWL927dqBAwfQv6IJBQ06DPgLj0RMQlpaGlwrzvPQoUO59Zqyk5GRcfv27VOnTnEzbr969er8+fPYCTEJDx48ICMOBSFSRvCpzOXLl8lARsFIdC+zvzSQBjRw6Bgjs8gy9AcOCjMpKYkmyxnUCrg+d3f3gwcPynycn6GhIXmsVcCgWHEe+QBEAw7n4OBA7WzMnDlTlKEq8fHxESKA5pb+IHdwt+OUwsLCqP2Hx48fCw5eOXfunKDJ4evri5/b2dlRWwDclpBBu3btsrKysrS0hEqjCdnADSP4Srht27Zo16nB4wUGBqJvQQ0RMDU1ffPmDTV4PKgiQVM4oo+VwY2BjOOCUpvHgzqsUKGCKGVOQO338fEhYYgtVVVVb29vYuaJWGNlOI4fP66kpATfQe0/wGcJjvKBVxU+6IeNlWEUEnIcKzNnzhwzMzN0wEJCQuB24BBydFDCQbsLDyac7LcSR/axMq9fv4aG2L17N7X5BAUF4fQgShB2dXWtXbs2OhskCQgZK4N8Xbx4UVdXt1evXiQGHrtnz55lypQhJsDp4YgQPdT+A7qp6M1OmTKFmAkJCdu3b4cLKlWq1MSJE0kkujebNm0iYZkQFRW1YMGCyMhIlEPz5s03b96MnM6fP587f8no0aOHiGOPUJhdunSB8kN42LBhYrUpooAzoSFJgQ6Rkvz7GBv9XfSSzc3NOTMmJoaERQdnjCsBaZ8nGzZsoL/JHXt7+3r16uEyE5N8cAvu3bsn+IpUT0/P2dkZxU3tPyALysrKaNiIiQYeEoqEcQKQZai+q1evVlNTW7duHYnPDu5hwa4DDsQNlAHoagwYMIAa/Pc4uA3gwvbu3Ut6OYJA97i5uWU5czKRnWzBhcOlJN9qAXiNGzdujB49GqVBYuCkUP7oAezZs8fPz49EcuDMv3//zp0nPIuOjo48zlMQOHTUPbLGJxByreV9JgyG/IBP09bWXrp0Ke4pRUXFKlWqPH36lKb9Ic8BakeOHBmVFytXrqRb5wJ6/4cOHYITGDt2LLpnDx8+RONN0/hgJ23atOnTpw/CjRo1Qncxz30SkK/hw4cLvv1BO42jUIOPl5cXOlfkwyVBIFk0NDS4d0nkcSxcEDbmItHtQUeUhAno9O7btw9ahNq5A1UEpUWNP6AcduzYgUOYmJi8e/cOTgbXBT3hzp070y34iDjwRVzgb9EwrVmzhpTY4MGDucYRJ2NtbY2/xBQOeqo0lI2C+hJZEPlKGdSnVq1akblZUZUbNmxIBi5AkTx69AhVir+VGKDO3b9//6UIrF+/nv7mv+DGxv0TzB+c8eDBg6ZNm5J4XCd3d3cShiYgAQIOitYaIIz6B6lBrj1yVL9+fRUVFf5WCjgx8vQyLCwMkoKb0b9Tp05C1utBvee+YY6Pj0dt5gagpKWlofdTsWJFYnp4eOC2h1OYO3cutkTHi8RzQEDQ0B9w5mQUi2ypXr069sy5iRMnTqCHZGlpScz3798PGTIEDmL27Nk4JXTFSDxHluIF2BsKjRqyAwKrffv2EF7wL0+ePOGudWxsrLe3Nwlnv9byOBMGIx9AiwWXi44TN50jmjEyMB/A6z5//hy9izp16pCY3ICHuZMXeX6fDM8/a9YsOIFz586hXwefIPhZAG5A9P3Qm6e2gkLXrl1xk1JDakJDQ7kBkVmAlyaixN/fX11dnTRD0BkkMiAgAD8knpwDHm/JkiW57ZCA4oVe2blzp42NzeLFiwVfV5mamhJvieYDHoaoN7QX3MwXaA3xE3SrEJPbPKXwpXCtgqB1QNtKDT7Z+7cAFx11gBsPAP+GjBNdYmBgAO9NWkMhoNO+cOHCu3fv4m+OugfddRoqOOQrZa5fv44qixqAqm9kZISrm56ejnZl8+bNU6ZMwUWl2+UjZ8+eRZ1QVlaGUu7YsSNqPCIhIKysrHIcF8KB08bfmzdvQlIgR9AxqAeoTBAcPP5bj3HjxpH6ijoK3c3/0W/09fVxk5AJrLIzYsQI3MC4DRDGTnBK5PUNDrd161ZuZDTMAQMGoLNFhs5gM5wwSRIOOW3ZAknaoEEDssoBbkLoehQLfAHMlJSU/v37Q0eSEoCrsrCw+P2bvJDHeaLLBSWnpKQEt9uzZ8+QkBBEQgVu2rQJjoNskx1yLRiMIgdcR/ny5Zs0aUJMOLcfP35wJio2XC5uSeL08pP58+ejvVy7di21+a+n8dfBweHoH+CWZ86cSVJzA81H9q5RjiCz2R/JECBTyAOYCxcujB49OkvkmTNnJkyYQCI50B0yNzcXLmUuXrwI3wIXPXHixC5duqDVpwkKCuRrAwBVYWJiQlwlB3wUnDlk0NChQ9FBHTt2bPbnOsDFxeXqf8F1RG+NGnzQztKtBUDHvm3bttTgzxmoqqpKnk+j2wx9Kfx7N7Tay5cvhwvF6cFzonCyP57JrajzE/mewZw5c3BpHzx4kJiYeODAAVwt1OYtW7YU4OR4qCuTJk1CfYW0Onbs2KBBg9Du7t27FzWPmzANGkXwGSzuHyh38uwE2mLFihUQH6j3+/kgR1BmaL+5Ja+heQVVGgnn5j5QGhDpqCvQMRAr165dw9FRs6HuR44ciTDZDII9MDCQ+34YEltwaDChSpUq+JvlzAXfnsgQaJfHjx8j4x/4cHm/cuUKKjqUFjE7d+5ctWpVEuYgmcpynuTkZQs6oKNGjTp8+HCzZs1Onz7dokUL3IoQXihtzitlv9ZyKjEGQ96gpWzfvj3XrqCpRnccbScxEY9UUWZ2cHR0PJUX6KPTrUUADSdcqGCHnvTjO3XqNO0PkDs5Dt4XxM/Pj3wJlSeQdOhWUeO/kHdJr1+/btmyJff4ikiZN2/ewFdkn8cPGhFFh14rkTs5cuvWLe65L3ZCBqYQk8POzi77OjYoSe4RPvwSSibHBzN9+/bd/l9q1669YcMGavDJsd/o7OyMnFJDQQGNFzdpCA5UrVo18kQqt9eOaHpMTU1JWEVFBQWVZQkwIKdXY2IhXykDcYBmAyqBfKKCNhtKYuXKldwzz/wHTRduGJwSebaJWwgmTpJ7rQNQaQRXl4A0gYYg9VtdXX3ZsmX4OZHz2AlaR+QItYq/ba7k9tQBQmfWrFkQNNB8uBNQYghYWlrir2ApoarVrVtXsFuQveahDUYPTPDMAwICRP+eEJ6Oc4J5oqOjAwmIclu1apWgc8R54rYUXK4o+3nWq1evRo0a3HmiZCIiIrLM8iIE0c8TR8HFXbx4MdwQzAULFkCGomAFJ/nNfq0L+ReYDEZuEClDDf4T6PHjxyOQn7O55Ab8J240Ii/QYYCIqVSpEveel5DnCya01rn1NLKIDDiZ3MZiojGOjo5++fKloKpAJLZH9yz7R08AUiY+Pv7SpUuQHQP/+xEWx7Nnz8g0wQAuEduTuTDgAMnQBeT61atX3AU6efIkvA0C0DfcDwH6zG5ubtSQBXCw3CtFV1dXX1/f2bNnExP5gjQ8dOgQ1AmuSI5vmrKcHrLGjcTgQGZpqOCQr5QRC9Ty3HR0PtO2bVvcGOR9BHj06BH3sbQo6OnpCQoX0pZL+U1/x44dUThxf75XRI0k7snHxwf9D25kHyTjgwcPSBi1s0GDBqI/7cAtyj1ulZju3buj6LgnkOje7d+/HwHIf9yi7/98Gjpq1Kj79++TMPxX165dRR84NXbsWMGh0FKCE/7y5Qvxev/++69gl4XBKFp4eXlxLWVSUtKnT5+GDh0KASH4vlsUWrVqNTEvyICPHCHeL0vnzcTEhMfjkVZw586d6O3s2LHj4MGDiYmJZIPQ0FDy1gngTszySAMxUBLnz5/nHFqzZs1iY2NJGCoBfg9H5A5asWJF9BJzXHUIqgV9oSwuvQJ/jDDpcmfh169fcF/o4YwbN2748OEPHz7MkjWCYONFnsSTZxXovaOHCfF048YNxJPzh5PEOZMn1llaPWwj24ccaM7I9yg4Ivrhe/bsady4MUmClIHmg7LB1YRGyXFFueynR4aNCiLzD7wlID/WYMqT27dvo66QUato8ps2bdq/f3+SVFBAn1pYWLRs2dLT0xPinZueRBSggaCCOdnx7t27yZMne3h4EFNi3rx5Q0bh4DZo1KgReXiANhi108jIiHu0uHv37sjISPR4cOa7du3K/wFZUPG4Q3R0dHCecDdkeQ74qVWrVkFakVkQUeU2bNgAb4X7B30XODXu26L8ByewZs2a1q1bQyBCJHHTJOYI/Clbg4lRGIAOQLMqODwCzjMwMJB7ZomGuXnz5mjA5s+fr6SkRCIDAgLq1q3LCQjZglse9/Xnz5/9/f3heVq0aIGOAfnG083NDV69TZs2S5YswWkTf2Vra3v27Fn001JTU9FG/vPPP6VLl7a0tPz48aOzszPC3bp1g+hBbxCixM/PD9tg5+RLybS0NHS94FJq164Nj4ce3YQJE5Df9evXk5nxBg8e3KNHjyzfIgFsgOY5y2cTmzdvxsnDEVFbAHQUcUqvX79GGJ0x7DD7YwkAl3vt2jUiJXFuKioqvr6+xsbGN2/evHDhAnkJAB1jY2PTqVMn+Bz4beL00DczMDDYtGnT773wX8rDC4ky22qvXr2uXr0q+FA8R9CWYW+DBg1CP613797cfDkoVQg+FCz+wiGj8qD3y83+yjFp0iSIv+3btxMTGUHPU3BcKfZfv3793J6BiQiuLA1JDPKAFoUhW1ChuRl01q1bt3btWhKWB/Hx8YcOHaJGIQYK7/Tp09QosrB5ZRiFhP3Z5pVBd5mG/oAGhob+8PPnz7Jly1Ijf4GoQr/u2bNnmZmZNIoPNMQvSRfxSUhIwM8RgBjKshOIPIg5agjw48cPKDlq/AHFktscLStXroTsIOGFCxei2wPlFB0dTWI4INrQzyFh7A2agIQBToy7NDjP2NhYEiacOHECcoEaPF69evXQC6WGUKAqRJxXBgWOc4Z2oTYf9I1xLBJG/9PMzAwB6EUSwwGtOWbMGGrweOhFQ5VSg8+pU6dmz55NDUn5/UBFOgrRC6biBJT48ePH9+zZs2rVKlynPIezSQOONXz4cGoUYu7evSvWwy0GgyEW2R9tCo5yIMDp01C+U6pUKXNz844dO2bpgmtqanJTWoiLqqoqGfqmqKiYZSe9evUKCAggD/sFqVq1avZvkQwMDHJ7vPH8+XPuO4Zr166NHz/+8uXLZOgknDzEDUkaPHgwNx4WAbISMAEnxl0anGf5/86K3rdvXxcXF3JdIMuwATdll3AWLVokYrmhwMkbNGrzEczX9evXx40b5+TkBBEG09vbu3v37mQETJ8+fdzd3cnpQYRBFTVs2PD3b/5w4cKFJUuWUKPgKCX4gRxDVqCG9e/fH933Tp06tW/fXgZPz3IBFQt9nRo1alC7sJKSkqKkpES+XSrSeHh4kDeG1GYwCogPHz58+fJl1KhR1BaBvXv3Pn36VFtb++PHj2jj0cOmCcUReN1atWodOHBAyLAeUYBwWbp0KZkRLS4uDuVWv3598gWun5+fra3txIkTcSxE4nI8fvwYZQspsHHjRsGvH4QAXWViYrJjx47w8PBTp05ZW1tnF6A5YmRkJOIHEDny8OFDqCgyuwcaLHi2jIwMshpgQkLCixcvNDQ0ateujaTGjRtv3bo1IiLi5MmThw4dEhzXCG0Hxy794EXpm8hCMVaGwSgqsLEyjEJC9rEyjOzghoVWkN9niWjaZ82aRY1iBIQy/nKz8+dIYGAghNf69etlIESk3gN7wcRgMBiM4gn5Uik9PZ2YsiUoKCj7vFnFAB7/WzPhOga4uLhYWVlJr0JkAnsqw2CIATrBBf55HYNBIENNqcHId0JDQ0Wcsq9okcJH9AkypIe9YGIw8pvAwMAcJ5ZgyJbXr1+vXLny+fPn1GZkQ0dHR8SBnwxGYYZJGQaDUTx59uzZjBkzsq+szmAwihlsrAyDwWAwGIy/GiZlGAwGg8FgFGGYlGEwGAwGg1GEYVKGwWAwGAxGEYZJGQaDwWAwGEUYJmUYDAaDwWAUYZiUYTAYDAaDUYRhUobBYDAYDEYRhkkZBoPBYDAYRRgmZRgMBoPBYBRhmJRhMBgMBoNRhGFShsFgMBgMRhGGSRkGg8FgMBhFGCZlGAwGg8FgFGGYlGEwGAwGg1GEYVKGwWAwGAxGEYZJGQaDwWAwGEUYqaTMhQsXGjVqdOTIEWorKAwePLhZs2ZBQUHEdHV1bdy48bx584gJLC0tTU1N7e3tiRkfH9+6detOnToRE1y9ehX7PHDgALUVFEaNGmVubv7z509ienh4NGnSZMaMGcQEGzduxD4fP35MzOTk5DZt2rRv3z4zM5PE3Lp1Cxvs2rWLmGD8+PFNmzb98uULMX19fbHPyZMnExNs374dP7l79y4x09PT27Vr17Zt29TUVBLz4MEDbLBlyxZigqlTp2In3t7exPz27RsOMXbsWGKCPXv24Ce2trbE/Pfffzt06IBTTUpKIjFPnz7FBuvWrSMmmD17Ngrw48ePxAwICEDxDhs2jJjg0KFDKK5Lly5RW0GhS5curVq1io2NJeaLFy+wz9WrVxMT/PPPP9ins7MzMUNCQpo3bz5w4EBiguPHj2Of586do7aCQq9evVq0aBEZGUnMN2/emJmZLVu2jJhg6dKliEE8MbEltu/duzcxwdmzZ7HPEydOUFtBYcCAAThuaGgoMZ2cnLAHnBsxwapVq3DmL1++JCZyhHx17dqVmODixYvY5+HDh6mtoICSQfmglIiJckNO58yZQ0yAssU+nz17RkyUPKofrgKuBYnB1cEGe/fuJSYYM2YMqt/379+JieuLqzxt2jRigs2bN+MnqA/ERA1BPUFtycjIIDF37tzBBqhRxASTJk1C3fj8+TMx/fz8YE6YMIGYYOfOnfjJ7du3iYmajPqM3aakpJCYR48eYQPUfGKC6dOn48Q8PT2J+ePHD5w27h1igv3796O4rl27Rm0FhY4dOyL7CQkJxLSzs8M+165dS0wwd+5cFKCbmxsxcV+jeIcMGUJMgHsf+7SxsaG2gkL37t1btmwZExNDTAcHB1zWFStWEBMsWrQIMe/fvydmWFgYqkG/fv2ICU6ePIl9nj59mtoKCn379kV1Cg8PJ+a7d++whyVLlhATLF++HDGvX78mZlRUFM6hR48exATnz5/HPo8ePUrtP54qODiYmMRTzZ8/n5iAeKrnz58Tk3iqzp07ExNk91QjR47M7qlmzpxJTLBhwwbs88mTJ8T89esXbn9UPx6PR2Ju3ryJDXbv3k1MMG7cONSNr1+/EjO7p9q2bRt+cu/ePWKmpaWh7gEESMz9+/exgaCnmjJliqCnws5z9FQ3btwgJk4vi6dCFrDB+vXriQlmzZol6Kn8/f1RFMOHDycmOHjwIIrr8uXL1P7jqeLi4ohJPNWaNWuICRYsWCDcUx07dgz7FPRUPXv2xKVHBSCmo6MjKoaFhQUxAfFUb9++JWZERASqVp8+fYgJzpw5g33m6akWLlxITEA81atXr4hJPFW3bt2ICYinsra2praCwtChQ1H9AgMDienu7p7FU1lZWWGfuCWJmZiYiOqHG5aY4Pr169jnvn37qK2gMHr0aEFP5eXlhasMt0BMsGnTJuzz4cOHxIQzgUuBY8niqXbs2EFMMHHiROGeChvjJ5ynwq6yeCocrkGDBoKNmryAE0dNlQxcXagEXA9q83jwUHCyaPiJiXsVauDTp0/EBCgUZBvVl5jw0WhXUAmICeCwsE/cCdTm8VB10E7gziQmlAruW1x7YgIoEuwT3pPaPB6kEm4MavB4qNnYAM6d2jyei4sL7nC0OsREACbcGTEBhAh+Eh0dTW0eD04NUIPHQxI2gBegNo8Hj48TwyUkJk4Yp437kJgAJ4CfoJmnNo+HdhqVlRo8Hu4BbIDqQm0eD64BBYgsExMFi5rx4cMHYgI02ygutAfU5vHQeEASoWCJCReMfcIDEhPAw2Kf8ErEROXDJUPzQEyAFgv7hOOgNo8HjwDnhS2JifsKlR6ukJgAYcQgnpjYEttD2RATYG/YJ/ZMbR4P3gTH5faJ88FZoSUmJsA548xx/sREjpAv5I6YALnGPlEC1ObxUDIoH676odyyVD+ULfbJVT+A8sdVoAaPB9eGDdAaUZvHwxUUrH64vrjKuNbEBKgD+Eme1Q8uhto8Hmpa9uqHOklMgI3xE/yQ2jwedojdUoPHw+GwAWo+tXk83BHZqx/uHWICZArFhfuL2jwe7jvcfVxVQbFgn7hDiQlQdChA3MXEJNUP9zgxAal+8APU5vGgJ3DpuX1CJ6Fi+Pj4EBPgEiNGsPqhE4LKQEwAeYF94i/2U6NGDcSgImGbLNUPnpqYAPtHDI5FTBwdv0WlJSYQ0VPh1iAmIJ5KsPqhrASrn4ieCrcwMQHxVLjNqZ2t+sE5YIM8PZVg9RPRU2EzaheQp0JBZal+4noq7DOLp8IFxT6ze6os1U/QU6HaIEbQU6FqieupsIc8PRVuBGKC7J4K1U/QU2VvKLN7qiwNpYieSrChlJWnEmwoRfFUV65cEfRUOQIdIiUlyH9U1zAYDEbhAL57xowZ8OnUZjAYxZQSJUrQkKSwsTIMBoPBYDCKMFJJmeDg4IiICGowGAwGg8FgCJCUlMQN9pIfUkmZTZs2CY56YzAYDAaDweCwtbWdNWsWNeSGVFKmdu3aNWvWpAaDwWAwGAyGAFWrVm3YsCE15AYb9stgMAojbNgvg/GXwIb9MhgMBoPB+KthUobBYDAYDEYRRiopY2try82xy2AwGAwGgyHIx48fDx06RA25IZWUefLkCTevPIPBYDAYDIYgLi4u3HI98kMqKTNt2rQxY8ZQg8FgMBgMBkOA7t27r1y5khpyQyopY2ZmVqdOHWowGAwGg8FgCKCnpye4EKacYMN+GQwGg8FgFGGkmlcmIyOjRIkSpUqVojaDwShk8PjrA6urq7u4uLx48YLGKijUqFGjX79+JPz+/fvXr1+TMKhdu3avXr1I2NHR8d27dyQM6tWr1717dxJ+9eqVk5MTCYOGDRt27tyZhO3t7d3c3EgYmJmZdejQgYSfPn366dMnEgbm5uZt2rQh4YcPH3779k1fX79JkyYGBgYiziuTmZmZlJRUvnz5Dx8+ODg40FgFBWNj4z59+pDwmzdv3r59S8Kgbt26PXr0IGH8BD8kYWBiYtKlSxcSfv78uaurKwkDU1NTrnOJc/v48SMJg6ZNm7Zt25aEHz165OXlRcKgefPmrVq1IuH79+//+PGjcuXKyGCVKlVIpIjExMRoamrGxcWdPXsWjpdEKikpTZgwQVVVFeHo6Ojz58+jNEiSiorKxIkT8RfhyMhIGxsbLqlMmTJIUlZWRjgsLOzSpUuoJCQJu0KSoqIiwsHBwVeuXOFaBzU1NSQRbx8QEHD9+nUuCbULSWRqELKqtpaWFqoKqgRrHRioJ6ixpFLlRgHPK7NixYrt27dTg8FgFCYgAhYsWFCxYkUiIz5//oxmm8PZ2ZlsBnx9fWksH4gemqCg4O3tTWP5CAoUT09PGstHsGn38PCgsXxg0gQFBXd3dxrLBzuhCQoK2Dkae0tLSyMjozp16gjKiBzBac+bNw8Z7Nq1KzHpTvkI5sLHx4fG8hHcc5Zc4PRoQrZcCCowZJbG8hHMIHJBY/mgAGkCf/wjMrh69WpDQ0O09JBKNCF3EhMTDx06BIGlra2Ng8bGxtL9/gEbkC2hdWjUH6DwSBKkDI36Q0pKCkkKDw+nUX9IS0sjSVA5NOoP6enpJCkkJIRG/YHTSUFBQRCyhw8fRq2rUKHCqlWrSDzjr8XW1nb48OHUkBtSPZVZtmwZKiv+UpvBYBQO0ITs2rVrwIABM2fObNWqVdHqHKN5vnPnTnR09J49e3J8KgOXZWFhsX///kGDBiGDLVq0KHIZvHXrVu3atZs2bUqjcuLZs2fjx4/X1dWdPXv24MGDy5cvTxOKAjwe7/3791ByEydOpFGMvxJImfPnzwv/iEn6pzJSSRkocZxByZJswA2DUYiIi4ubPHmypaUlevM0qgjCvWBKT0/P8nQ6KioKSVZWVvXq1aNRRZnsGSSsXLnSyMgIl5LaRRkoGzQ07H3TXwiuez68YGJrMDEYjMIIJ2WGDh2qra198OBBmlDsGDBgQPXq1ffs2UPt4gg65atWrbKzs9PV1aVRDMYfCnisDIPBKFQUp24JvBtxcDt37rxx48bp06cRLpb9rt27d1+8ePHChQvE5AbhFicg1xo2bDhhwgRqMxgyRSop4+LiIjhWn8FgFCDXr1/nviEqBrRo0WLfvn0IVK1a9ejRo//888+hQ4d69uxJUosThoaG1tbW8+bNCwsLi46ONjIy+vnzJ00rLpQsWfLIkSNoL44dO0ajGH8HISEhdnZ21JAbUr1gmjlzppaW1oYNG6jNYDAEQPcaXW0PDw99ff2JEyeSYZuvXr26e/euhoYGeqh6enpkS5nQqFGj2bNnT5s2jdrFi/79+79+/XrHjh3FtWffu3fvpk2bqqioPH782N7ensYWLy5fvrxixQo/Pz82wvLv4fTp0+fPn3/69Cm1c6KAXzB169atffv21GAwGAIEBAQMHDgQLdPixYvj4uLq1auHrvaePXvQQVm0aBE2qF279rdv38jG0vPy5cvAwMCxY8dSu9jRq1evtLS0kSNHUrvYsX79+sqVKx85cmTu3Lk0qtgxePBgSNJi+ZaQkRtNmjTBdaeG3GDDfhkM2cPj8UaPHr17925ukKOGhoahoWGjRo3QR/ny5UuDBg3QMF+7dm3QoEFkAylZvnx5eHj4iRMnqF3sWLhwYXJy8uHDh6ldHPn48WPr1q1jYmJKly5NoxiMv4ACfirDYDByZPv27SNHjhT8WCMzM9Pd3X316tUIlylTRltbu3v37mRuN5ng6enZrl07ahRHvLy8incGAS4ipAzTMQyGuLCnMgyG7OnSpYvgu+GwsDA9Pb26desKTm6bhcTERCsrq6CgIB0dncDAwClTpnBLBIhCZGSkpqamiPN28PhgY+k7Q2IBV0Mmo5JgfpGIiAgtLS0Rx1gUbAZxkpKNBUlLS0tKSsJ1pLZQpClMKcFxcXQmuRiyooCfyuzdu/fMmTPUYDAYf8gytSVZAIhbhyg7MTExnTt3hty5cOHC7t27Dx8+vHXrVrFWxq9YsaLwJg1N+507d0YNH2JcVU9RUVFJSalsGeWmDWr9s2C+4Lz78sDHx2fJ4kXNG9VVLaOC4+LoRlV0hg8egFLilhPKk0qVKu3fv3/NmjXUzgba11u3bo0YMcLIyIhmsGzZJk2aLFy4UN4fWmL/ixYtwrFwRJpBI6Phw4ffvHkTZ0U3EgF4VOSRGrmAwly8eLHgsQwNDYcOHXrjxg3RC1MC4uPjDx06BHmtra1NirdChQodO3bctm0bVCbdSASCg4OLx8SGDBF58eIFaiw15IZUUsbPz+/79+/UYDAYf8gyxzz5FlHI+5HTp09DzaDRJb0T6JINGzZAzQiu+yMNDx8+rGVYdeb4ETUCbx1oFvZ98r+B0xTcRmUsNfwS8+J4s6aNe3fr/OPHD7q17AgMDBzcv7dZI5PgJ9YLDHxdRqXjuD+nKhxpGVEv7O7C6eNqVKuM9p5unRdoMsPCwqjxX+7evVujRo2ZM2dqaGgsXbr0/v37jx8/vnTp0rBhw758+YKGv2/fvv7+/nRr2YF9Ys/YP5whjoUj4rgPHjzAOWhqas6ePRuaBgqSbp0XyKAQWYDCHDBggKmpqa+vL3csXFkLCwtUmDlz5uBYEHN0a9kBhbRlyxYyJBlH37lzJ44LoGzatm0LPWpgYLBs2bLk5GT6A6GgngcEBFCD8ReAe0TenSUg1QumkJAQyHPcRdRmMBg50aBBA3Tccb/o6OjQqP/SqVMn8kiG2goKKSkpampqK1assLKyolFCefnyZatWrbI/88fdvWzxwqPWh7e0SptqolA6p85LVIrCckely36lztlcQsNMY6UGAm7YoAG9qqXtaJ2mU5ZGCsL7V+GMl8Li18pDho08eOSY8KdK6Ns9evQoKioKDSqN4sPj8f75558zZ84sWLAALX2Ob3bQfO7duxfnY2Njwy36LT1ozocPH96hQwccOse3Qjg3CLU9e/aMGTNm3759eb51mjFjxq9fv86ePUttAZ4+fQr5AjWMY1WoUIHGCoBj3b59e/fu3TgliAzJ3nBlJzIyEqUKBYmqCMVGY//L58+fN27cmJ6ejhOAnKKxueDp6dmiRYuEhARqM4o7SUlJqD/CK4b0L5jYWBkGQ75AwaBHW6dOHcHXHHDlaCQMDQ0Rjo6O1tXVXb58eRbVUrVq1Xr16qHbTW2hVKtWDd30li1bUvsPc2fNeHDt7MO+KcZ5DcC44K0w5sHvxxsyaeyfP3/et1ePfe3SJjWgMbnxM16h+nGF6tWqfvsu7LEQiqhPnz6QO1mkzNSpU589e3bgwIEqVarQqFy4deuWpaUl9JBMRltDW6CNx1XLU/wFBgbizHEp8+yboo2HhBVcfpxgb2+Po1hYWPTr149G5UJwcDAuX40aNfxyWoZTXFBLW7duDf0NpaKiokJjcyIzM3P06NE+Pj7IrL6+Po3NCSZlGNkp4LEyDAYjR75//45OKgmjocXfjh07EpNw7tw5R0dHEn79+nVGRkb2ZxLoWIv+ggmdckCNP6B/f+XCGbsBeesYMLquwoVeCqNHDJX++T86YcMGDdjVJm8dA6qVVwierpARHy58lSXkLnun69ixY7dv34a4yVPHgP79+69fv3748OFo72mUpECeDhs2DNpClIdYOLfHjx9DueY50W2OHcvQ0NChQ4cuXrw4Tx0DICOePHmSmJgok6/Wp0yZoqamtm3bNuE6BqD2QkmjNFAs2bPAYMgbqaQMHBY6lNRgMBh8du7ciW7xuHHjiIm2Fn9r165NTPDr1y87Ozu0T8RMS0sjgSxAymBLaogP7s2F8+cc7ZgKrSAio+oo9DfMnDdT2vmCl/wzr51e6rSG1MwTPVWFU51TVixbAolAo3KiS5cuglP9RkRELFmyxNLSMrfXdtlBW9uqVav58+dTW1Kwh5YtW4qiLQja2tpr1qzB2QoZCgPq1KkjWE8ICxcuNDc3F33+oUqVKq1duxYyCxqIRkkEGW+0YcMG4S/+BFmxYoW/v79wxWZsbLx3715qMP4CkpOT82EhDqmkDGo5WSSFwWBwkM/6qlWrhr+vXr1CJ7VMmTJRUVH8xN/CBY0TGhslJSUSIwSxvn/JwsmTJ+tX4A2oSU0R2dY67cHjp9K8nggKCrpyzXZn61Rqi0aXqgptqpQ4+t+XR1lAKyj4Bg1NZr169dq0aUNt0YAKgbiUZowzfnvr1q0FCxZQWzRwnvXr1xfezEOTZZFlAQEB169fF/dYKKVGjRodPXqU2hKxffv28ePHa2lpUVsEUM9nzpy5Y8cOaucEqv2kSZOowfgLQAWePn06NeSGVFLGyMiI+GsGg8Exa9asGjVqtG3b1tra+vDhw+fOnbt58+apU6cuXLhw7dq14cOHo4fdoMH/X72gAaChbAhJyoIqH2rwOXX08Iy6Yj/U0SmrMKCO8ulTp6gtPlBynWuUqS7yoyCOmfWSTx6zpkY2smfwxIkTEkyIDq3Qrl07aWaRwG9xcbNoDlHA2Qqfjjl7HnGsVq1aSbBW15AhQ6BlqSE+379/d3R0HDhwILVFpmvXrlDtDg4O1Gb89ejr62d/1ihzpJIy//zzz8SJE6nBYDD4zJgx48mTJwkJCbiBbWxsVFRU4N/fvn0LXYIu6fnz57t160Y35YN2UVlZOTY2ltp/QJMg+gBVNDympqbU4H+z4/3le/fq1BSLbvq/HO1FGmucI2/sH3XXS6SGOHSuqhAcFpHbSB1nZ+e6detSQ0EhPDz8x48faOapLQ7Nmzd/+fIlNcTn1atXLVq0oIY4tGzZEuec2/fkYNmyZZaWltTgI/GxkMfAwECJRwW9efMGpS3iZH2CoIY3adLk9evX1Gb89XTq1CkfXimyYb8MhuypXr36iBEjBIf6omsyaNCgfv36Zel2AzU1NdztX758oTYf6BiIof79+1M7L7J8oOvh4VG5QlmtPAZr5oxpJYWP3v85GbH45O3bqBINi0XZ0grGOuU+fvxI7f+CDO7cuXP58uXE/PTpU5UqVbIXpijUqVNHyLTLeYLfStbLxNkaGBgIGcq9e/fuLVu2UIMPjlWrVi1qiAN0c7Vq1XIrzDxB/ZHsuAA/FJJHCKw8P9hmMMSFSRkGo+CBZHF0dBQc//v8+XMVFZWePXtSW0ySk5NVlSWcV15VUSE5VbyRLoIkp6RiD5JRTqW0kJnWYmJiuO8MsFnZsjlNViMCKFgR53PLEfxW9Bd/WcA5i5hBQkpKipyOJRxp8ogfCjluXFyc8LHPDIYESCVlbt++TT40ZTAY0jB+/PjOnTuPHj2avGZydXVdvnz5qVOnypUrRzbIk6dPnwoqodKlS6dnZv02W0TSeQqlpVjWB7/FHiQjLYOX28o+jx8/Fvza/HcG/3zuLi4ZGRnSrB+E30q8RADOWcihcfWzvGeU5ljSZLOgjssofnh6euY5DYH0SCVlHjx4YG9vTw0GgyEpysrKFy9e7Nu377JlyxYsWHDmzJlLly4NHz6cJovApEmTnJycqMH/9vtnRFKSRG29R6RCHaOq1BCf2jWqedKvtcQjg6fgG5ooOCBGkLFjxwqOMkEG/f39c/uOXThfv36V+O0JMDY2xh6oIQ44258/f9apU4fa2XB3d8/ySkjiY0FPfPv2TcixhIPykey44MuXLxIfl1H8+PDhw+XLl6khN6SSMvCeI0aMoAaDwZCCkiVLjhs37siRI3v4NG7cmCaIBn9ytf9PTVa5cmXdShUcgqgpFq/ClM1b57ryZZ40a9v5ZZgk7ybehyqoKCuj8ab2fyG542YFNTQ0VFdXR9tPTLFwdXVt3rw5NcSnRYsWLi4u1BAHyBScM5niWURwLJwtNcTh06dPqqqqNWuK+S3+H5o1a+bl5ZWSkkJtkcFlwkUxNzendjZwBaWf2pVRhOjSpcuSJUuoITekkjKor4LflDIYjMLDmPETj/mIPe43KV3hgte/Y8aNp7b4jB4z9rpPeozYjaDCUS9l/FbI4kHdu3efMmUKNZDBMWNu3LhBDZFJSkp69OjR2LFjqS0+OO7jx4+xH2qLjK2tLX5LjZyoV69elodS2J58DUdtkcGxRo8eLbFoaNSoUdWqVUVcNEOQt2/fpqam4kpROxuQqjKZiZhRVKhSpYqQ+iArpJIyDAaj0DJ9xsz7XzOdc/3yN2d2OJesVes/M9GJi4mJSXPzJpucxBst4R2tcMUnc+bsOdTOCSMjo6ZNm1JDQWHmzJl2dnbizuZ3+vRpdMByWxlRFPBb5PGUmFPv4DxxtjhnaudEJT7U4ANJgcOJO0PM169fIYBmzZpFbYmYP38+jgtdQm0R4PF4R44cmT59uqJirgO/kQSNRQ0GQ0ZIJWX4j7TZchsMRsFTrlw5NTU1avAxNDRcusxigl0Z0UfMvA9V2OZc6tAxyefHI+y3Pn7QvcSLQGrmSWqmwvinZWbMnFm/fn0alQ3kLssg6Fq1aqG5XbNmjejvQdzd3c+dOyf9UwHs4fz589nXfcwNCAJLS8t58+YJH6Ojqqqa5SKCgwcPXrx4UfRXWjgWygQ6JrdRRyIyefJkbW3tXbt2UVsEIBNjYmIsLCyozWDwyb48nMyRamVsVNkKFSosXbqU2gwGo4BITEzM/rlTRkZGj87tSwS53OydWi6vD6TdIxS63VJeunr9wkWLaZQUHD16ZMXi+Q/6pTXTpTG5kZyhMPyhcoRaHXuHt8rKyjQ2G8hg2bJls4y0SE9P79SpE2K2b9+e58fD3t7es2fPXrt27Zw5wp79iAgUBtTJgQMH6tWrR6NyITk5GU4S3tzOzk7I4woATYa8ZC8Ea2vrFStW4IhCpB4Be1i2bBnUzPPnz0VZGUM4379/b9as2fDhw6dNy3tZLltb2507d+K4eT7xYp84/VXcuHGDTHRO7ZwQvKklQ6qnMpl8qMFgMAqOHD/bRoNx896jEgZNm10p8y73hRrRlTnyUaHtNcV5S1bKRMeAadOmr163pZOt4l7XErzc+0puEQqtrpWJ1qh/77GdEB0DkMH169dbWVlRmw+Uwd27d+EHx40b5+XlRWOzARlx+fLlKVOmoJmXiY4BUEXoy02dOhV7FtLpxFmNH/974BHOU7iOARs2bIAmo4YAM2bMWL16NY5lY2Mj5FjQahMmTIC8u3//vvQ6BhgaGj579uzmzZuQYtwiYtlJSkrauHHjvn377ty5k6eO8fX1zVOQMYoTEAkSf9gvOlI9lUlLSytZsiTT1wxGYQZ+ZMvmTZs3bexYTXFqnV9tKitU5D+/wG3/LVbhwQ8Fa++yCSXKHT52SuIZ+XLD3t5+2sRxpVJiZtRL7m34r7GmAul8RacoOAYrnPAt8+hbxj//LFyz1kqUpnfYsGFoKSFHqP0HNN5EBLRs2bJ///5mZmbq6uqIh2cLCAh49eqVra0tCuHo0aOiLwQhIk+ePJk2bRp84KBBg9q2bWtgYED6l3Fxca6urrdu3Xrz5s2SJUtWrVqVp44BAwYMaNeu3cKFC6n9X+zs7KDG4HLJsapWrcody93dHYLD0dFx0aJFa9asEeVYohMWFjZr1izktFevXr17965Tpw4RnSh2Pz+/x48f3759u2HDhsePHxdlGl/00aFHRX83xyjqQHynpqYKf2gq/VMZqaQMg8EoJPj7+3/9+lVwqYQsBAYGHj92zObsyS8/gyqVL1O6VMnElPSU9MxmTUwnTZs1YsQIiWd3FQ682LVr145bH3z73kmxVAm1MkqZPF54XLJhFd0RYyZMnTatenWRVor6/v07lMqFCxc6d+5Mo/4LSgCt6fnz53/8+KGlpVWqVKmkpCR0t5o1azZ16lTIIBUVidZxyIuUlJQrV64cO3bs/fv3EGSqqqrohkZFRSFfo0ePxqGhOeimeaGvrz9p0qT169fn5tlRmFevXoUme/fuHTkW2onIyMhq1aqRY8lvfV/k7vDhw3fu3IFyIstlR0dHly1btlu3btOnT8/tomRn+fLlERERuFLUZjCYlGEwGAR0jidOnIhWPM8eeWxs7OfPn9HcoiFED1smbyJEAZ14Hx+fxMREiIyaNWtmWTQqT3bu3Ll06dKYmJjy5fNYdBvb+Pn5kQzWrVtXto8ohCCYQWNjY3HXYnz16lX//v1xtufOncuy4Gh2pCxMaQgICAgKCkKroa2tbWRkJFYjhF/VqlULWo1NSMYQpICljLu7Ozo6+bB+N4PBEA5657gTi3EjMXv2bLTxp0+fHjRoEI0qXkyfPl1NTQ0e9dOnT7du3aKxxQtHR8chQ4b8/Pkz3/Qlo8AJCwtD36lt27bUzokCljIzZ87U0tLasGEDtRkMRsFx5MiRrVu3ooOR/YPeYgDav2vXrllbW7u5ualKtCB2Ief79++6uroxMTH16tW7fPlyPswqlv+kpKQEBwezlbH/KtD9OH/+/NOnT6mdE9JLmVJr166lQfFJTk6uWbNmbhONMxiM/KRJkyZ37tzx8vLq0aMHjSpGaGhotGjR4vr169++fZP56N3CgKampqKiImRohQoVFi9ePGfOnFJSLOpZOCldurS4790YxQBlZWXcvNTICTZWhsFg/J+goCBXV9c+ffpQu+iTmJiYkJCgp6dHzICAAA8PD5l/aVWAIHdJSUm6uv+ZfufMmTMjR47Mt2FM+YCfnx/r9DJyQ3opwxYuYDCKD5UrVy5OOubFixempqb79++ntoKCgYFBcdIxdnZ2DRs2tLa2pvYfxo8fX2x0TERExJAhQ/IcyMxgSAOTMgxG8WT58uVLly79/v07tYsUL1++HD58OGTZ3LlzN27cSGP/y5IlSywsLH7+/EntIsXz58/RwA8YMGDx4sWWlpY0NhtPnz5FOTx58qQoPjsPDAxctWpVvXr10Od+//49jWUw5IBUL5gOHTqkrq7O1gZjMAohzs7OW7ZsuXXrVvXq1c3MzObMmcN9RLB+/Xpu8lY0M2PGjCGTtMIVrFu3LiYmhkuaMGFCo0aNEM7MzERSXFwclzR16lQyZ39aWhp2yK3ejKSZM2eSxYZSUlKQxC0iXbJkSZwGGfWJyA0bNiQnJ5OkUqVKzZ8/n0zB4uvr2759e5wVNhYy6wxaR2Twzp072KGpqSl+3qpVK5JkZWUlmIvx48djA4Sz52LKlClk8tn09HQkCeZixowZ5PPM7LmYPXt2jRo1EEYklNavX7+4JJwGmdwFu0ISfkuSkMGFCxdWrlwZYQ8Pj65du44dOxYZFD7rTGxs7Pbt248dO8bj8czNzTt27MgtFHP//v3Hjx+TMMC14JYXwEW3t7cnYYArOHHiRBK+fv36q1evSBjgunOLhF+6dOnt27ckDFq0aMF9DXf+/HknJycSBm3atIEOI+FTp065u7uTMMAZ9u/fn4SxWYUKFSBGi+XYJoaIoL6hrm7evJnaOYHbjYYkRaqnMl5eXp8/f6YGg8EoTKCVunr1amho6J49exAWnI4FzaogaIBpAr8xprF8hCRx3gcBGvUHQcdEo/4gmFS6dGkay4dLgoDAae/YsUP47HnNmjWztbXFlrt27WrcuLEoGZTsVBHI7VQl22GDBg1CQkK2bduW5+x5Ghoa0ENBQUFoDPr27auvr08Tsl0OQBPEub6AJsjhVw4ODrdv32Y65i/n+/fvoi+GKjFSPZUJDAxUVFTU0dGhNoPBYDAYDMYfEhISgoODhc8/J9gBkAz2BRODwWAwGIwCQ3op8/+HgQwGg8FgMBhFDqmkTFRUVGxsLDUYDAaDwWAwBEhJSQkKCqKG3JBKylhZWe3du5caDAaDUSzIzMykoWINj8ejIQZDbly/fn3KlCnUkBtSSZkqVaoIjqhnMBiMYsCGDRuKvZpxdHR8+PAhNRgMuaGtrW1oaEgNucGG/TIYDMb/SU5O1tXVvXTpUnGaVjg7kyZNio6OvnnzJrUZjIKDDftlMBgMWXLjxo2EhISjR49SuzgCuXb58uX79+9zEwkyGEUaJmUYDAbj/5AVke7du1eMv2mAXEM/WElJ6eLFizSKwSjKSCVlIOpfvHhBDQaDwSjiBAYGOjo6IlC8m3nIteTk5F+/fh0+fJhGMRjywcfH5/Tp09SQG1JJmdu3bwsuAsJgMBhFmrNnzyorKyNQjJt5ItfIEEk0M15eXiSewZAHb968OXfuHDXkhlRSZvz48UOHDqUGg8FgFHHI4woS9uZDwsUJTq6B0qVLnzx5koQZDHnQuXPnf/75hxpyg33BxGAwGL9B97Fjx45paWnERHs/Z86c7du3E7PYULVq1cDAQGooKGhqaoaHh5cSWCGSwchn2BdMDAaDIRuOHz8uOGtcamrqqVOnitkEM46OjhAu1OCTnJzMxgkwijpMyjAYDMbv6dUvXbqUkZFBbT4JCQnFrJmHXMsiztLS0or3l+eMvwGppMzKlSt37NhBDQaDwSiyPHz4sGTJkmX4lChRQllZGYHSpUvb2trSLYo+UC1PnjxRUlIiWQMIIKcODg7x8fF0IwZDpty6dWvYsGHUkBtSSZnU1FTuvTKDwWAUXQYMGJCQkJDER0dHx97enoSPHTtGtyj6QMQEBASQfC1evHjy5MkkHBERUb58eboRgyFToBMANeSGVFJmw4YNuB+owWAwGAwGgyHA4MGDL1y4QA25IZWUUVFRgcynBoPBYDAYDIYApUqVKleuHDXkBhv2y2AwGAwGowgjlZTx9PT8+vUrNRgMBoPBYDAEiIiIePv2LTXkhlRS5sCBA6dOnaIGg8FgMBgMhgD37t1btWoVNeSGVFKmbdu2LVq0oAaDwWAwGAyGACYmJj169KCG3JBKyowaNapPnz7UYDAYjKJPcnIyj8dLTEykdnEEGUxJSUlNTc0yJSCDIXOaNGmSD186y34NpqCgoBx3WKpUKT09PWqITGhoqJKSUoUKFagtNcHBwWXKlNHU1KT2f8HtHRkZqa2tjYOSsI6OjqKiIk0ulISHh5csWbJixYrUzndwxcuVK6eurk5tAaKjo9PS0nR1daktI5KSkmJiYlCd2MIxDFnh6Oh48vixV8/tvvwMJB5Mu4JGU3PzkWPGDRkyhFt/sUgDd3rixIl7N69/9PT+lfJ7qg8VZSWTurV79hswefIUAwMDshmDkc9IvwaT7KVMt27dIAKoIQDaWgnmzRw8eLCZmZkM37T17du3bdu2S5cupfZ/efv2LZL279/fqFGjly9f4rhHjhypW7cuTS6UTJkyBTJi586d1BaNwMBANze3jh07qqqq0ihJ6dKlS//+/efOnUttAaysrDw9Pa9cuUJtGXHjxo3du3dfu3YNopNGMRiS4u3tPX3yxI+fPo5tUb1nvUpmBhpqKooZPJ5XcLzD18gTb4IS0hX27D+YDzOWyo/k5GQryzV79u5tV1d/dGNd8+qaVSv8vvGDYpOdfkRfdA178ilg+rRpGzdvUVNTIz9hMPKNAl5O8ujRo5cuXaKGAEZGRtuykQ8Df2RLhQoVmjVrlg8fxBcInz59wkWJioqitnyoUaMGlCg1GIzCx9WrV5s1bdJMPSFoS68Dwxv2NtHT1yijplJas6xS65oVl3Wv42vZeUe/mnOmT54wdkwRXVoS/ZZWzZo+v3nhw/JOT+a0mNCqen19deQR/+roqo1pUe3ezGaf1nT79Py2uVkj9D3ozxgMWeDo6GhpaUkNuSGVlHF3d/fy8qKGAND1LbLRuHFjmlxEaNCgwY4dO9hDV2kYM2bM8uXLqcFgFDKuX78+acK4S5Ob7hxsUk65NI39L+gujm5ezXl5x7MXbMxMG9HYokNkZGSn9m0aa6Y7LGrTsIoGjc1GbV01u/mt1DLjTUxMIH1oLIMhNV++fHnz5g015IZUL5h+/PihpKSkr69PbT7dunWrXbv2/v37qf1fAgICLl68OG7cOA8Pj1u3biUnJ+POmThx4q9fv06fPu3n51e2bNm2bdsOHTqUPHEiL5h69uxpa2sbGhqqqqraqVOnvn37Cg6SeP369d27d8PDwyGhkNS5c2eawB+rgcN9/PgR4YYNG44aNQqHFnzB5ObmBncWHBysrq6OPWtpaS1btoy8YMLJ3LhxA9vr6uq6uLg8ffp0wYIFt2/fRiAjI6N+/frjx4/nBvEgBhu/fPkSOapRowZyhNwZGxtjn2QDQdLT05Gdd+/e4fTKlClTp06d0aNHk8EuL168QMlMnjz50qVLuPy4NMg+zoF7DZSUlHTlypX379/jiPjhyJEj16xZk9sLpri4OJL91NRUHR2djh07du3aFfG7d+/+9u0blGj79u3LlSuHLCMyMTERe3Z1dU1ISEBJogSwc+642BX6r87OzmlpaVWqVOnVq1fz5s1JUpYXTCiEt2/ftmrVqk2bNiguXLVp06Yh3sbGBplF4Z86dcrX11dFRQVHHzJkCPdoEVfw/PnzSEJM69atkYpCgBjKUsFAlhdMuHw4cx8fH2RTU1MTvx04cGDJkiXPnTuHEp43bx53CJTnvn37qlatig1g4twuX76Mbig2QH5RzuQhnLe39507d2bNmoVrgQ1atmxZpF8uMHLk69evZo0anp/QuL9pZRollJC4lKZbnq/esHX69Ok0qijQq3vXsjFfrk1tLuIj/ElnnX3TK7x8/QZ3EI1iMKQAbQfa/QYNGlA7JzgXLTFSVdbq1atnb2aEExUVBdmxcePGkydP1qtXD40ilMTatWvR2iHD5ubmaOYPHDgg+N4KTdSiRYtwXzVt2hR/d+3ahcabk1/Hjx9fsWIFj8fDb2FaWVlZW1uTpLCwMGgCSAojIyNTU1PIEfggwfUv7927h3YOHq1x48Y4k8OHDx85coSmwXOFhOBUY2JiEIZoQ3jlypX379+HJIJYwW6XLFlCtszMzFy8ePHBgwc1NDSaNGkSFBQ0c+ZMbJ/jIyuc+fLly3GS5cuXb9GihZ6eHhpm7ApZQCoy+/DhQ5wVxArOGcULLbJ+/XryW+iYGTNmnD17FvE4Z5zV1KlTyRlmJyUlBfmFmED2UXQoeeyHDFuBaCAL4SISpUQ2xjmj2LFnnBUUDI6yZcuW3zviK0IcCI06RAB2BQWAE4aSIKmCPHjwAFcHAUgZ/IUwgvLjpyhAmT169GjSpEmxsbEoJdRdSEZoF5L68+fPCRMm2NvbQ59BJqJMLC0tufIXAnqQuMqQgPhhs2bNUER79+6FbEKSoqIiapfgA3MUL2IglxGGVMXJQHVxFxR5hIxDErQRDg01A5Hn7+8v/W3GKITMnTl9THMDEXUM0FNXOTHG1GLpYtw+NKrQg3vWzen9iTGNRa/CB0aYhv78UpwW0WQULOhpC9cxsgEtKxpRGYI+et++fddlw8nJCanQE+isT5kyBW0n2R7tOmLQYBMTHet+/fqhi09M9J6RiiaQmODEiRNcDFpKhK9evUqSAJQN+v3o2SMM5dGxY0cSBhAcOA1sjxYaJtrIzp07QxngiGQDNOo4NDbAbmE+f/4cYTSECKPZRtjCwiIjI4O/LQ8tPWK+f/+OMFpHhNGKkyQArYaYffv2Uft/7Z0FWFVJG8dZxcDuxO61E7vF7u52bV2711pz7e7uWru7u1DBQBAVRUVBAQW5fj/vnD3fXRC4gLqg7+/h4Zl3Zs6cOTNz5v3PqWsCBZJkWmf0EzEvX74kjJwi/Ndff6kkQLpxRLhYwhRI6pkzZ1QSqG1///13zTbh9OnTJB04cECZHD4H26RJE2Ui40hFDCkT/YSJX1cm0Hq2trYqjECkJdEByqQREFuVKlXy9vbGLF++POqBAO1AVTkEY67PIEcaNGigwt26dWMXeitRCMOgVatWyuzevXuNGjXoAmXSO6rrb968qWJMUQ2OoiLMrqnbixcvVBJSuFGjRlSPMIWQZNqYiCcOimrTGs2bN0dAqzdvwdHRkSRam/DBgwcpv3r16idOnFCpwg+GnZ1dzOjRXkyt/Wlho1D9VciVhrNbKyXCUzh/3llNCwQ4hBD/VrWzyZYpg1aEIHx70CHhJFxXZVheq1VsABAHrGUDYJqzYcOG+u9QsiDmf7Vq1ZTJStra2hqHpEzInDmzui2iaNmyZdy4cQ8fPkwYv5goUSJ1s0DRokWLGDFikEodcPmlS5fOkiWLSmJtjS9XYSCVPJSmv2udNGlSKqbCX6RZs2b6RdesWbPyXz02e/ToUepcuXJlY8pn8NBaKBApUqTAueqZ6UUvLy8Cpk8UchRayHj49JO6OMGOcubMWdTks4Rt2rSxsrLSjH9DK/Efzff06VMCHD5+Wr9kFYA8efJQK/0RXXQGWlNVib7Ao9OS6pCBRuhtxLTOiNFp06ZRn2Auv9PC+oFTCF3v7u5OmP/Xrl1DAZNBpSLk69Spo8LBU7VqVY4rceLEylTSRFWMQqg2jcbhYBJ/5MgRpHbMmDERlM7Ozmq0GLf7fImRYabGlYL6IGg0Q/ixWLF8eb1C6ZLECfUr1p1LpFm+JHJcsWCQ37pzp2XRdJptNg0LpXn58gUzpGYLQjjw9fX9DhcywyVlWHPjRTTDBNTDwkCUKVNGS7awiBcvnhb65yYZ3kWZEOB6fvbs2bWQEUtLS8p/+PAhYf6jkHBIiAwFrhTXywqbJTsBXccokhhRYfVoW4AMwb93nTx5ci30TyURGfynGhkzZjRGa6ROnTqoD1EkTJgwV65cZ8+enT59OmqgXr16f//9t5b2D6bvGCvxxI7QFi9evND1hAIdFmDXOuylefPmly5damKEpeTp06eDevUagUXJ+/btmzRpUvfu3WvVqnXx4kWVhBJC8wVoKBw/GkIvDblAF1NVNKuK+SKmDQi0oWpAJycn/gc4EKVxQwSph47ZsGHDmDFjUFG1a9c2PW2QIx4eHhcuXCB88+ZNGrB69eqE1fihC7RxY+TYsWNkJs/nLY1fdlIB4cfjzPHDlbKG5WtVFXIku+fo9K1f/fsqMMkUzpAkvlWoP4sVwzJKyUyJ2FyzBSEcbNmypW3btprxzQiXlMEz/Scf9sD/KReI72TlbftvWrdurT/5G0AVQYAYJRTCiX4ZQCdwjI6rq2vLli1nzZoVNWpU6okcNPMpQlXzwBUOfIw6lLx58+YhQ4YUKVLk+vXro0aN6tGjh7pEEQA7O7umTZuuWbOG9sTZT548GU2gkjgW/gf/MToEJVKpQYMGhw8fPn78uBZrNqqtArSY6ZW5YNi9ezda9siRI2nSpKECixYtMtWj+fPnt7a2PnjwIGH0VoYMGZQyVs1YvHhxbdAYqV+/frt27XRVbSq4hR+MWw7381h/4aOOIZIwVvQ0yRJyvmh2BOb27dt5w3SMkCdlnFvyVrbwNUiUKFFon6kNA+Fy5PjILl26aMY34+7du1rICJ7V0dExderPD+ulS5cOE+3SxoTcuXPjrlKmTBktWrR79+6prRSvX79++fKlCqdNm5b/AQoPkN9McKIPHjxQ6krh4ODwRcUAGzdupA4LFy5EVdSsWRNfa+Yna2PEiIFwpGTNNsJe1AWGwDx9+vTSpUsMoypVqvTp02fDhg2IFaZgIrUcJixfvpzmWrp0KeqnatWqOXPm1A+HneL4A+yFFVvfvn2fPXumzBo1aiALOnToQL9MnTrVw8NDxZuJeuM9wK+smzOTUsm5c+fS4/PmzaPrK1WqlDFjRtOWR+fRyKdOnUJsIWWqVaumlB8jh/8oPDVmFOXLl8+VK5e6MSf82Hzw9bWKFsZPRceK8flT4JoRgaGSVtG//IZ5iMSKYRkpjlGI+FSuXPk7PEX+Fa5JfGtQGydOnNAMC4sdO3bgKUuXLk24bNmy7u7u27dvV0mAq/7999/t7e2jR49esmTJ48ePm4oVXLXuoXG9rL9XrFihr/4pdtOmTSocKsqVK4dT3717tzIpMJiee/PmDdolQQLtAw8+Pj779+8nYKqEgqJChQocoOmF33Xr1qlHbQJz4cIFFIwuCHDhgW/Z6DulVrFixdIvSCC2aHOVGjt27AIFChw5ckT/2gTyEWHk4uKiP9qiLnKwef/+/Slq2rRpKt5MUqRI8euvv+7atUu9TgUUvnPnThUOBmqIRkGu6RerON4AehQl5+/vP3PmTE9PT/1JHXaXPHlyWk/vfQKjRo1iPChT+LGJZmnp6//5cmMY+OD3UX/ALiJDJX0/hvkY/SPFMQqC4ptImfv373cLBIt4LTmUpEqVCh8zduzY5cuXjx49GjeZN2/eWrVqkVS0aNGqVasSM2TIEFJnzJiB886ZM6d6TLh79+7x4sXj/9SpU0nt3bv3yZMndW/N4hvRg+dr27btkiVLFixYQCBsZ6/6+M3kyZOpBvuiHARWkiRJvnjrp2DBgh+NbwAtW7Zs7ty5rVq1Uu+Hr1692vRF8S9C5vTp0w8dOnT8+PEcEbtbtWqV/sRrAGgEpEa/fv2oEtn4T0OxuXoERG1Fe6qvMBcqVOjp06cDBgyg2OnTp3MItA/1US9LU1tapnPnznPmzEEOdunS5erVq/wPfD0J0UPXoHuOHTumRZkHu0aXtGvXbuLEiePGjevQoQP9SHwwt88ABcMe2ReboEL+/PNPjhdh5OTkpL8EnjBhQoQvehFpqytINhw0aBCSt3Xr1uhODqpTp07Ozs7f4SqjEBHInjmD3ZPQXTtUvH3/0fm5O1JYsyMw2bNnvxmmYwQ713cR/AdbBMGUqCNHjtSCoefAgQPPnj1Td2p0Hj16hC9hiR8AXGOpUqU+fPjAqh0Jon9cDhN3VbZsWX1hzdI8ZcqUuCjCT548KV68eJMmTa5fv37t2rX379/XrVsXUaK/AFWiRAl2d+fOHUQJC/Tq1aujmZQiiR07Nu6cTW7cuOHo6JgmTZqBAwf6+PhwhmfLlo0MWbJkQRW5uLioB0LJ3KhRIzIUK1YMn+ft7e3l5cXe0UOUzKqd+usP83IgHh4eHAiekppXrFiRI6Ko169fFy5cmB1t3LiRuSDwo6PslMLxtdSZujVs2LB9+/a3b9+mJatVq+bp6WlpaUlraLktPn+5jn3hhmlDjlqpNI4Ivcge8dxEWltbcyAqv47KzC4onH1xOBUqVKBi6o0nWpiAejylXLlybI4uuXfv3t27d+kOqlSzZk2alL1TCBUmD61BF9CS6dKlQ9zQMsb9fO7xXLly6c8F58uXz83NDTFXpEiRly9fsq165YpuRZXqL0nBq1ev6CN6kDDNaGtry5HShtSqefPmbI7+oLsDazW9OxCmFE6XcYwPHjwgJw1Cs2My3tBnKj9HdPTo0a5du5p+u5nKsGtqxUHRHTgn5JQaGLQVkPqj/myFcPPW7Xv2t2rlCfUPnR668/yky4fhI775h9jDD/PS+Olze5XPHC1q6JasHw2fft9s16N3nwwZMmhRghBWcCvM5Llz59bsLxH8ktUcPr9CApoVSlim4zxYCmv2zwreHY+IANJso3dv0aLFiBEjkDhalBAsFy5cQM2Yvie1fPny1atX79q1S7+QFmZmzJhx/PjxTZs2mflYkvDDc+nSpfJlSj2dWD1uzNA9TVJ7wYXclZuNGTtWsyM2uXNk61s0QdsSoVMk264+6b3D0dHZRV9eCkKYWbZsGTO56XcuAhN+KROukdqsWTPTb7r8tNy4cWPgwIF79+5Vpqen55QpU9QFAxUjhMiaNWsGDRrk4uKizDt37mzYsMHGxiacOsbb2/vx48f79u2r+e8fuxB+cgoVKpQ3T55xe+012zzOOr46dMu1U+T54YKeffqN3X/fx+/Lb1N+ET9/wx977nbr2Vt0jPBVKFu2bLdu3TTjmxGuqzKCwt/ff/z48QcOHEicOHGCBAmePHliaWk5dOhQdetEMAdEzJAhQ/hvbW2NQnd2ds6aNevEiRMD310KFZxFBoOBMhctWhTUN3WEnxNWIMWL2uzrUbxUFu3p9eDx8PErMvF46259Bg8eokVFeBj8JYvZ5InluaC5uT9QP3DrzT3O/pev3ZTHfoXvxn98g0kw5dGjR+rxl2TJkrHmk4kgtKAI7ezsaEaGdbZs2QJ8lC9sHD9+nGJtbGxExwiBWbBg/pAB/fZ0K1Y0YwiK2d3Lt+a88wkz5t6+a0/kulzBCWVTqEB7m5Rja+UM0V9M2u8w4ZDjmXMX1ENjgvB9ECkjCIIQdmbNmjlk0MBRNXL0rpAlapQvz6dH7N06rr2eq6DNuo1bgvqdkIjM7du3q1exzZXEckGzvKkTfLn+bm8/9Nh44+TDtzt275XvXAvfmf9Yyvzxxx8JEybs3bu3ZguCIEQ2Tp482aldmw/v3nQsnqZqzuS5UsdXr/w8fOl1+v7LReeeXHF6NebPcT179gz/hPtf8erVqz69em7esqVh4XQtCqUqmC5hotifXwL18PG78uj1ustP1513trW1nT1vQYoUoX6rSxCCYdeuXevXr1ff9QiK/1jK9OnTJ1GiROrDJIIgCJGUjx8/bt++fcnC+WfOnvV5/yFG9Gj+/ga/j/65cmRr1qpN27Ztw/nMVgTh5s2bCxfM37X9b+cnrnFifX6g3svnQ+rkSatWr9mpc2e5GCN8CzZs2ICOCf6Tp/+xlPHy8ooSJUpkvOIqCIIQGCZDJycnZraoUaNmzJgxqB+Fjey4u7u7urpysMmTJ9e/2S0I3wLWCe/evUvwz+dJv4g8KyMIgiAIQiQm/FJGvhwgCIIgCEIkJlxSxsHBwcnJSTMEQRAEQRBMcHd3v3z5smZ8M8IlZWbMmLFkyRLNEARBEARBMGHnzp2DBg3SjG9GuKRM0aJF5aF3QRAEQRC+SI4cOcqVK6cZ3wx57FcQBEEQhP8MeexXEARBEISfGpEygiAIgiBEYsIlZapUqRIlSpQFCxZotoVF3bp1CxUq9PTpU2VeuXIlX758PXr0UCaMGDEiT548R48eVaanp2exYsVMb6Rt3Lgxd+7cs2bN0mwLi8aNGxcsWNDZ2VmZN2/ezJ8/f+fOnZUJY8aMocwDBw4o09vbu3jx4qVKlfL3137aftu2bWSYMmWKMqFly5YFChS4f/++Mu3t7Smzbdu2yoQJEyawif6BQl9f35IlS5YoUeLDhw8qZvfu3WQYP368MqF9+/YUcufOHWU+ePCAXTRv3lyZMHXqVDbZunWrMg0GQ+nSpamql5eXijl48CAZRo0apUzgMGnAGzduKPPRo0c0b8OGDZUJs2fPprnWr1+v2RYW5cuXL1q0qIeHhzKPHTtGmaZfZO7Zsydl6o+Uu7q6Fi5cuHbt2sqERYsWUebKlSs129jRNjY2r169UuaZM2fy5s07YMAAZUL//v2JOXv2rDJfvHhRpEiRatWqKROWL19OmYsXL9ZsC4tatWqx32fPninz4sWLlPD7778rE4YOHUrNT5w4ocw3b95wXBUrVlQmrF27ljLnzZun2RYWDRo0oH0eP36szGvXrnGkpr8vP3LkSMo8fPiwMt+9e8fwoxf0e6ybN2+mzOnTpysTmjZtyvBzdHRU5q1bt+jlDh06KBP+/PNPyty7d68y379/zzhhtPj5+amYHTt2kGHSpEnKhNatWzM2HBwclHn37l1MIpUJkydPZpPt27cr8+PHj4xnivXx8VEx7I4MY8eOVSZ07NiRilE9ZT58+JBqU3llwowZMzi0TZs2abaFRZkyZTj8t2/fKpNmoUyaSJlA09GANKMyaViat379+soEGp8y16xZo9kWFpUqVWKovH79WpknT56kzCFD/v9T0nQxHU13K/P58+cMg5o1ayoTlixZQpkMGM22sKhevTrDiUGlzHPnzlFCv379lAkDBw4k5vTp08pkoFKHypUrKxNWrVpFmQsXLtRsC4s6deqwX32m4nTgSDk1lAnDhw+n5vpMxQnF8DOdqTZs2ECZpjNVo0aNTGcqTlvKNJ2pRo8eTZkBZiqGH1OBimFyIAMThTKhRYsWpjMV0wu93K5dO2WCmql27dqlTDVTAQEVQxIZyKZMYHPTmYrC2QU7UiYENVNRYRXDIZCBw1EmBJ6paAoaRJmgZioaTbMtLGjMwDMVza5MCDBT0Vl0GR2nTKBDKZPO1WwLCzrddKZiSDAwGB7KBIYNMQwhZaqZigGmTFAzlenrLAxO9stAVWbgmYrhTc31mYrBTx1MZypOEMo0nak4iUI1U3GScqpywioTOJEpk5Nas/+ZqTjxlalmKqYFZQLTBWXqMxWTCVMKEwvTi4phwiEDk48yQc1UTFDKZMoKMFMxrbEJU5wymfQYexTLNKhi1EzFJKnMbwiTOCM1bNjZ2eHwnjx5otkGA92MP6ZplElj7dmzhzZVJty7d49TCwWj2QYDkwWuUTMMBsYWAsLFxUWzDQaG8v79+2kjZdJGtA6CRpmAaKBMTgnNNhg4K06dOqUZBgMjmwxMMZptMFy9enXfvn2c7cpEoGBev35dmcCAYBMGpWYbDIxU0AyDgSQykE2zDQZOYypGUcqkcKrNjpQJVIBNqIxmGwxUkqpqhsHAIZCBw9FsYwvTgByyMmkEJhEaRJnAyUBzubm5abbBQGMeOXIEGadMzgHKpNmVCbdv36ZMZiVl0ll0GR2nTGDKoExEhmYbDJz5nFR6mSgAlBzDWpmAFiQGTaZMch46dOj8+fPKBEqjTErWbIPhwoULpkOF+lAC06sygfOHmlN/ZVImx4VaUiZw1JRJC2i2wXDp0iXaRx8qavjRhsoEZm3KDDD8mO80w2B4+fIlGZiINdtgQI7Tj/pQUcOPvlYmoHLYBKWl2QbD8ePHceGaYTC4u7uTwcnJSbMNBmYuxps+VNTwI1KZQGY2YUPNNhgokGI1w2Bgd2Rg15ptMHBGUDHToUK1qbwygYOiuThAzTYYOHAOXzMMBpqFMmkizTYYOHNpQJpRmWr40cjKBM59yjQdfnRQgOFHt9KVygS6mBjT4cdQYTAoE9DWlGk6/BhI5NHLZJhRAkNOmcBQJIZhqUxyMlwZtMoE/BBlBjNTUR+OlFNDmRBgplLDL8SZynT40ReUGf6ZynT4MVTo5XDOVGz+1WcqDpODDWamoqFoLhpNs7/GTKWGH52r2V9vpmIQarZxpiJP8DMVMeGfqUwdpTkzFWUGnqlMh1/EnKm+iPGR3XAhj/0KgiAIgvCfIY/9CoIgCILwUyNSRhAEQRCESIxIGUEQBEEQIjEiZQRBEARBiMSIlBEEQRAEIRIjUkYQBEEQhEiMSBlBEARBECIx8l2ZiMLatWuXLl2qGYIgCMJ/h62trekHzYVvSvi/KyNSJqLQqVOnZ8+emX6WWxAEQfj+nD179v79+/rPVgjfGpEyPw5ImeTJk48ZM0azBUEQhP+CFStWLF++XKTMd0O+9isIgiAIwk+NSBlBEARBECIxImUEQRAEQYjEiJQRBEEQBCESI1JGEARBEIRIjEgZQRAEQRAiMSJlBEEQBEGIxMh3ZSIK5n9X5uHDh8eOHbtx44anp+cvv/ySPn36QoUKlStXLkaMGFoO4cfCwcHh5MmTN2/efPfuXZQoUTJlykSPly1b1tLSUssh/BycM2Jvb+/n5xc9evRff/21WLFiDAYtWfhKyHdlvjPyXZmfi+PHj9uWK50jW9ZlY7r7n5ydxmFVqjsrb60b3aVlgzQpkw8eOMDDw0PLKvwQ7N27t1SpUvny5Vu0aNHr16/xXkgZZtiWLVumTZt21KhR3t7eWlbhx8Xf33/evHlZsmSubGu7fMlCp3u33R47OjrYLV4wp1zZsr/+mmPp0qWyIhV+ZuSqTEQh+Ksyvr6+vXt0W71qZf8CHzvl/pQithavoP+OPLIYfyXm7bexVq7dUKFCBS1BiLR4eXkxJHbv3t2+ffs6derEjx9fSzBiMBjOnDmzePFi9M369ettbGy0hJDw9PS8cOGCZvybVKlSscrXDPNASFGNnDlzpkyZUosKH+/evTt37lzu3Lk5F7Sof3Pv3j0XF5fy5csTdnBwcHV1LVu2rEr6UXFycqpfv/4z1ye2ZYrlz/2rpWVULcGIr5/f5eu3Dh47myVrtg0bN9KJWoIQDuSqzHdGrsr8FPj4+FSrVP7S3jV2LfxGFA2oY4BRUCGtxaE670fmda9UqVL/fv20BPPAPeg4Ojq6ublpCRGPx48fHzlyxN7eXrN/UDw8PPDQ9+/f37p1a+vWrQPoGIgSJUrJkiWXLVtWr169YsWKTZs2TUsIidu3b9sGwaRJk7RMZvPo0SM23L9/v2aHGw6ZAo8dO6bZgVi4cGGVKlVUeNasWbVr11bhHxX6q3DhQnGtLAd0b1c4f+4AOgaiR4tWrFC+QT07+Pt6W1tb37x5U0sQhJ8JkTKRgA5tWr53vnKs7vt08bSYoOiUx2JSaYspU6eytNWiQsLX1zebCZkzZ06RIkWOHDmGDx8e0TTNtm3bsmTJUrFixd69e2tRYQI9tGTJkufPn2t2BOPTp0+NGjWysrKaO3dukiRJtNgvwVIGodOiRYu+ffveunVLizWD7t272wVi3LhxWnIkoUSJEu3atdOMH5FXr15Vrly5cL6cjWpVjhbsc1HRo0dr0aBGiuRJ69Su/fbtWy1WEH4aRMpEdDZt2nRw3+6t1d7HjqbFBE//QhYTSv3StkXTDx8+aFFmwMp+t5Fdu3atXbu2aNGirNELFy788OFDLUcEYNq0aenSpXN2dl6zZo0WFSZu3LjRsWPHu3fvanYEY/78+azFJ06cGC2aWV3er1+/NkYMBoMWFRIopF8DEenuTTRt2tT8y1GRkV69eiVJGLdGpTKaHRJDe3eKES3q4EGDNDs0IKAvmHD58mUHBwfzR9RX5/79+3KFSTAfkTIRGuaXoQP6TCr+IXksLcYc+hX6FM3HbdmyZZptBsmSJatqpFq1ak2aNGFbNM2TJ08i1Kr3zZs3WbJkSZMmTeLEibWoHw5fX98//vijf//+sWMHuo8YNF26dHF1dd2yZYtmh4MVK1Y0bNiQru/UqVOKFCmsra379Onz/v37VatW5cmTh5bPmzfvokWLtNxGfHx8hg0bRtegkPLnz7948WLTx+/c3d05nIwZMyZNmrRIkSI7d+7UEozs2LGjVKlSJGXKlIkdBbii4O3tPXLkSFWyjY3N6tWrtQQjs2fPrlu3rgqPGjWKveB9iWEwU+2uXbt6eXmpVLC3t2/QoEFKI8i+a9euVa5cGZ+tJf/DgwcPKlWqtHLlSs02wo6qV69O1xCmSuwrW7Zs1JkGoblUHsXFixdr165Nu1GH8uXLb9u2TUsIPbdu3dq8eXPDmraabQa//PJLw1q2ixYvevTokRZlNnQxCxgdljE5cuTgXOvRo0cYSgs/AwYMaNSokWYIQkiIlInQHDp0yOP1q+bZNdNMov5i0SOnz4I5MzQ7TDCht2jR4sSJEy4uLioGxzBp0qTSpUszzTVv3vz27dsqnqUbbu/o0aPM43Xq1ClYsCDz/r59+1QqMBWyvmR+JInpac+ePVqCkevXr+NaKLNkyZLjx49XDiMAp06d6tChA/71xo0bBPB/Kv7cuXPNmjUrVKgQtZoxY4a/v7+Kh4cPH/bs2bN48eL58uXDaeGNVOrgwYNnzpxJgGOhKHwn3osA1TBu9xmOlBj1CAg+j6N7+fLlwYMHKWfy5MlE4rynTZtWtmxZqt24cWPTbcPJ1q1bETFlypi7EFfEiBGjfv368+fP1+xwQGvQdxwazTVixAgExPTp06tUqTJkyBB2gczCX/7222/Hjx/XNrCwGDduHCKjbdu25E+YMCHNNXz4cJXk4eHBsaxZs6Z169ZEcmh4et39L126lAGDE6Vw1Njhw4cZcioJGFekjh07ls5FPVClbt26bdy4UUs2qpMjR46oMF2ASGJfqVKlopKIclpDvxGJLEBFXbp0CcfMAEDxcCx06IsXL1QGHSQXI4fRotlGGFrRjTA4Gds0SL169dhLhgwZOGpqqLJxsiDLOC/Y79ChQ6k/ewnVisKUBQsWFMybM0H8kG4q/5vkSRPnyp51yZLFmh1KaOQzRk6fPr13717OVupP0925c0fLIQgREpEyEZo9O7fXz+QfPeCjfiHTJLvFzdt3nz59qtlhAs/N8nrXrl2Ecfn4CZwWazXmayY7BAT/SWLKZiGOMrC1tWWpWq5cOXxMjRo1zp49S+qzZ8/IuWnTJv6TxERPku6QcD9MlHZ2dixhWQLiHtjpx48fVaoO2sLZ2RlHgoYg8ObNGyJxn6gfzAoVKrDfvn374jnU9QBHR8cCBQqwqM2fPz+azNPTE1mjHmtFD6lngKgY2+Kwnz9/jk81XXriXIlR17ednJw4uuXLl+MdqScx1KFixYpUNXPmzHjZK1eu4O9xw8ZNwwutTQuE4Xl+XCzywsx3s/FP9GYAHj9+rFJp7Xbt2i1ZsqRr1650XOrUqenokydPcsg044YNG8iD21aZgTZExSJHSEVbNGzYcMKECer+3ejRo5HCbK62JZU+oqfevXvHXnD5aEHGye+//96vXz8KMX0Tat26dUh5eo2aIGImTpyIXKbXtORAsEf05Zw5c8i8aNEiZND27dtVEjuysrI6f/68qiTHwoBRSQGg5Vu2bIno0W+tomWRd0QSpnBUNbVCc3fv3p3yKRkpowZP586dqT/bDho0CO1ONgbhyJEjjcWEmh3bt+fPFcpFjJF8ubL9ve1vzQgliRIlUldlihUrxjikPRH07u7uyFMthyBESETKRGiuXjxXKKmfZoSGeNEtsiSzwstqdphg0cl/tXJllcmEjrNhsTh16lTcfM6cOTt27KjfTWcZh6vAhfz1119M9yxhlc9jun/58iVhVrokUaVMmTItXLiQJBRGq1atWOBSLI4K14WywUeyC2OR/4dZlTU09UE0EGArV1dXpldgv2y7ZcsWlv47duxYv349+XE5CA6KJTB58mTqw07ZkKSVK1eqZTRHQUyCBAk+7yAk8M2UjAzq37//mDFjrl+/jntG4kyZMoWmwB9TEz+/sPRUAK5evfprKN+IVqRIkYJjMfP6UOzYsZMFwvSDe126dFGBKFGipE+fHpfMfxWTMWNG/pvKzQ4dOpgqA3VBYuvWrchKOoX+1bdFKKBjcI3Hjh1D1iBoevTooe+XMUOqCgO9GTNmTHSJZltYUA0EpWYEAjfcpEkTzbCwyJo1KzsiwDBDAzVr1kx/wZs9otJUODCMLuqpq22GVsKECdHfhDkcNF/BggVVElBhFPbu3bvR6Ch4hoH+uhl7YUgjgk1vt5mJh4eHy+PHaa3D8op72tQp7R0cvspohBIlStAgjHZ0v4qhVQcPHpw7d26kPAKas0zFK5gEUKskMYz79Omjf+kKwYrGvXz5MpqVqYMMNWvW5MRUqSGybdu2atWqMfaApQurFCI5xxs1asTpr/Io7t27py65KZMphSUWp3+ePHlYienNMn/+fKpH340YMYLlGepWxQuRFJEyEZpnL16miauFQ0vaRDGDWcKaQ9So2uUg/NaqVatatGiRJUsWFRMnThyWnnfu3GHNqmLwWDgPFWZtimdVrwjhBviPdkF8EMBdMZ2pmQgnwUzHel2/CIFkKV26NA5AmcGwdu3a9+/fmy55GzduzPSqtm3duvWBAwdSp06tkt6+fevv7x/4Yo/5MJs3aNCAAG5p2bJlTMq5cuVSSbhbnDeLePPfGgsGGg1VoRmhhGY387UsHMCmQNBlWrKxf7WQEXpNC30JvSkU9AIdivBFQ7i5uaEdY5iAFCAPjt/JyYkAXs24kUbevHm1kPF6GB6ITTTbCA5JCwUCOaUPJCCsdDY1IZAtWzYVr9DHamBQzKVKlaJBlMlYZWipFsBNIsLUgSiUsONEuH//PoEAh8P5Uq5cOdNamQn9aGkZNU7s0Dwi9w8JEsTDYb9+/Vqzw03FihUZ9sg1wq9evSpevDj6DG3XsmVL9A1aR78kybqFpmPx065dO7ZC65PqZXxiycXFhfOdgbdr1y7+qzvUZcuW1W8WBwOzB+qE851iOROfPn1KCYgPKysrtMiff/5pejGSmQH5osYJa6fatWsj3Fl0qStkdevWVcqSWWj//v2UhhJijgrVo2lCBESkjBAkL1++5D9r/cePH6M51q9fjwPQYU1D6o0bN4x5LdKmTasCClbzypEwB7Vt25b5xdramoUay9bjx4+rlat6f5jFmVaikStXruhlBgPb4iFKliypbWYEp6W2ZSJDx0ybNo3Z1sbGJlWqVOF8dJF5WQVoE9wMc6W2SyOdO3cmyZxq/5AEuACAibegd/D0mFWqVFn0b9TdOiWU9at6CtOiLC0tA6RCgH2Zg1ISrOCVqQj+jWU8HOOQ4cQwc3Bw0J/gQbYWLlxYO4x/4HCaNWumHKT6/4OhTm2ljQYOHOju7n7p0qXx48ezCEEQFClSpEuXLvTUu3fvONNR/JzgQ4YMmTlzJgHEH3rCWMxn4sWLd/XqVTYcNWrU9evXOXeYEJAjWnIQcCKjnxBMw4YNQ47s3buXSHUdBY3CfjkfjRk/tz/TFDIrefLkdBzLLfa1bds2AnQTs9CePXv0622Ojo729vb8P3PmDEJHRQqRFJEyEZoUSZO4hPUjEY/c35uus8OAerSTuRtdQqBgwYIoA50OHTowH7EEN+YNEjzWkiVLWLPOnz9fvfLNOkld4VDODDeglWikX79+TJfGTYODbUHb5h/YsGfPnqQuW7Yse/bsTGqZM2fu1avX+fPnixYtqjYMG4kSJVIBVWekkrZLI+3bt6cpTO87hBmm4DB/zsfV1TWoj+R+U2heLWQEP8d/ZCuOH18VPXp0lIFO5cqVWV6jj9W6WT1QpWNaFBnu3r2r9LROgH2Zg6pDgJeVTJ/1CUzDhg1jxYqFz9u8eTNDCD+q4qkSWko7EiP16tXjcJDm6oJlgFu6+PucOXOG6KoDQz9+/Oj/zissv0rx5o1ntGjR1NXQr4I6/VGEHz584JziqPXrnajVvn37cnYjUHbs2PHmzRvOQf0qVP78+atXr65f34IBAwZYWVmpcJw4cfr3789oV/NMMKxZs2b16tV6sUhM/qun+BHKrJHQKMaUz8sJFAyKijBbcbYyn6gkYNrJli2buiQMHM6cOXP0YxEiNSJlIjT5Cxe99MK878n8m7e+FvfcfMKz1Hjx4gUSJGXKlDY2NpztLKdwCcNNYCnGgixTpkzaBkFw584d1k8ZMmRg/USBTk5OrHFZJ928eRO1QQakjFaiEeY+9Vn64GHbjx8/du7cWdvMiK2trbp/wYyJbMJNsiajfPRWMKt5NVObrqefPHmihf5Bn0bRNLgZDkfbpZHu3bvTFPrdt/DA7H/7n1fDQsWzZ89wJKY3aL4bS5cu1V047oEGQTrg4zFp/F27dh06dEilwrhx4/r06UMG9AGDZ8KECfrjxng1/W0gaN68Oe4KT6lfm9m6dWswHwIOCkRJ/fr1t2zZortMHN6sWbNU+IvEjRu3bt26+GD2aPpSFYfDka5atUqzLSzmzZvXtWtX6ol0Y5jNnTtX3TiDp0+fYiohpWLMB22Uxtr60ePP92RDy6MnrtmzZTPzo0TmoLQ12sjFxcXb25s1SVIT2hm/16AuXxFQz+Dr7Nu3j3j93m6+fPlUQKEmKPuQPt7NVnZ2dr179y5btixzEVOElmBcWrCQ2Lt3r5K8GzZsYP2mHqhS+02fPr1WFSOOjo7qYjCgw8K5whEiDiJlIjTVatbe8iCq7/9fMTaXdfYWuXNkDfNHz65du8Zy59WrV5MmTcLTM18ws7PKYSLQclhY/Pnnn6xyQryizlbMbvqGzLD68wQ1a9ZkNqEcvRD2WK1atQDf6vgi1IeKmXo+9EfFihXxWHg+ykFwKI0CrMjxQPpelC7RHaT6oq56O0kxLdgPr3HUODnT11OnTJlSp06dMCy+A1OjRo39+/eH2KqB2b17NzIOt63ZwTJ16tS0gegU1rdUcOHoEuQCapXOPXr0qCqfJNboaErGEt1K+WRDQ6BmVO+w1Pbw8GAT5EKbNm1y5Mhhei2hZMmSbI5uoHxKxoE1atQIqaclh4YZM2YgNBkeqORKlSoVLlyY8UO8rlAD06pVK84CRkVL47tLCipJ77du3bpcuXIcDgVSQ5SZelpo+fLl+E78rrpWR1Xfv3/PwaptQ0ut2rWv2oXlBzqu2TnUqVtHM74G6o13ljRKHrFgYIWgM2bMmJkzZxYsWFA9vt2vXz8twQgTCGeT3s4BBra6shJMLwCbIIsZXV5eXrTq2rVrA3y3Ey3FucwpSU510UjVhNpaWVlp9fgHTtVB/3xCEMGqLrIKPwDBfQxb+M9hroyXINEa+6dt//U0YQj4f7KYdcuq6/Bemm0GJ0+eLFWqFAGmg+fPnz948ACniANgZawyjB8/ngWxusfE4uby5cs7duyYPHkyvif4x2lxQnPmzMGfNW3alA2ZhpiMcLrqzhS76Ny5M+snXJ2fnx++jVmJZb3aNhgyZsyIjhkyZAj+BqnEYhEBRGX69++PjyQGTYPLwYHdv3//77//TpcuHYu/devWUQ11343FdPbs2ZctW5Y5c2bcz6hRo1hG42IPHz5MHXQZFBhyHjhwgPUcDpiiWOKzr5EjR5q+SBxmmLV79ux5/PhxFqBalBl8+PBh69atCAjNDhrUrekld1OUxCxRogQZTA+fFjN1NuqiPdkIJ06cmDAKw93dnW599OgRPYv4oLtVZqTqoUOH6FaUlrOzc968eSdMmFC6dGmVindEK+AIb9++HTNmTEQtomfu3Lnqch0w6miHlStXuri4UHNEEtLn9OnTKpWzQ7/xV7t2bX2nCvZiqlYZsUgN/uPhGCRsyIDRb3YEhiE0ePDgBAkSqPf4FLQD6/7NmzfT2hwOcm3nzp36RQK0C4czf/58pZu7d+/etm1ba2trlRpafvvtt4ILF1avWCpUn5Zxe+luZ393W/sOmh1uaHnOkfTp03N0tCcNwjjn0LRk4xKC2YNIdUbTX6aXOugsukxXDBcvXjR9QU9dzMsa9CPYwCZMNQybAQMGqBj1YppOmjRpmD0YfsxOTk5OyE0Vz3hG2TRr1kwfJLB3714UjGYIPxDyy9gRBRZ5+NHAv4zNaqNbh1a3mn9IZvbbDJMu/bL0cdprt+zVc5fBw8KIs10zjI4qTpw4TAosg9TlCh03Nzf1AjPLI5yNelCAeCY4vB35cWkqJ/Tq1Qsf0Nv4jTKEEaLnwoULbIhDYlWnvvOhciIdZs+efffuXXwM8yBrXLWgDwweiCqxDtZs45uWCxYscHR0pDR8T9++fWlD4l++fDlixIhTp05xdEzB7O7x48fonlq1ajEnkgF/eebMGcTTokWL4sWLx3RM/nPnzrGeo3poKRwJzVKzZk1m0r/++gsvi+Ix7vMzTKasNZkW3717RzyaxvQ14HAyb948lvIbN240/60KFCGK6vz588EosJ8Z/By9rF6oVkyaNGnYsGEMaXyzFhXxYFzdunG1Y4v6mh0SzORzlq0vX8F29pw5WpTZ+Pj4MN44o/VHSSgN7dilSxe1GOBcIJJpCjF39uxZXZF06NBBCTumDlRF4cKFOSvV9ZsXL16wSECeLlmyhPHMOcLJwlmmtIWnp2eRIkVev36NWgp8D46a3DHChFO5cuVZs2ap1/KpFR2HxmXxwDmrMrNHtGydOnXYo3ocGO7du0clOZH1Dx5SGmKac5mZhCXW9u3b1b2zwCBzEb4cvmYL35jgr8yZg0iZiEJQUgaaN27gfH7Pgdpm/QzTnocWDfdEO3T0uNwGjqRwPjL741pQS8olBA+KitkZ76LfuRMC0LZtWzw0gqZ69eqoPVoMt4pu1r+hFzF59eoVUiB39oxm/gzTll0HH7m+uHLlahguPCgpw4bIERXz/PlzKoDsML06S0yJEiUQH0iNZMmSIfRZMCxcuBBBQyrt2bBhQ5YitDOrCCQOg5k1DGUqKZMnT55nz56xLQObVHaxbds202dfdHQpg+JBALEKYr2EHkWpEEY5ZcuWjRNEPRv38ePHjBkzslxZvHixenZHMWXKFFQLixn6mnIQYenSpaPOMWPGFCkToQi/lJE1XCRg8fJVMdMVKLstppOnFhMUC2981jFLlq8UHRN54axm3vf29u7atWuA93cCYDAYmHORv+QXHRMMU6dOLV++PAt3XHX8+PFr1qxZvHjxJUuWaMkRlcSJE+/bt+/itVsbd+z3C/Y2rq+v3+rNuxwePNq3b3/YbqBYWlqymkIulDSCRGjfvj2+H9Gg6xigSkiTYcOGubq6njlzJlOmTIcPH1Y6BmhhhAJNffnyZTs7O+KvXLmiayNYtGjR8OHDHz58eOnSpYoVK1LUF3UM2NraNm7cmADy5cSJE8ggCrx+/XrdunXZ79ChQ5Ej+gv2VL5WrVpIMYSUilH07dv30KFD2bNnR+hzIFSbABuSVLp06datW6tswg+AXJWJKARzVQZ8fX179+i2etXK/gU+dsr9KcW/7zzQf4cfWUy4EvP221gr126oUKGCliBEWlh6MiR2796NR6lTp47+DVkFIub06dM4Y3d3d/yNjY2NliAEzZMnT9TbK7ly5QrzE/HfHycnp/r16z9zfWJbplj+3L9aWv7rSVVfP7/L128dPHY2c5asGzdtirDHpa7KIHHyh+nB7eDhdMiaNSvy62vJU7kq852RG0w/DsFLGcWxY8fGjRp+4vS5ItbR8yfyTWRlYfhk4eD+y/kX0b38Ldt16Dh46LAAPk+I1OzZs2f8+PEsYXPnzs3iMk6cOMzajo6ON2/e5OT/7bff+vfvb+ZbS0Lkxd/ff+HChVOnTnF77pY+bepUyZNaWlr6+fk9ff7iofPjNGnT9OvXv23btuH3B9+ObyRlPD09aZx169Z17979woULhQoV0hLCh0iZ74xImR8Hc6SMAk924sSJ69eve3h4RIkSJUOGDAUKFChfvrw5D/kKkREHB4eTJ0/euHHj3bt3UaNGzZw5c8GCBcuWLateOhV+Hs6ePYvDvnPnjq+vL+d7zpw5ixYt+rX89zflG0mZw4cPV6pUiUC3bt2C/1ZQqBAp850RKfPjYL6UEQRBiFx4eXm5ubmlTp06DB8MDIa3b9+yrkuSJEmRIkW+4kUpkTLfmfD3nTz2KwiCIHxbYseOnSFDhq+rYyBu3LjVq1e3sbGJyDfXhO+ASBlBEARBECIxImUEQRAEQYjEiJQRBEEQBCESI1JGEARBEIRIjEgZQRAEQRAiMSJlBEEQBEGIxIiUiZQ8fvx49+7d69atW79+/fnz59+/f68lCD8cnz59unv37rZt2+juTZs23bx509/fX0sTfjLo+lu3bm3evJnBsGXLFnt7e4PBoKUJwk+MfCIvomDOJ/LevHmzcOHCxQvmOTo/ypIqSaK4sQyfPt178vKtj2+NalW79ugpv770I+Hs7Dx3zuzly5d6eLzNkTFZLKvovn7+dx48j2pp2aRJ0+49eubOnVvLKvzo3LlzZ9asmWtWr/L1/ZA2RZxollEYDM7PvGLHitW6dRsGQ6ZMmbSsQriRT+R9Z+Rrvz8OIUoZFmHdOnfKmjRWt1JpauZJFTvG/z9af/f526VnnBedcipVpuz8RUsoR0sIDZ6entevX/f29k6RIgU+MkqUyHHF7u3btyi8VKlSRY36r5/Zi9RwSk6ePHn0qD+qFk3TuVbGMvmS47pUksHw6ZLDq0W7HNcedOzYseOEiZO/1g9WuLu7s+L38fFh/ESiAfDD4+fnN3zY0Bkzpttki1o6x4dMKSyi/DPt+xss7j21OH4nxuUHhsGDBg8dNvxHOgv+Q0TKfGfka78/C6NG/tGhTavpdbOd7FOiSeG0pjoGsiaPO6FuLodRlaI9v5MyZcrQnoFIgdatWydNmrRMmTJVq1bNnz+/tbX1qlWrtOQIzPDhwxMmTJguXboNGzZoUWHC3t7+4sWLmvFfg+tq3LDewtmTDk4tv3l0iYqFUuo6BqJE+aVIjiSL+he5srjq2cNbrKysnj59qqWFlcePHzMAkIMMgCpVqjAAUqdOPX36dC35PwIxh2NmcGr2TwlKvWL50ptWzx7R8GP78h+ypPy/joGoUSyyW1v8VunD4Lp+i+dNihsnjpeXl5YmCD8TImUiATOmT583c9rp/qWbFkmrRX2JJHFibOpYOFPSOBUqVHj+/LkWGxKfPn2qVq3axo0b//jjj0uXLtnZ2W3ZsiVRokT4NgJapggJLnzcuHFNmjQ5ffp0uXLltNgwMWrUqMaNG2vGf03H9m0f3Dp3Yb5t8VzJtKgvkS1t/BOzPt9PLFumlK+vr4oMAy4uLiVKlNi8eXP//v3Rc3fu3Nm0aVP27Nn79OnTq1cvLdN/gfF68Wc0++fD39+/Xp0ab55eG1z3vXUSLfKLZEhuMaze+/cfPtStU/Ort9j9+/eHDBlSt25dJopWrVoxPORpLSGiIVImonPjxo0hgwdt72yTM1V8LSpY7v9ZrbFNho7t2mh2SBw7duzcuXODBg1itipQoMCvv/7KnHX8+PG4ceNOnDhRyxQhcXNzY9auVatWsWLFUqZMqcVGctasWbN/787dE8skjh/ybaMY0aJ6H2oRK4r3uD/HalGhp3nz5gjfw4cPjxkzpmDBgtmyZatfv776weFZs2ahbrV8wndnyl9/2dtd6l7lQ4xoWkwwWMWwmPObxfUr5xYtWqRFfQ2GDx/OnDBjxgwPDw/M8+fPI/rz5ct37949lSFEEMf16tW7fPmyZocbKrBs2TLNEAQjImUiOr/36NazfOaiGRNrthnMbZL3/NnTe/fu1exgUbcnMmbMqExF4sSJe/bsmSBBAmUePHhw9uzZ7969mz59eosWLVq3br148WI/Pz+Vqjh9+nS/fv2YZVq2bDlhwgR3d3cVzxQ2efJkAhcuXOjUqdOePXsI3759e+jQoU2aNGnbti3+kpKNeTWYLnv06NGsWbM+ffoENWOuX79+xYoVBHbu3Dlp0iQ1zwIirGvXrmw7cODAR48eqUjFzZs3hw0b1rRpU5z3H3/84eLiQuSTJ0/Y3N7enhIIbN68mcgDBw7MnDnTuJEGHp1UHx8fwtu3b1+3bh2BjRs3skh1dHQk7OnpOW3aNBqnTZs2VCxs75V8+PChX5/eM3sWSJnYSosKCasYUZcNKkzd1OGElrNnz546dapXr15FixbVooxEiRJl3LhxGTJkIBWTHuHoCJw5c6ZDhw6HDh0i/PHjx9WrV7dr147WpjdZu3/e8h+uXbtGF9DF7du3X7BggelLdgyJ/v37k0RR+F2OWksIltevX1MHxh5jjArT0SqeoUj5KqxA4DJQd+zYocy3b9+qcRugaxgPjExfX1+q2rlz54h2DfLFixcjR/3RpqxPTLN/gTFOTIuWpd4P6N8nwAkVZv40ghBxdnY+cuQIJ6+DgwPnyOPHj1G6r1690vIFC9n+/vvvZ8+eaXa44QS0s7PTDEEwIlImQoPLP3P+Qn/brJptHoliR+9cMv3cWTM0O1iyZ8/O/4kTJzKzqxgFa3Q8ugozyyMCSpcujcv08vK6e/cuoqREiRL6jPnXX3+VKlUK54FbYtbDsRUrVky5qJMnT+LS8PrkZy318OFDNFb+/PlXrlyJe3vw4EHv3r3JrLu6kSNHYiKM0A1r1qxh/bd7926VZAqTo3o+Zt++fXPmzEFJEMbDlStX7sqVK1QSD5c7d272bsxusWnTpgIFCixfvtzb29vNzQ2xRR2eP3/u6urK5ggmSiCAMCLz1q1bqYbaUHHixIlBgwap46Xmc+fORWbhjDkuNsSL58yZc/To0YQpCn1Ws2bNMFyEx0kkiB2lUfn0mm0eBbImrlDYesmSxZodGtTxfvHmWsGCBVXvEMaNDRkyZNWqVYwB1AAaEWFBN6HkWHPT2vPmzWPtvnbtWrUtXVO4cGEahzFAhi5dutAvqkFoPRsbG1oYDYFD+u2332xtbUNUfvjOPHnyMK7oMgYG5VMgfUqSKl8JSgVSid5RYppDyJUr16hRo/SuqV69OiKMJLQ1I5OxjYxjtJh/meH7wMmSOVW0rKk000zyZrBIGj+K3hHhgVHNWcBpy2mYJMn/72+hbNQYYEhoUWGFE4qllHxLQgg/ImUiNBs3bKiVP23i2KH+Zfz2JdLvPXBQOfjgwWMxJeEP8ubNy6SPRsHf4zm05H+gqMSJEzPdb9u2jaU8s9ulS5dwLSSx6h0xYkSjRo3s7e1RGHh9FrvkNL03wSoc908h3bp1IzVZsmRkUJlZ2d+6dYuVFtlQOQiCGTNmIEfYEbqHmRT3E/hA1q9fryQO+gPxlCZNGqo0a9Ys3O25c+coDR+Gc8XXKkVFBQoVKoTDI+ngwYN4WVzd/v37iWRzlAclEFBXekKEtSnOmM0RRrQbx54oUSKmfsQcIkwlBbiuYw4b1q1uWyW4x6GCon3VdOvXhuUxbcRElChROATNDhrcP+MEl093t2vXrmfPnlevXkUHMBhoUnqKlmzfvj3NTmaUcebMmdVoOXPmDF1//vx5dS0HEYnsQw3TSvTU1KlTkZu64gwKtPKLFy+uX7+OcqWRGa4JEyZU18Y6dOjAf1PnjdCJEydOgwYNCNM18eLFoyaqaxhy9L7pE80MDAbkmzdvkKpaVMRgzaplJbKE5Rne4pnfrVm9XDPCAacS6pMlTeC3otRdXdpfnVxVqlQJoIY5zRkPBCpWrFi7dm0CLVu2TJEiBePkyZMnqVKlot/pIDrR2tqac4f8+gPLY8eOJYMKK9iR2hZJSgARvGDBAgKR4tUE4fsgUiZCc/nc6eLp4mpGaEiXOFaKhHFwNpodLMwd5GSFamVlhY7BUaVNm7ZChQo4DC2HEYRC7NixVbhp06ZVq1Zlhc1kh5PDdaFm9Nd31ZMrappTUGbHjh0pn/Avv/zi4eGh140Z7dSpUyz3CavFfY8ePVRSrFix8DovX77EA6mYYMBflixZsnnz5spMkCABLgp1guti0d+3b19mz+jRNVEYuIahgiotXbq0UqVKHDKu+tq1a7QhUk+l1qlTh6U/Xl+Z5nP58qXiuZJqRmhgq3sPnM1RrgHw8fGJFi2aOW/w0tHdu3dv06ZNzJgx2RFaEO9Vt25dlRo/fvz58+fTnsq70Cw0kX4XgK3o4vz586skNzc3fWghnUlC3CgzKBiNS5YsyZIlizIZh3HjxlXdlyNHjlKlSiFl1OOu9DV1a9KkCWoGmcUwwxnrFxXwwchWilImkJPxRmbNjhjgre843M8SpgfAMqe0uHb1evgf/j18+DDtTNtq9r+pXLnyu3fvEKOEX7169fr1axWv4ARHehJgHYKIIdCwYUPEItqFgfTs2TNEydOnTzdv3nzkyJGuXbsiTZo1a2bc9POlmgBvLTBKGTPMM+XLl6cQhmuRIkUI5MuXT8sh/PSIlInQPHByzpYiLFIGslsnCfD4QjDkyZNn/PjxFy9eZHnK5IKDYaGMMtDvcOOn1a0oHcQHExarcKYnnAEuauHChb169WKOw3Vpmf5BrcwUuBZLS8sSJUqgWtgRa+hcuXIpbUEFmBZrmDBgwADizdFkly5dQrhomxkZPXo08VeuXKFu1DB16tQrVqzo168f/iyc3xJkoa+/M6Xe4kYnaXs1cuvWLXt7e29vb5XHHJivXZ+/ypomnmaHhuSJrOLFsTK9yWImiEUEQVD1xOuY3vpBoqnAjRs3/Pz88CvKVDCEUAy0NmHG0vv37wsUKEAkjmr79u158+ZNluzzC1kTJkxACRGPsmEtvnv3bhyS6f2LL4L+oNd27tyJC2zRokXWrFlNH4RCJdPaatfIFxcXFzwoYdU1qGGtV4zcvHnz7t27+jUA05EZcTAe3ackZj3oH5CUCS3eevkgJTU7rLi6urKkCUrmqqfryKPMoGBpoS6P0X29e/fWH7+jx1lj0Phly5b966+/hg4dSueG+BUJdBWFUCUGDwH5RKSgI1ImQoMjiWr6HYnQEDVKlBAfQYAdO3aoC/UKfBuTCytsHAArrdWrV6t41uIqoKO+zMbyEerVq6celfjll1/wFsxNKo9OihQptJCFRfHixXG66B4bGxtkU6tWrZgW1S0GfCfFoo1MYTakcLVtMHCwVFLbxkjy5MnZlqU8K1Q0Vvr06efMmYNiKFOmjOm6PAzglfVvOlFn/jNHa3s1UqxYMVaZ6pkMM1GdFTVqGE9JNjSnuwOgnMH58+eVacrbt2+jRYvWunVrzTbpRPXEd+AhQYxKqlSpkpOT09y5c5Epe/bsadq0aebMmdU7LAwPkmbNmpUzZ068V+PGjdElaCNjAUGCGLK2tkYVIZ3Jz+A0HRL169enzdU9po0bN6K51VPM5nRN2L4n+a2hK3+xCONXw9S10TAMhsAEc2lHJYX5y2YtW7bUL/FCly5d+K/eCRCEMCBSJkITN07sN97/elHIfN68ex83bshXdJYuXdq5c+fAT94pZ4A/UybLrwAfK3NwcGAiS5UqFXLn77//5v+xY8fwMT169NBvBOiYTnmPHz/G7NChw7Jly+7fv89WuJyBAweSlClTJmTNKhNWrlw5evToRo0aqW2DIUOGDDhmbTMjlM+2LOhPnDiB72RBf+HCBdRM37591c2OoAg8QQe4fh7F5Eu46oPxgwYN0vZqhHb4888/48ULxSUWNFy0aJZv3oblCzEf/T95eX8wp7sDQOPw/4uvtiq/gq5VJujNwmKd/wHuP9JEah2Pk3NxcYkePTrjiu5DuOzdu9fT03P48OH4V5KsrKy6devGgHn06BFK+tWrVwEesg4Aw6Njx45IH0YLBY4YMaJOnTqmfUSBCOL169ejqpEy7dq1U6mqawYMGKD1ihHVNfHja1c8TLsy4kBXfvT3/xCmU9/7w+eeMhUKYQPt6OzsHOBFRR11xZc8ygwtAX5mAZVMhZ88eaLZghBKRMpEaPLmzXvVJSxfO/1o+HTT2c2ce8l169ZFr/zxxx+a/Q/q3ZY8efIoEyc0Y8b/X4l68eLFpk2bWOAmSpSI+Y4Y07d58U/8D2pJV6BAAZyNZhhvVLFkV5qJJfupU6dM1+iHDh1i1lOvBAdPrVq19u/frx47VWzZsoVt7ezs8KaYpjVklc9/vYYBtAvreOqjv+Dt7e2t3pb6IhUqVIgVK9bcuXM129hW1apVa9GihWabh6WlZc7sma7d115iDxW3nd4ggwK4B3OwsbFBrKAq8PFalJFnz54NHTo0WbJk+rNHprAjBgYi2M3NTYsyfpwXzYHI4PCzZs2qXn1SVK5cOXXq1KgZpAbbKtmqoMeTJk0a/FM+7969e/nyJepT/4kGVBRK2nSAoYwRUqhVcqqHM6B8+fI4yHnz5ikTqBt71B/LiLCkTJkyYfy4LmG6R+TsZpHWOnn4n/6pVKmSj4/PkSNHNPvf7N69GzlYpEgRzf43tLMWCgJ9jaRAMH348CGon+AIsTRBECkToSldvtLO22Z9vCEAB249SxA/Ph5Fs4OGeb9KlSr4oTJlysycOXPz5s2LFi1q2LAhXqF69er16tVT2Zhlpk2b1r59e9a+8+fPL1WqlJeXl7qRpK5woE7wiCtWrEAbqU90sBb/4g17vM62bdtYRpN/7dq1nTp1unz5cpMmTUjq2bNnlixZ8EBjxoxheT1x4kTiS5QogTJQ2wYDDjJx4sRUjK3YlhLYEX4LBaNq2Ldv32XLlq1Zs4aqTpkyhZiTJ08qHYZ2efz4MXtX1ydsbW3xymxL9WgNWkZ/XjgwLKAnTJiAFEBL8Z+DorYckXpSJ1SUKWe740xYPr+x4/TjkiVKhO0CAw2CvGjdujX1R53QdNScFqNBFi9eHPgukgLp9ubNG7QsY4YhgW6jERo1alS1atWoUaO2bdt2+fLlHTt2pAEpnzHGIp6upDRyLliwoEuXLuvWraOtmjZtyo5U7wdFvHjxELsrV66cNGkS1WNkIr/wo8jWM2fOqDw5c+ZknFAHek2/Z4Q7ZzBQgZo1a7I5AYb0xYsXw9A135+y5cpfcwrLDypdfxSjfMUqmhEOOEMZ9kOGDAn8dDwteeXKFcZMtGifP96HCg9w8eb69etaKAgCKCTWKh8/flTnKeMHkapuDipCvP8oCJ8Xpmhe4T8Hv8s6WDP+gfVognhxjvcv92lho1D91cifbuiQIVopIcE0hEzJmzevujjB/1y5cuHsiVcZUBsJEyY8f/48IsN4HyQavgQdoFKZdMaOHcuym20TJUr022+/3bt3D0VCtlu3buHdWcGjaVRmoNhx48Zly5YN18skyL6mTp3KRKZSnz17RgmUQzVSpUrVo0eP169fq6QA3L59m5L37dun2QYDuoTpFSfHtmnTpu3fvz8NqJKWLFmiLlrg3nCcd+/eLVmyJBVgcUkqq3z0R758+XCxKv+MGTM4IspJmjTpiBEj0F60z6tXr0j6/fff8foqmw6TO5tzOKpxTGtlPkzZMWNEe7GryaeTrc3/8z3aMl2qhGhQrZTQ4+7uPnjwYFMF0Lx5c7pbSzYY0DQ0NStpzTZy4cIFlIGVlRXNmDFjRvoUn6eSCNBo6A8akAah6ZC/KomFPt6R/CThKfFedI1KCgC6ip16eHgQvnbtGv1F8+Ln0KY7duxAtVBC586dVWZYuHAhld++fbtm/wOaib3oXbNnzx4Vv3XrVspnzCgzosFKIGG8mIu7W6zoFYq/+V0sYllFO3v2rFZK+FAfFKhcubKjo6OK8TW+CB0rVizOX9U10KxZM+Smg4MDYWYD5CNdkyZNGpV6+vRpCkHaKlNdIiWD3u+urq6MEJYET58+xVSv/iFzVeqxY8fUzTJVPjDkOM1V+BvBkoYFjGYI3x50SDiRX8aOKCAX8CVjAv0y9qiRI3esmn9hYBlLs5//3XfrWeMll+443Avt5/xxM/h+PJl6a1oHh7Fp0yYcuWYHwefxZHKnJoAZEYj4NaxTq3oCf8cVQ/717d3gGb/abs2Jt1ev2+GttagwQWvQ+/gqtGA4i/pGUEP+610WoPuQmBs2bHj06FHErHxo4egKFchjHcO+QbFQfGtx9clovrELHz0e8g1ZM2GZgSpFm/76669MCwgRNze3EiVKIBD1B2VQveXKlaPZc+TI8fz5czqFDPolT4RyunTpvLy81NoG/Zo+ffq6desi95mgkiRJYmdnx8GuXbtWvU2GQipYsODDhw9ZGzAaCbC2Ya2FlFEP4ZUqVQp5xO7mzp3LCvBzDb42K+SXsb8v4Z+HRcpEFIKSMpzMhfPnLZvKYmbjkL9jBo/cvYtMPDZ6wpSOHTtqUeHGTCkjhB8XF5d8eXNN6ZKnbbXMWlSwHL/2vNqAo4cOHzV9EuinQk1fL1++zJYtW9euXceODfvPUUU0bty4Uaxoka6VffOY9/3nC/cslh+LeeXq9cDP3YcHtMuaNWvs7e2ZixIlSlSjRg39SwQ6d+/e3bhxIyokQ4YMLVu2RHagKfXb08gR5A6bo2Bev36t3iWkHGaVp0+fImiaNm1q+lk89e4kJSRIkKB58+aoliNHjrBtXOOD7ewFE9nNmP+6R6ojUuY7I1LmxyEoKQMPHjwoVbxoo7xJpjbIE/y72bddPWvMPVe1bqPZc+drUV8DkTLfk8OHD9epXXNqt/ydaoXwqNO+808ajzz919QZ32htGinw9vbOkSOHp6enlZXVzZs39Q8V/hisW7euQ/s2HSv6FQzpke4z9hYrj0dbv2GzeistwoJAUVJGvYAdMREp850Jv5SRx34jAZkyZTp55twhF/+ik0+cc/yynvD68HHifvsiE442a9d51pz/v7LxVWjfvv3X/bldIRgqVKiwa/feoUvu1B128sGTf73oofPc3afbtIsNRpyaM2/hz6xjIHr06B07duzXr9+5c+d+MB0DTZs2Xb1m/ZIjMZcdif4miJ8xePnWYuGhGOvOxNq6bUcE1zGC8I2QqzIRhWCuyijev3//59gxM6ZPz5oyQe2cifOnSZAodnTDp093n7875+yx8ZJLpowZp8+eG9SHxoXIxYsXLwb067Nu/YayhdJWzJ8wX+ZEsWJa+voZ7B6+Pn7j9c6TDytWKDt95tzMmc26DyVEapydnXt277Jv/8H8WWJmSeZlndgiWlQL348WLi8t7rrFufHAp06dmtOmzw7w00URk6dPnxYuXHj8+PGtWrXSoiIeclXmOyM3mH4cQpQyirdv365fv/7Ywf3Xrl/zfOsVJcovGdKmKVi0eMNGjX/apyV+YFxdXVetWnX21FG7W3fev/9gaRk1R7YsRYqXbt68xTd6SkCIsDx8+JDBcOrEIYe79z/6fYwePXqO7FlKlbVt2bJlmD9VJ3wRkTLfGZEyPw5mShlBEAThmyJS5jsjz8oIgiAIgvBTI1JGEARBEIRIjEgZQRAEQRAiMSJlBEEQBEGIxIiUEQRBEAQhEiNSRhAEQRCESIxIGUEQBEEQIjHyXZmIQqdOnWLFitWvXz/NFgRBEP4LNm/evH37dvmuzHdDPpH34zBs2LBx48ZphiAIgvDf0bBhww0bNmiG8I0RKfND4e/vr4UEQRCE/46oUaNqIeHbI1JGEARBEIRIjPxwgSAIgiAIPzUiZQRBEARBiMSIlBEEQRAEIRIjUkYQBEEQhEiMSBlBEARBECIxImUEQRAEQYjEiJQRBEEQBCESI1JGEARBEIRIjEgZQRAEQRAiMSJlBEEQBEGIxHz+4QItKAiCIAiCENmQqzKCIAiCIERiRMoIgiAIghCJESkjCIIgCEKkxcLif+hJ1y0Q/bE1AAAAAElFTkSuQmCCwueDhetzi5tPY1654127do2p02YF+Bmy8MmjR48KFiw4bty4li1balHhD7lu9IORe2pCkISojRRv3rxZu3bt4X17Ll2+9PqNZ6RIv6VNlTJ/4aINGjb6zz5x8gvj5ua2YsWKU8cPXbvu8O7de0vLyFkzZyxUtGSzZs2/05MWQrjl7t27DIbjR/c73bz9wfdDlChRsmbJWKJ0xRYtWoT5G4zCFxFt9IMRbSQEiZnaSBAEQfiuiDb6wcjzRoIgCIIgCD8Z0UaCIAiCIAj+iDYSBEEQBEHwR7SRIAiCIAiCP6KNBEEQBEEQ/BFtJAiCIAiC4I9oI0EQBEEQBH/k+0YRg44dO0aPHr1Pnz6aLQiCIPwMNm7cuHXrVvm+0Q9Dvv0oBMngwYPHjh2rGYIgCMLPo0GDBuvWrdMM4Tsj2kgIDj8/Py0kCIIg/DwiR46shYTvj2gjQRAEQRAEf+Q3QwRBEARBEH4yoo0EQRAEQRD8EW0kCIIgCILgj2gjQRAEQRAEf0QbCYIgCIIg+CPaSBAEQRAEwR/RRoIgCIIgCP6INhIEQRAEQfBHtJEgCIIgCII/oo0EQRAEQRD8Cfk3QwRBEARBEP47yHUjQRAEQRAEf0QbCYIgCIIg+CPaSBAEQRAEwR/RRoIgCIIgCP6INhIEQRAEQfBHtJEgCIIgCII/oo0EQRAEQRD8EW0kCIIgCILgj2gjQRAEQRAEf0QbCYIgCIIg+CPaSBAEQRAEwR/RRoIgCIIgCP6INhIEQRAEQfBHtJEgCIIgCII/oo0EQRAEQRD8EW0kCIIgCILgz2/nz5/XgoIgCIIgCP955LqRIAiCIAiCP6KNBEEQBEEQPmNh8X8PydZIfKNuhAAAAABJRU5ErkJggg==&quot;&gt;&lt;br&gt;&lt;/div&gt;" style="rounded=0;whiteSpace=wrap;html=1;align=center;verticalAlign=top;spacing=2;spacingLeft=4;strokeColor=#000000;" parent="1" vertex="1">
          <mxGeometry x="550" y="160" width="540" height="550" as="geometry" />
        </mxCell>
      </root>
    </mxGraphModel>
  </diagram>
</mxfile>
